<svg width="1920" height="154" viewBox="0 0 1920 154" fill="none" xmlns="http://www.w3.org/2000/svg">
<rect width="1920" height="154" fill="#7CFC00"/>
<path d="M51.168 104.864C46.8 104.864 43.128 104.096 40.152 102.56C37.176 101.024 34.728 98.984 32.808 96.44L37.992 91.472C39.912 93.776 41.952 95.48 44.112 96.584C46.272 97.64 48.72 98.168 51.456 98.168C54.624 98.168 57.048 97.448 58.728 96.008C60.456 94.568 61.32 92.504 61.32 89.816C61.32 87.656 60.696 86 59.448 84.848C58.2 83.648 56.064 82.784 53.04 82.256L47.568 81.392C45.168 81.008 43.152 80.384 41.52 79.52C39.888 78.608 38.568 77.552 37.56 76.352C36.552 75.104 35.808 73.736 35.328 72.248C34.896 70.712 34.68 69.104 34.68 67.424C34.68 62.672 36.216 59.072 39.288 56.624C42.36 54.128 46.584 52.88 51.96 52.88C55.944 52.88 59.328 53.528 62.112 54.824C64.944 56.072 67.224 57.848 68.952 60.152L63.912 65.192C62.52 63.512 60.864 62.168 58.944 61.16C57.072 60.104 54.744 59.576 51.96 59.576C48.984 59.576 46.704 60.224 45.12 61.52C43.584 62.768 42.816 64.616 42.816 67.064C42.816 69.128 43.416 70.76 44.616 71.96C45.864 73.112 48.048 73.952 51.168 74.48L56.496 75.416C61.008 76.232 64.296 77.888 66.36 80.384C68.424 82.832 69.456 85.832 69.456 89.384C69.456 91.688 69.048 93.8 68.232 95.72C67.464 97.64 66.288 99.272 64.704 100.616C63.168 101.96 61.248 103.016 58.944 103.784C56.688 104.504 54.096 104.864 51.168 104.864ZM79.5079 50.72H87.3559V82.904H87.7159L93.5479 76.928L103.988 66.848H113.276L98.2279 81.464L114.932 104H105.5L92.5399 85.928L87.3559 90.752V104H79.5079V50.72ZM140.248 60.08C138.232 60.08 136.816 59.672 136 58.856C135.232 58.04 134.848 57.032 134.848 55.832V54.32C134.848 53.12 135.232 52.112 136 51.296C136.816 50.48 138.208 50.072 140.176 50.072C142.192 50.072 143.584 50.48 144.352 51.296C145.168 52.112 145.576 53.12 145.576 54.32V55.832C145.576 57.032 145.168 58.04 144.352 58.856C143.584 59.672 142.216 60.08 140.248 60.08ZM123.616 97.664H136.288V73.184H123.616V66.848H144.136V97.664H156.016V104H123.616V97.664ZM164.916 97.664H177.228V57.056H164.916V50.72H185.076V97.664H197.388V104H164.916V97.664ZM208.088 97.664H220.4V57.056H208.088V50.72H228.248V97.664H240.56V104H208.088V97.664ZM267.531 104.864C263.499 104.864 260.019 104.216 257.091 102.92C254.211 101.624 251.883 99.896 250.107 97.736L254.931 93.416C256.563 95.192 258.387 96.56 260.403 97.52C262.467 98.432 264.891 98.888 267.675 98.888C270.219 98.888 272.259 98.456 273.795 97.592C275.379 96.728 276.171 95.384 276.171 93.56C276.171 92.792 276.027 92.144 275.739 91.616C275.451 91.088 275.043 90.656 274.515 90.32C273.987 89.984 273.363 89.72 272.643 89.528C271.971 89.336 271.251 89.192 270.483 89.096L264.579 88.16C263.139 87.968 261.675 87.656 260.187 87.224C258.699 86.792 257.355 86.192 256.155 85.424C255.003 84.608 254.043 83.576 253.275 82.328C252.555 81.08 252.195 79.496 252.195 77.576C252.195 73.784 253.635 70.904 256.515 68.936C259.443 66.968 263.283 65.984 268.035 65.984C271.491 65.984 274.467 66.512 276.963 67.568C279.507 68.576 281.619 69.992 283.299 71.816L278.907 76.424C277.947 75.32 276.579 74.312 274.803 73.4C273.027 72.44 270.675 71.96 267.747 71.96C262.515 71.96 259.899 73.616 259.899 76.928C259.899 78.512 260.451 79.616 261.555 80.24C262.707 80.816 264.051 81.2 265.587 81.392L271.491 82.328C272.979 82.568 274.443 82.88 275.883 83.264C277.371 83.648 278.691 84.248 279.843 85.064C281.043 85.832 282.003 86.84 282.723 88.088C283.491 89.336 283.875 90.92 283.875 92.84C283.875 96.584 282.411 99.536 279.483 101.696C276.603 103.808 272.619 104.864 267.531 104.864Z" fill="black"/>
<path d="M371.168 104.864C366.8 104.864 363.128 104.096 360.152 102.56C357.176 101.024 354.728 98.984 352.808 96.44L357.992 91.472C359.912 93.776 361.952 95.48 364.112 96.584C366.272 97.64 368.72 98.168 371.456 98.168C374.624 98.168 377.048 97.448 378.728 96.008C380.456 94.568 381.32 92.504 381.32 89.816C381.32 87.656 380.696 86 379.448 84.848C378.2 83.648 376.064 82.784 373.04 82.256L367.568 81.392C365.168 81.008 363.152 80.384 361.52 79.52C359.888 78.608 358.568 77.552 357.56 76.352C356.552 75.104 355.808 73.736 355.328 72.248C354.896 70.712 354.68 69.104 354.68 67.424C354.68 62.672 356.216 59.072 359.288 56.624C362.36 54.128 366.584 52.88 371.96 52.88C375.944 52.88 379.328 53.528 382.112 54.824C384.944 56.072 387.224 57.848 388.952 60.152L383.912 65.192C382.52 63.512 380.864 62.168 378.944 61.16C377.072 60.104 374.744 59.576 371.96 59.576C368.984 59.576 366.704 60.224 365.12 61.52C363.584 62.768 362.816 64.616 362.816 67.064C362.816 69.128 363.416 70.76 364.616 71.96C365.864 73.112 368.048 73.952 371.168 74.48L376.496 75.416C381.008 76.232 384.296 77.888 386.36 80.384C388.424 82.832 389.456 85.832 389.456 89.384C389.456 91.688 389.048 93.8 388.232 95.72C387.464 97.64 386.288 99.272 384.704 100.616C383.168 101.96 381.248 103.016 378.944 103.784C376.688 104.504 374.096 104.864 371.168 104.864ZM399.508 50.72H407.356V82.904H407.716L413.548 76.928L423.988 66.848H433.276L418.228 81.464L434.932 104H425.5L412.54 85.928L407.356 90.752V104H399.508V50.72ZM460.248 60.08C458.232 60.08 456.816 59.672 456 58.856C455.232 58.04 454.848 57.032 454.848 55.832V54.32C454.848 53.12 455.232 52.112 456 51.296C456.816 50.48 458.208 50.072 460.176 50.072C462.192 50.072 463.584 50.48 464.352 51.296C465.168 52.112 465.576 53.12 465.576 54.32V55.832C465.576 57.032 465.168 58.04 464.352 58.856C463.584 59.672 462.216 60.08 460.248 60.08ZM443.616 97.664H456.288V73.184H443.616V66.848H464.136V97.664H476.016V104H443.616V97.664ZM484.916 97.664H497.228V57.056H484.916V50.72H505.076V97.664H517.388V104H484.916V97.664ZM528.088 97.664H540.4V57.056H528.088V50.72H548.248V97.664H560.56V104H528.088V97.664ZM587.531 104.864C583.499 104.864 580.019 104.216 577.091 102.92C574.211 101.624 571.883 99.896 570.107 97.736L574.931 93.416C576.563 95.192 578.387 96.56 580.403 97.52C582.467 98.432 584.891 98.888 587.675 98.888C590.219 98.888 592.259 98.456 593.795 97.592C595.379 96.728 596.171 95.384 596.171 93.56C596.171 92.792 596.027 92.144 595.739 91.616C595.451 91.088 595.043 90.656 594.515 90.32C593.987 89.984 593.363 89.72 592.643 89.528C591.971 89.336 591.251 89.192 590.483 89.096L584.579 88.16C583.139 87.968 581.675 87.656 580.187 87.224C578.699 86.792 577.355 86.192 576.155 85.424C575.003 84.608 574.043 83.576 573.275 82.328C572.555 81.08 572.195 79.496 572.195 77.576C572.195 73.784 573.635 70.904 576.515 68.936C579.443 66.968 583.283 65.984 588.035 65.984C591.491 65.984 594.467 66.512 596.963 67.568C599.507 68.576 601.619 69.992 603.299 71.816L598.907 76.424C597.947 75.32 596.579 74.312 594.803 73.4C593.027 72.44 590.675 71.96 587.747 71.96C582.515 71.96 579.899 73.616 579.899 76.928C579.899 78.512 580.451 79.616 581.555 80.24C582.707 80.816 584.051 81.2 585.587 81.392L591.491 82.328C592.979 82.568 594.443 82.88 595.883 83.264C597.371 83.648 598.691 84.248 599.843 85.064C601.043 85.832 602.003 86.84 602.723 88.088C603.491 89.336 603.875 90.92 603.875 92.84C603.875 96.584 602.411 99.536 599.483 101.696C596.603 103.808 592.619 104.864 587.531 104.864Z" fill="black"/>
<path d="M691.168 104.864C686.8 104.864 683.128 104.096 680.152 102.56C677.176 101.024 674.728 98.984 672.808 96.44L677.992 91.472C679.912 93.776 681.952 95.48 684.112 96.584C686.272 97.64 688.72 98.168 691.456 98.168C694.624 98.168 697.048 97.448 698.728 96.008C700.456 94.568 701.32 92.504 701.32 89.816C701.32 87.656 700.696 86 699.448 84.848C698.2 83.648 696.064 82.784 693.04 82.256L687.568 81.392C685.168 81.008 683.152 80.384 681.52 79.52C679.888 78.608 678.568 77.552 677.56 76.352C676.552 75.104 675.808 73.736 675.328 72.248C674.896 70.712 674.68 69.104 674.68 67.424C674.68 62.672 676.216 59.072 679.288 56.624C682.36 54.128 686.584 52.88 691.96 52.88C695.944 52.88 699.328 53.528 702.112 54.824C704.944 56.072 707.224 57.848 708.952 60.152L703.912 65.192C702.52 63.512 700.864 62.168 698.944 61.16C697.072 60.104 694.744 59.576 691.96 59.576C688.984 59.576 686.704 60.224 685.12 61.52C683.584 62.768 682.816 64.616 682.816 67.064C682.816 69.128 683.416 70.76 684.616 71.96C685.864 73.112 688.048 73.952 691.168 74.48L696.496 75.416C701.008 76.232 704.296 77.888 706.36 80.384C708.424 82.832 709.456 85.832 709.456 89.384C709.456 91.688 709.048 93.8 708.232 95.72C707.464 97.64 706.288 99.272 704.704 100.616C703.168 101.96 701.248 103.016 698.944 103.784C696.688 104.504 694.096 104.864 691.168 104.864ZM719.508 50.72H727.356V82.904H727.716L733.548 76.928L743.988 66.848H753.276L738.228 81.464L754.932 104H745.5L732.54 85.928L727.356 90.752V104H719.508V50.72ZM780.248 60.08C778.232 60.08 776.816 59.672 776 58.856C775.232 58.04 774.848 57.032 774.848 55.832V54.32C774.848 53.12 775.232 52.112 776 51.296C776.816 50.48 778.208 50.072 780.176 50.072C782.192 50.072 783.584 50.48 784.352 51.296C785.168 52.112 785.576 53.12 785.576 54.32V55.832C785.576 57.032 785.168 58.04 784.352 58.856C783.584 59.672 782.216 60.08 780.248 60.08ZM763.616 97.664H776.288V73.184H763.616V66.848H784.136V97.664H796.016V104H763.616V97.664ZM804.916 97.664H817.228V57.056H804.916V50.72H825.076V97.664H837.388V104H804.916V97.664ZM848.088 97.664H860.4V57.056H848.088V50.72H868.248V97.664H880.56V104H848.088V97.664ZM907.531 104.864C903.499 104.864 900.019 104.216 897.091 102.92C894.211 101.624 891.883 99.896 890.107 97.736L894.931 93.416C896.563 95.192 898.387 96.56 900.403 97.52C902.467 98.432 904.891 98.888 907.675 98.888C910.219 98.888 912.259 98.456 913.795 97.592C915.379 96.728 916.171 95.384 916.171 93.56C916.171 92.792 916.027 92.144 915.739 91.616C915.451 91.088 915.043 90.656 914.515 90.32C913.987 89.984 913.363 89.72 912.643 89.528C911.971 89.336 911.251 89.192 910.483 89.096L904.579 88.16C903.139 87.968 901.675 87.656 900.187 87.224C898.699 86.792 897.355 86.192 896.155 85.424C895.003 84.608 894.043 83.576 893.275 82.328C892.555 81.08 892.195 79.496 892.195 77.576C892.195 73.784 893.635 70.904 896.515 68.936C899.443 66.968 903.283 65.984 908.035 65.984C911.491 65.984 914.467 66.512 916.963 67.568C919.507 68.576 921.619 69.992 923.299 71.816L918.907 76.424C917.947 75.32 916.579 74.312 914.803 73.4C913.027 72.44 910.675 71.96 907.747 71.96C902.515 71.96 899.899 73.616 899.899 76.928C899.899 78.512 900.451 79.616 901.555 80.24C902.707 80.816 904.051 81.2 905.587 81.392L911.491 82.328C912.979 82.568 914.443 82.88 915.883 83.264C917.371 83.648 918.691 84.248 919.843 85.064C921.043 85.832 922.003 86.84 922.723 88.088C923.491 89.336 923.875 90.92 923.875 92.84C923.875 96.584 922.411 99.536 919.483 101.696C916.603 103.808 912.619 104.864 907.531 104.864Z" fill="black"/>
<path d="M1011.17 104.864C1006.8 104.864 1003.13 104.096 1000.15 102.56C997.176 101.024 994.728 98.984 992.808 96.44L997.992 91.472C999.912 93.776 1001.95 95.48 1004.11 96.584C1006.27 97.64 1008.72 98.168 1011.46 98.168C1014.62 98.168 1017.05 97.448 1018.73 96.008C1020.46 94.568 1021.32 92.504 1021.32 89.816C1021.32 87.656 1020.7 86 1019.45 84.848C1018.2 83.648 1016.06 82.784 1013.04 82.256L1007.57 81.392C1005.17 81.008 1003.15 80.384 1001.52 79.52C999.888 78.608 998.568 77.552 997.56 76.352C996.552 75.104 995.808 73.736 995.328 72.248C994.896 70.712 994.68 69.104 994.68 67.424C994.68 62.672 996.216 59.072 999.288 56.624C1002.36 54.128 1006.58 52.88 1011.96 52.88C1015.94 52.88 1019.33 53.528 1022.11 54.824C1024.94 56.072 1027.22 57.848 1028.95 60.152L1023.91 65.192C1022.52 63.512 1020.86 62.168 1018.94 61.16C1017.07 60.104 1014.74 59.576 1011.96 59.576C1008.98 59.576 1006.7 60.224 1005.12 61.52C1003.58 62.768 1002.82 64.616 1002.82 67.064C1002.82 69.128 1003.42 70.76 1004.62 71.96C1005.86 73.112 1008.05 73.952 1011.17 74.48L1016.5 75.416C1021.01 76.232 1024.3 77.888 1026.36 80.384C1028.42 82.832 1029.46 85.832 1029.46 89.384C1029.46 91.688 1029.05 93.8 1028.23 95.72C1027.46 97.64 1026.29 99.272 1024.7 100.616C1023.17 101.96 1021.25 103.016 1018.94 103.784C1016.69 104.504 1014.1 104.864 1011.17 104.864ZM1039.51 50.72H1047.36V82.904H1047.72L1053.55 76.928L1063.99 66.848H1073.28L1058.23 81.464L1074.93 104H1065.5L1052.54 85.928L1047.36 90.752V104H1039.51V50.72ZM1100.25 60.08C1098.23 60.08 1096.82 59.672 1096 58.856C1095.23 58.04 1094.85 57.032 1094.85 55.832V54.32C1094.85 53.12 1095.23 52.112 1096 51.296C1096.82 50.48 1098.21 50.072 1100.18 50.072C1102.19 50.072 1103.58 50.48 1104.35 51.296C1105.17 52.112 1105.58 53.12 1105.58 54.32V55.832C1105.58 57.032 1105.17 58.04 1104.35 58.856C1103.58 59.672 1102.22 60.08 1100.25 60.08ZM1083.62 97.664H1096.29V73.184H1083.62V66.848H1104.14V97.664H1116.02V104H1083.62V97.664ZM1124.92 97.664H1137.23V57.056H1124.92V50.72H1145.08V97.664H1157.39V104H1124.92V97.664ZM1168.09 97.664H1180.4V57.056H1168.09V50.72H1188.25V97.664H1200.56V104H1168.09V97.664ZM1227.53 104.864C1223.5 104.864 1220.02 104.216 1217.09 102.92C1214.21 101.624 1211.88 99.896 1210.11 97.736L1214.93 93.416C1216.56 95.192 1218.39 96.56 1220.4 97.52C1222.47 98.432 1224.89 98.888 1227.68 98.888C1230.22 98.888 1232.26 98.456 1233.8 97.592C1235.38 96.728 1236.17 95.384 1236.17 93.56C1236.17 92.792 1236.03 92.144 1235.74 91.616C1235.45 91.088 1235.04 90.656 1234.52 90.32C1233.99 89.984 1233.36 89.72 1232.64 89.528C1231.97 89.336 1231.25 89.192 1230.48 89.096L1224.58 88.16C1223.14 87.968 1221.68 87.656 1220.19 87.224C1218.7 86.792 1217.36 86.192 1216.16 85.424C1215 84.608 1214.04 83.576 1213.28 82.328C1212.56 81.08 1212.2 79.496 1212.2 77.576C1212.2 73.784 1213.64 70.904 1216.52 68.936C1219.44 66.968 1223.28 65.984 1228.04 65.984C1231.49 65.984 1234.47 66.512 1236.96 67.568C1239.51 68.576 1241.62 69.992 1243.3 71.816L1238.91 76.424C1237.95 75.32 1236.58 74.312 1234.8 73.4C1233.03 72.44 1230.68 71.96 1227.75 71.96C1222.52 71.96 1219.9 73.616 1219.9 76.928C1219.9 78.512 1220.45 79.616 1221.56 80.24C1222.71 80.816 1224.05 81.2 1225.59 81.392L1231.49 82.328C1232.98 82.568 1234.44 82.88 1235.88 83.264C1237.37 83.648 1238.69 84.248 1239.84 85.064C1241.04 85.832 1242 86.84 1242.72 88.088C1243.49 89.336 1243.88 90.92 1243.88 92.84C1243.88 96.584 1242.41 99.536 1239.48 101.696C1236.6 103.808 1232.62 104.864 1227.53 104.864Z" fill="black"/>
<path d="M1331.17 104.864C1326.8 104.864 1323.13 104.096 1320.15 102.56C1317.18 101.024 1314.73 98.984 1312.81 96.44L1317.99 91.472C1319.91 93.776 1321.95 95.48 1324.11 96.584C1326.27 97.64 1328.72 98.168 1331.46 98.168C1334.62 98.168 1337.05 97.448 1338.73 96.008C1340.46 94.568 1341.32 92.504 1341.32 89.816C1341.32 87.656 1340.7 86 1339.45 84.848C1338.2 83.648 1336.06 82.784 1333.04 82.256L1327.57 81.392C1325.17 81.008 1323.15 80.384 1321.52 79.52C1319.89 78.608 1318.57 77.552 1317.56 76.352C1316.55 75.104 1315.81 73.736 1315.33 72.248C1314.9 70.712 1314.68 69.104 1314.68 67.424C1314.68 62.672 1316.22 59.072 1319.29 56.624C1322.36 54.128 1326.58 52.88 1331.96 52.88C1335.94 52.88 1339.33 53.528 1342.11 54.824C1344.94 56.072 1347.22 57.848 1348.95 60.152L1343.91 65.192C1342.52 63.512 1340.86 62.168 1338.94 61.16C1337.07 60.104 1334.74 59.576 1331.96 59.576C1328.98 59.576 1326.7 60.224 1325.12 61.52C1323.58 62.768 1322.82 64.616 1322.82 67.064C1322.82 69.128 1323.42 70.76 1324.62 71.96C1325.86 73.112 1328.05 73.952 1331.17 74.48L1336.5 75.416C1341.01 76.232 1344.3 77.888 1346.36 80.384C1348.42 82.832 1349.46 85.832 1349.46 89.384C1349.46 91.688 1349.05 93.8 1348.23 95.72C1347.46 97.64 1346.29 99.272 1344.7 100.616C1343.17 101.96 1341.25 103.016 1338.94 103.784C1336.69 104.504 1334.1 104.864 1331.17 104.864ZM1359.51 50.72H1367.36V82.904H1367.72L1373.55 76.928L1383.99 66.848H1393.28L1378.23 81.464L1394.93 104H1385.5L1372.54 85.928L1367.36 90.752V104H1359.51V50.72ZM1420.25 60.08C1418.23 60.08 1416.82 59.672 1416 58.856C1415.23 58.04 1414.85 57.032 1414.85 55.832V54.32C1414.85 53.12 1415.23 52.112 1416 51.296C1416.82 50.48 1418.21 50.072 1420.18 50.072C1422.19 50.072 1423.58 50.48 1424.35 51.296C1425.17 52.112 1425.58 53.12 1425.58 54.32V55.832C1425.58 57.032 1425.17 58.04 1424.35 58.856C1423.58 59.672 1422.22 60.08 1420.25 60.08ZM1403.62 97.664H1416.29V73.184H1403.62V66.848H1424.14V97.664H1436.02V104H1403.62V97.664ZM1444.92 97.664H1457.23V57.056H1444.92V50.72H1465.08V97.664H1477.39V104H1444.92V97.664ZM1488.09 97.664H1500.4V57.056H1488.09V50.72H1508.25V97.664H1520.56V104H1488.09V97.664ZM1547.53 104.864C1543.5 104.864 1540.02 104.216 1537.09 102.92C1534.21 101.624 1531.88 99.896 1530.11 97.736L1534.93 93.416C1536.56 95.192 1538.39 96.56 1540.4 97.52C1542.47 98.432 1544.89 98.888 1547.68 98.888C1550.22 98.888 1552.26 98.456 1553.8 97.592C1555.38 96.728 1556.17 95.384 1556.17 93.56C1556.17 92.792 1556.03 92.144 1555.74 91.616C1555.45 91.088 1555.04 90.656 1554.52 90.32C1553.99 89.984 1553.36 89.72 1552.64 89.528C1551.97 89.336 1551.25 89.192 1550.48 89.096L1544.58 88.16C1543.14 87.968 1541.68 87.656 1540.19 87.224C1538.7 86.792 1537.36 86.192 1536.16 85.424C1535 84.608 1534.04 83.576 1533.28 82.328C1532.56 81.08 1532.2 79.496 1532.2 77.576C1532.2 73.784 1533.64 70.904 1536.52 68.936C1539.44 66.968 1543.28 65.984 1548.04 65.984C1551.49 65.984 1554.47 66.512 1556.96 67.568C1559.51 68.576 1561.62 69.992 1563.3 71.816L1558.91 76.424C1557.95 75.32 1556.58 74.312 1554.8 73.4C1553.03 72.44 1550.68 71.96 1547.75 71.96C1542.52 71.96 1539.9 73.616 1539.9 76.928C1539.9 78.512 1540.45 79.616 1541.56 80.24C1542.71 80.816 1544.05 81.2 1545.59 81.392L1551.49 82.328C1552.98 82.568 1554.44 82.88 1555.88 83.264C1557.37 83.648 1558.69 84.248 1559.84 85.064C1561.04 85.832 1562 86.84 1562.72 88.088C1563.49 89.336 1563.88 90.92 1563.88 92.84C1563.88 96.584 1562.41 99.536 1559.48 101.696C1556.6 103.808 1552.62 104.864 1547.53 104.864Z" fill="black"/>
<path d="M1651.17 104.864C1646.8 104.864 1643.13 104.096 1640.15 102.56C1637.18 101.024 1634.73 98.984 1632.81 96.44L1637.99 91.472C1639.91 93.776 1641.95 95.48 1644.11 96.584C1646.27 97.64 1648.72 98.168 1651.46 98.168C1654.62 98.168 1657.05 97.448 1658.73 96.008C1660.46 94.568 1661.32 92.504 1661.32 89.816C1661.32 87.656 1660.7 86 1659.45 84.848C1658.2 83.648 1656.06 82.784 1653.04 82.256L1647.57 81.392C1645.17 81.008 1643.15 80.384 1641.52 79.52C1639.89 78.608 1638.57 77.552 1637.56 76.352C1636.55 75.104 1635.81 73.736 1635.33 72.248C1634.9 70.712 1634.68 69.104 1634.68 67.424C1634.68 62.672 1636.22 59.072 1639.29 56.624C1642.36 54.128 1646.58 52.88 1651.96 52.88C1655.94 52.88 1659.33 53.528 1662.11 54.824C1664.94 56.072 1667.22 57.848 1668.95 60.152L1663.91 65.192C1662.52 63.512 1660.86 62.168 1658.94 61.16C1657.07 60.104 1654.74 59.576 1651.96 59.576C1648.98 59.576 1646.7 60.224 1645.12 61.52C1643.58 62.768 1642.82 64.616 1642.82 67.064C1642.82 69.128 1643.42 70.76 1644.62 71.96C1645.86 73.112 1648.05 73.952 1651.17 74.48L1656.5 75.416C1661.01 76.232 1664.3 77.888 1666.36 80.384C1668.42 82.832 1669.46 85.832 1669.46 89.384C1669.46 91.688 1669.05 93.8 1668.23 95.72C1667.46 97.64 1666.29 99.272 1664.7 100.616C1663.17 101.96 1661.25 103.016 1658.94 103.784C1656.69 104.504 1654.1 104.864 1651.17 104.864ZM1679.51 50.72H1687.36V82.904H1687.72L1693.55 76.928L1703.99 66.848H1713.28L1698.23 81.464L1714.93 104H1705.5L1692.54 85.928L1687.36 90.752V104H1679.51V50.72ZM1740.25 60.08C1738.23 60.08 1736.82 59.672 1736 58.856C1735.23 58.04 1734.85 57.032 1734.85 55.832V54.32C1734.85 53.12 1735.23 52.112 1736 51.296C1736.82 50.48 1738.21 50.072 1740.18 50.072C1742.19 50.072 1743.58 50.48 1744.35 51.296C1745.17 52.112 1745.58 53.12 1745.58 54.32V55.832C1745.58 57.032 1745.17 58.04 1744.35 58.856C1743.58 59.672 1742.22 60.08 1740.25 60.08ZM1723.62 97.664H1736.29V73.184H1723.62V66.848H1744.14V97.664H1756.02V104H1723.62V97.664ZM1764.92 97.664H1777.23V57.056H1764.92V50.72H1785.08V97.664H1797.39V104H1764.92V97.664ZM1808.09 97.664H1820.4V57.056H1808.09V50.72H1828.25V97.664H1840.56V104H1808.09V97.664ZM1867.53 104.864C1863.5 104.864 1860.02 104.216 1857.09 102.92C1854.21 101.624 1851.88 99.896 1850.11 97.736L1854.93 93.416C1856.56 95.192 1858.39 96.56 1860.4 97.52C1862.47 98.432 1864.89 98.888 1867.68 98.888C1870.22 98.888 1872.26 98.456 1873.8 97.592C1875.38 96.728 1876.17 95.384 1876.17 93.56C1876.17 92.792 1876.03 92.144 1875.74 91.616C1875.45 91.088 1875.04 90.656 1874.52 90.32C1873.99 89.984 1873.36 89.72 1872.64 89.528C1871.97 89.336 1871.25 89.192 1870.48 89.096L1864.58 88.16C1863.14 87.968 1861.68 87.656 1860.19 87.224C1858.7 86.792 1857.36 86.192 1856.16 85.424C1855 84.608 1854.04 83.576 1853.28 82.328C1852.56 81.08 1852.2 79.496 1852.2 77.576C1852.2 73.784 1853.64 70.904 1856.52 68.936C1859.44 66.968 1863.28 65.984 1868.04 65.984C1871.49 65.984 1874.47 66.512 1876.96 67.568C1879.51 68.576 1881.62 69.992 1883.3 71.816L1878.91 76.424C1877.95 75.32 1876.58 74.312 1874.8 73.4C1873.03 72.44 1870.68 71.96 1867.75 71.96C1862.52 71.96 1859.9 73.616 1859.9 76.928C1859.9 78.512 1860.45 79.616 1861.56 80.24C1862.71 80.816 1864.05 81.2 1865.59 81.392L1871.49 82.328C1872.98 82.568 1874.44 82.88 1875.88 83.264C1877.37 83.648 1878.69 84.248 1879.84 85.064C1881.04 85.832 1882 86.84 1882.72 88.088C1883.49 89.336 1883.88 90.92 1883.88 92.84C1883.88 96.584 1882.41 99.536 1879.48 101.696C1876.6 103.808 1872.62 104.864 1867.53 104.864Z" fill="black"/>
</svg>
