<svg width="1920" height="154" viewBox="0 0 1920 154" fill="none" xmlns="http://www.w3.org/2000/svg">
<g clip-path="url(#clip0_1293_132)">
<rect width="1920" height="154" fill="#7CFC00"/>
<path d="M37.02 103.5V54.64H58.02C62.5467 54.64 66.0467 55.97 68.52 58.63C70.9933 61.29 72.23 64.86 72.23 69.34C72.23 73.82 70.9933 77.39 68.52 80.05C66.0467 82.71 62.5467 84.04 58.02 84.04H44.93V103.5H37.02ZM44.93 77.11H57.53C59.5367 77.11 61.1 76.5967 62.22 75.57C63.34 74.4967 63.9 72.98 63.9 71.02V67.66C63.9 65.7 63.34 64.2067 62.22 63.18C61.1 62.1067 59.5367 61.57 57.53 61.57H44.93V77.11ZM79.6631 103.5V67.1H87.2931V74.1H87.6431C88.1565 72.2333 89.2298 70.6 90.8631 69.2C92.4965 67.8 94.7598 67.1 97.6531 67.1H99.6831V74.45H96.6731C93.6398 74.45 91.3065 74.94 89.6731 75.92C88.0865 76.9 87.2931 78.3467 87.2931 80.26V103.5H79.6631ZM120.398 104.34C117.878 104.34 115.568 103.897 113.468 103.01C111.415 102.123 109.665 100.863 108.218 99.23C106.772 97.55 105.652 95.5433 104.858 93.21C104.065 90.83 103.668 88.1933 103.668 85.3C103.668 82.4067 104.065 79.7933 104.858 77.46C105.652 75.08 106.772 73.0733 108.218 71.44C109.665 69.76 111.415 68.4767 113.468 67.59C115.568 66.7033 117.878 66.26 120.398 66.26C122.918 66.26 125.205 66.7033 127.258 67.59C129.358 68.4767 131.132 69.76 132.578 71.44C134.025 73.0733 135.145 75.08 135.938 77.46C136.732 79.7933 137.128 82.4067 137.128 85.3C137.128 88.1933 136.732 90.83 135.938 93.21C135.145 95.5433 134.025 97.55 132.578 99.23C131.132 100.863 129.358 102.123 127.258 103.01C125.205 103.897 122.918 104.34 120.398 104.34ZM120.398 98.04C123.012 98.04 125.112 97.2467 126.698 95.66C128.285 94.0267 129.078 91.6 129.078 88.38V82.22C129.078 79 128.285 76.5967 126.698 75.01C125.112 73.3767 123.012 72.56 120.398 72.56C117.785 72.56 115.685 73.3767 114.098 75.01C112.512 76.5967 111.718 79 111.718 82.22V88.38C111.718 91.6 112.512 94.0267 114.098 95.66C115.685 97.2467 117.785 98.04 120.398 98.04ZM145.63 67.1H153.26V108.4C153.26 111.2 152.537 113.417 151.09 115.05C149.69 116.683 147.45 117.5 144.37 117.5H139.96V111.27H145.63V67.1ZM149.48 60.59C147.893 60.59 146.727 60.2167 145.98 59.47C145.28 58.7233 144.93 57.7667 144.93 56.6V55.41C144.93 54.2433 145.28 53.2867 145.98 52.54C146.727 51.7933 147.893 51.42 149.48 51.42C151.067 51.42 152.21 51.7933 152.91 52.54C153.61 53.2867 153.96 54.2433 153.96 55.41V56.6C153.96 57.7667 153.61 58.7233 152.91 59.47C152.21 60.2167 151.067 60.59 149.48 60.59ZM178.435 104.34C175.822 104.34 173.489 103.897 171.435 103.01C169.382 102.123 167.632 100.863 166.185 99.23C164.739 97.55 163.619 95.5433 162.825 93.21C162.079 90.83 161.705 88.1933 161.705 85.3C161.705 82.4067 162.079 79.7933 162.825 77.46C163.619 75.08 164.739 73.0733 166.185 71.44C167.632 69.76 169.382 68.4767 171.435 67.59C173.489 66.7033 175.822 66.26 178.435 66.26C181.095 66.26 183.429 66.7267 185.435 67.66C187.489 68.5933 189.192 69.9 190.545 71.58C191.899 73.2133 192.902 75.1267 193.555 77.32C194.255 79.5133 194.605 81.87 194.605 84.39V87.26H169.615V88.45C169.615 91.25 170.432 93.56 172.065 95.38C173.745 97.1533 176.125 98.04 179.205 98.04C181.445 98.04 183.335 97.55 184.875 96.57C186.415 95.59 187.722 94.26 188.795 92.58L193.275 96.99C191.922 99.23 189.962 101.027 187.395 102.38C184.829 103.687 181.842 104.34 178.435 104.34ZM178.435 72.21C177.129 72.21 175.915 72.4433 174.795 72.91C173.722 73.3767 172.789 74.03 171.995 74.87C171.249 75.71 170.665 76.7133 170.245 77.88C169.825 79.0467 169.615 80.33 169.615 81.73V82.22H186.555V81.52C186.555 78.72 185.832 76.48 184.385 74.8C182.939 73.0733 180.955 72.21 178.435 72.21ZM217.122 104.34C214.508 104.34 212.175 103.897 210.122 103.01C208.068 102.123 206.342 100.863 204.942 99.23C203.542 97.55 202.468 95.5433 201.722 93.21C200.975 90.83 200.602 88.1933 200.602 85.3C200.602 82.4067 200.975 79.7933 201.722 77.46C202.468 75.08 203.542 73.0733 204.942 71.44C206.342 69.76 208.068 68.4767 210.122 67.59C212.175 66.7033 214.508 66.26 217.122 66.26C220.762 66.26 223.748 67.0767 226.082 68.71C228.415 70.3433 230.118 72.5133 231.192 75.22L224.892 78.16C224.378 76.48 223.468 75.15 222.162 74.17C220.902 73.1433 219.222 72.63 217.122 72.63C214.322 72.63 212.198 73.5167 210.752 75.29C209.352 77.0167 208.652 79.28 208.652 82.08V88.59C208.652 91.39 209.352 93.6767 210.752 95.45C212.198 97.1767 214.322 98.04 217.122 98.04C219.362 98.04 221.135 97.5033 222.442 96.43C223.795 95.31 224.868 93.84 225.662 92.02L231.472 95.1C230.258 98.0867 228.438 100.373 226.012 101.96C223.585 103.547 220.622 104.34 217.122 104.34ZM248.815 103.5C246.155 103.5 244.149 102.823 242.795 101.47C241.442 100.07 240.765 98.11 240.765 95.59V73.33H235.095V67.1H238.175C239.435 67.1 240.299 66.82 240.765 66.26C241.279 65.7 241.535 64.79 241.535 63.53V57.16H248.395V67.1H256.025V73.33H248.395V97.27H255.465V103.5H248.815ZM275.852 104.34C272.398 104.34 269.505 103.733 267.172 102.52C264.838 101.307 262.808 99.6267 261.082 97.48L265.982 93C267.335 94.6333 268.828 95.9167 270.462 96.85C272.142 97.7367 274.078 98.18 276.272 98.18C278.512 98.18 280.168 97.76 281.242 96.92C282.362 96.0333 282.922 94.82 282.922 93.28C282.922 92.1133 282.525 91.1333 281.732 90.34C280.985 89.5 279.655 88.9633 277.742 88.73L274.382 88.31C270.648 87.8433 267.708 86.77 265.562 85.09C263.462 83.3633 262.412 80.82 262.412 77.46C262.412 75.6867 262.738 74.1233 263.392 72.77C264.045 71.37 264.955 70.2033 266.122 69.27C267.335 68.29 268.758 67.5433 270.392 67.03C272.072 66.5167 273.915 66.26 275.922 66.26C279.188 66.26 281.848 66.7733 283.902 67.8C286.002 68.8267 287.868 70.25 289.502 72.07L284.812 76.55C283.878 75.43 282.642 74.4733 281.102 73.68C279.608 72.84 277.882 72.42 275.922 72.42C273.822 72.42 272.258 72.84 271.232 73.68C270.252 74.52 269.762 75.6167 269.762 76.97C269.762 78.37 270.205 79.42 271.092 80.12C271.978 80.82 273.402 81.3333 275.362 81.66L278.722 82.08C282.735 82.6867 285.652 83.8767 287.472 85.65C289.338 87.3767 290.272 89.71 290.272 92.65C290.272 94.4233 289.922 96.0333 289.222 97.48C288.568 98.88 287.612 100.093 286.352 101.12C285.092 102.147 283.575 102.94 281.802 103.5C280.028 104.06 278.045 104.34 275.852 104.34Z" fill="black"/>
<path d="M352.02 103.5V54.64H373.02C377.547 54.64 381.047 55.97 383.52 58.63C385.993 61.29 387.23 64.86 387.23 69.34C387.23 73.82 385.993 77.39 383.52 80.05C381.047 82.71 377.547 84.04 373.02 84.04H359.93V103.5H352.02ZM359.93 77.11H372.53C374.537 77.11 376.1 76.5967 377.22 75.57C378.34 74.4967 378.9 72.98 378.9 71.02V67.66C378.9 65.7 378.34 64.2067 377.22 63.18C376.1 62.1067 374.537 61.57 372.53 61.57H359.93V77.11ZM394.663 103.5V67.1H402.293V74.1H402.643C403.156 72.2333 404.23 70.6 405.863 69.2C407.496 67.8 409.76 67.1 412.653 67.1H414.683V74.45H411.673C408.64 74.45 406.306 74.94 404.673 75.92C403.086 76.9 402.293 78.3467 402.293 80.26V103.5H394.663ZM435.398 104.34C432.878 104.34 430.568 103.897 428.468 103.01C426.415 102.123 424.665 100.863 423.218 99.23C421.772 97.55 420.652 95.5433 419.858 93.21C419.065 90.83 418.668 88.1933 418.668 85.3C418.668 82.4067 419.065 79.7933 419.858 77.46C420.652 75.08 421.772 73.0733 423.218 71.44C424.665 69.76 426.415 68.4767 428.468 67.59C430.568 66.7033 432.878 66.26 435.398 66.26C437.918 66.26 440.205 66.7033 442.258 67.59C444.358 68.4767 446.132 69.76 447.578 71.44C449.025 73.0733 450.145 75.08 450.938 77.46C451.732 79.7933 452.128 82.4067 452.128 85.3C452.128 88.1933 451.732 90.83 450.938 93.21C450.145 95.5433 449.025 97.55 447.578 99.23C446.132 100.863 444.358 102.123 442.258 103.01C440.205 103.897 437.918 104.34 435.398 104.34ZM435.398 98.04C438.012 98.04 440.112 97.2467 441.698 95.66C443.285 94.0267 444.078 91.6 444.078 88.38V82.22C444.078 79 443.285 76.5967 441.698 75.01C440.112 73.3767 438.012 72.56 435.398 72.56C432.785 72.56 430.685 73.3767 429.098 75.01C427.512 76.5967 426.718 79 426.718 82.22V88.38C426.718 91.6 427.512 94.0267 429.098 95.66C430.685 97.2467 432.785 98.04 435.398 98.04ZM460.63 67.1H468.26V108.4C468.26 111.2 467.537 113.417 466.09 115.05C464.69 116.683 462.45 117.5 459.37 117.5H454.96V111.27H460.63V67.1ZM464.48 60.59C462.893 60.59 461.727 60.2167 460.98 59.47C460.28 58.7233 459.93 57.7667 459.93 56.6V55.41C459.93 54.2433 460.28 53.2867 460.98 52.54C461.727 51.7933 462.893 51.42 464.48 51.42C466.067 51.42 467.21 51.7933 467.91 52.54C468.61 53.2867 468.96 54.2433 468.96 55.41V56.6C468.96 57.7667 468.61 58.7233 467.91 59.47C467.21 60.2167 466.067 60.59 464.48 60.59ZM493.435 104.34C490.822 104.34 488.489 103.897 486.435 103.01C484.382 102.123 482.632 100.863 481.185 99.23C479.739 97.55 478.619 95.5433 477.825 93.21C477.079 90.83 476.705 88.1933 476.705 85.3C476.705 82.4067 477.079 79.7933 477.825 77.46C478.619 75.08 479.739 73.0733 481.185 71.44C482.632 69.76 484.382 68.4767 486.435 67.59C488.489 66.7033 490.822 66.26 493.435 66.26C496.095 66.26 498.429 66.7267 500.435 67.66C502.489 68.5933 504.192 69.9 505.545 71.58C506.899 73.2133 507.902 75.1267 508.555 77.32C509.255 79.5133 509.605 81.87 509.605 84.39V87.26H484.615V88.45C484.615 91.25 485.432 93.56 487.065 95.38C488.745 97.1533 491.125 98.04 494.205 98.04C496.445 98.04 498.335 97.55 499.875 96.57C501.415 95.59 502.722 94.26 503.795 92.58L508.275 96.99C506.922 99.23 504.962 101.027 502.395 102.38C499.829 103.687 496.842 104.34 493.435 104.34ZM493.435 72.21C492.129 72.21 490.915 72.4433 489.795 72.91C488.722 73.3767 487.789 74.03 486.995 74.87C486.249 75.71 485.665 76.7133 485.245 77.88C484.825 79.0467 484.615 80.33 484.615 81.73V82.22H501.555V81.52C501.555 78.72 500.832 76.48 499.385 74.8C497.939 73.0733 495.955 72.21 493.435 72.21ZM532.122 104.34C529.508 104.34 527.175 103.897 525.122 103.01C523.068 102.123 521.342 100.863 519.942 99.23C518.542 97.55 517.468 95.5433 516.722 93.21C515.975 90.83 515.602 88.1933 515.602 85.3C515.602 82.4067 515.975 79.7933 516.722 77.46C517.468 75.08 518.542 73.0733 519.942 71.44C521.342 69.76 523.068 68.4767 525.122 67.59C527.175 66.7033 529.508 66.26 532.122 66.26C535.762 66.26 538.748 67.0767 541.082 68.71C543.415 70.3433 545.118 72.5133 546.192 75.22L539.892 78.16C539.378 76.48 538.468 75.15 537.162 74.17C535.902 73.1433 534.222 72.63 532.122 72.63C529.322 72.63 527.198 73.5167 525.752 75.29C524.352 77.0167 523.652 79.28 523.652 82.08V88.59C523.652 91.39 524.352 93.6767 525.752 95.45C527.198 97.1767 529.322 98.04 532.122 98.04C534.362 98.04 536.135 97.5033 537.442 96.43C538.795 95.31 539.868 93.84 540.662 92.02L546.472 95.1C545.258 98.0867 543.438 100.373 541.012 101.96C538.585 103.547 535.622 104.34 532.122 104.34ZM563.815 103.5C561.155 103.5 559.149 102.823 557.795 101.47C556.442 100.07 555.765 98.11 555.765 95.59V73.33H550.095V67.1H553.175C554.435 67.1 555.299 66.82 555.765 66.26C556.279 65.7 556.535 64.79 556.535 63.53V57.16H563.395V67.1H571.025V73.33H563.395V97.27H570.465V103.5H563.815ZM590.852 104.34C587.398 104.34 584.505 103.733 582.172 102.52C579.838 101.307 577.808 99.6267 576.082 97.48L580.982 93C582.335 94.6333 583.828 95.9167 585.462 96.85C587.142 97.7367 589.078 98.18 591.272 98.18C593.512 98.18 595.168 97.76 596.242 96.92C597.362 96.0333 597.922 94.82 597.922 93.28C597.922 92.1133 597.525 91.1333 596.732 90.34C595.985 89.5 594.655 88.9633 592.742 88.73L589.382 88.31C585.648 87.8433 582.708 86.77 580.562 85.09C578.462 83.3633 577.412 80.82 577.412 77.46C577.412 75.6867 577.738 74.1233 578.392 72.77C579.045 71.37 579.955 70.2033 581.122 69.27C582.335 68.29 583.758 67.5433 585.392 67.03C587.072 66.5167 588.915 66.26 590.922 66.26C594.188 66.26 596.848 66.7733 598.902 67.8C601.002 68.8267 602.868 70.25 604.502 72.07L599.812 76.55C598.878 75.43 597.642 74.4733 596.102 73.68C594.608 72.84 592.882 72.42 590.922 72.42C588.822 72.42 587.258 72.84 586.232 73.68C585.252 74.52 584.762 75.6167 584.762 76.97C584.762 78.37 585.205 79.42 586.092 80.12C586.978 80.82 588.402 81.3333 590.362 81.66L593.722 82.08C597.735 82.6867 600.652 83.8767 602.472 85.65C604.338 87.3767 605.272 89.71 605.272 92.65C605.272 94.4233 604.922 96.0333 604.222 97.48C603.568 98.88 602.612 100.093 601.352 101.12C600.092 102.147 598.575 102.94 596.802 103.5C595.028 104.06 593.045 104.34 590.852 104.34Z" fill="black"/>
<path d="M667.02 103.5V54.64H688.02C692.547 54.64 696.047 55.97 698.52 58.63C700.993 61.29 702.23 64.86 702.23 69.34C702.23 73.82 700.993 77.39 698.52 80.05C696.047 82.71 692.547 84.04 688.02 84.04H674.93V103.5H667.02ZM674.93 77.11H687.53C689.537 77.11 691.1 76.5967 692.22 75.57C693.34 74.4967 693.9 72.98 693.9 71.02V67.66C693.9 65.7 693.34 64.2067 692.22 63.18C691.1 62.1067 689.537 61.57 687.53 61.57H674.93V77.11ZM709.663 103.5V67.1H717.293V74.1H717.643C718.156 72.2333 719.23 70.6 720.863 69.2C722.496 67.8 724.76 67.1 727.653 67.1H729.683V74.45H726.673C723.64 74.45 721.306 74.94 719.673 75.92C718.086 76.9 717.293 78.3467 717.293 80.26V103.5H709.663ZM750.398 104.34C747.878 104.34 745.568 103.897 743.468 103.01C741.415 102.123 739.665 100.863 738.218 99.23C736.772 97.55 735.652 95.5433 734.858 93.21C734.065 90.83 733.668 88.1933 733.668 85.3C733.668 82.4067 734.065 79.7933 734.858 77.46C735.652 75.08 736.772 73.0733 738.218 71.44C739.665 69.76 741.415 68.4767 743.468 67.59C745.568 66.7033 747.878 66.26 750.398 66.26C752.918 66.26 755.205 66.7033 757.258 67.59C759.358 68.4767 761.132 69.76 762.578 71.44C764.025 73.0733 765.145 75.08 765.938 77.46C766.732 79.7933 767.128 82.4067 767.128 85.3C767.128 88.1933 766.732 90.83 765.938 93.21C765.145 95.5433 764.025 97.55 762.578 99.23C761.132 100.863 759.358 102.123 757.258 103.01C755.205 103.897 752.918 104.34 750.398 104.34ZM750.398 98.04C753.012 98.04 755.112 97.2467 756.698 95.66C758.285 94.0267 759.078 91.6 759.078 88.38V82.22C759.078 79 758.285 76.5967 756.698 75.01C755.112 73.3767 753.012 72.56 750.398 72.56C747.785 72.56 745.685 73.3767 744.098 75.01C742.512 76.5967 741.718 79 741.718 82.22V88.38C741.718 91.6 742.512 94.0267 744.098 95.66C745.685 97.2467 747.785 98.04 750.398 98.04ZM775.63 67.1H783.26V108.4C783.26 111.2 782.537 113.417 781.09 115.05C779.69 116.683 777.45 117.5 774.37 117.5H769.96V111.27H775.63V67.1ZM779.48 60.59C777.893 60.59 776.727 60.2167 775.98 59.47C775.28 58.7233 774.93 57.7667 774.93 56.6V55.41C774.93 54.2433 775.28 53.2867 775.98 52.54C776.727 51.7933 777.893 51.42 779.48 51.42C781.067 51.42 782.21 51.7933 782.91 52.54C783.61 53.2867 783.96 54.2433 783.96 55.41V56.6C783.96 57.7667 783.61 58.7233 782.91 59.47C782.21 60.2167 781.067 60.59 779.48 60.59ZM808.435 104.34C805.822 104.34 803.489 103.897 801.435 103.01C799.382 102.123 797.632 100.863 796.185 99.23C794.739 97.55 793.619 95.5433 792.825 93.21C792.079 90.83 791.705 88.1933 791.705 85.3C791.705 82.4067 792.079 79.7933 792.825 77.46C793.619 75.08 794.739 73.0733 796.185 71.44C797.632 69.76 799.382 68.4767 801.435 67.59C803.489 66.7033 805.822 66.26 808.435 66.26C811.095 66.26 813.429 66.7267 815.435 67.66C817.489 68.5933 819.192 69.9 820.545 71.58C821.899 73.2133 822.902 75.1267 823.555 77.32C824.255 79.5133 824.605 81.87 824.605 84.39V87.26H799.615V88.45C799.615 91.25 800.432 93.56 802.065 95.38C803.745 97.1533 806.125 98.04 809.205 98.04C811.445 98.04 813.335 97.55 814.875 96.57C816.415 95.59 817.722 94.26 818.795 92.58L823.275 96.99C821.922 99.23 819.962 101.027 817.395 102.38C814.829 103.687 811.842 104.34 808.435 104.34ZM808.435 72.21C807.129 72.21 805.915 72.4433 804.795 72.91C803.722 73.3767 802.789 74.03 801.995 74.87C801.249 75.71 800.665 76.7133 800.245 77.88C799.825 79.0467 799.615 80.33 799.615 81.73V82.22H816.555V81.52C816.555 78.72 815.832 76.48 814.385 74.8C812.939 73.0733 810.955 72.21 808.435 72.21ZM847.122 104.34C844.508 104.34 842.175 103.897 840.122 103.01C838.068 102.123 836.342 100.863 834.942 99.23C833.542 97.55 832.468 95.5433 831.722 93.21C830.975 90.83 830.602 88.1933 830.602 85.3C830.602 82.4067 830.975 79.7933 831.722 77.46C832.468 75.08 833.542 73.0733 834.942 71.44C836.342 69.76 838.068 68.4767 840.122 67.59C842.175 66.7033 844.508 66.26 847.122 66.26C850.762 66.26 853.748 67.0767 856.082 68.71C858.415 70.3433 860.118 72.5133 861.192 75.22L854.892 78.16C854.378 76.48 853.468 75.15 852.162 74.17C850.902 73.1433 849.222 72.63 847.122 72.63C844.322 72.63 842.198 73.5167 840.752 75.29C839.352 77.0167 838.652 79.28 838.652 82.08V88.59C838.652 91.39 839.352 93.6767 840.752 95.45C842.198 97.1767 844.322 98.04 847.122 98.04C849.362 98.04 851.135 97.5033 852.442 96.43C853.795 95.31 854.868 93.84 855.662 92.02L861.472 95.1C860.258 98.0867 858.438 100.373 856.012 101.96C853.585 103.547 850.622 104.34 847.122 104.34ZM878.815 103.5C876.155 103.5 874.149 102.823 872.795 101.47C871.442 100.07 870.765 98.11 870.765 95.59V73.33H865.095V67.1H868.175C869.435 67.1 870.299 66.82 870.765 66.26C871.279 65.7 871.535 64.79 871.535 63.53V57.16H878.395V67.1H886.025V73.33H878.395V97.27H885.465V103.5H878.815ZM905.852 104.34C902.398 104.34 899.505 103.733 897.172 102.52C894.838 101.307 892.808 99.6267 891.082 97.48L895.982 93C897.335 94.6333 898.828 95.9167 900.462 96.85C902.142 97.7367 904.078 98.18 906.272 98.18C908.512 98.18 910.168 97.76 911.242 96.92C912.362 96.0333 912.922 94.82 912.922 93.28C912.922 92.1133 912.525 91.1333 911.732 90.34C910.985 89.5 909.655 88.9633 907.742 88.73L904.382 88.31C900.648 87.8433 897.708 86.77 895.562 85.09C893.462 83.3633 892.412 80.82 892.412 77.46C892.412 75.6867 892.738 74.1233 893.392 72.77C894.045 71.37 894.955 70.2033 896.122 69.27C897.335 68.29 898.758 67.5433 900.392 67.03C902.072 66.5167 903.915 66.26 905.922 66.26C909.188 66.26 911.848 66.7733 913.902 67.8C916.002 68.8267 917.868 70.25 919.502 72.07L914.812 76.55C913.878 75.43 912.642 74.4733 911.102 73.68C909.608 72.84 907.882 72.42 905.922 72.42C903.822 72.42 902.258 72.84 901.232 73.68C900.252 74.52 899.762 75.6167 899.762 76.97C899.762 78.37 900.205 79.42 901.092 80.12C901.978 80.82 903.402 81.3333 905.362 81.66L908.722 82.08C912.735 82.6867 915.652 83.8767 917.472 85.65C919.338 87.3767 920.272 89.71 920.272 92.65C920.272 94.4233 919.922 96.0333 919.222 97.48C918.568 98.88 917.612 100.093 916.352 101.12C915.092 102.147 913.575 102.94 911.802 103.5C910.028 104.06 908.045 104.34 905.852 104.34Z" fill="black"/>
<path d="M982.02 103.5V54.64H1003.02C1007.55 54.64 1011.05 55.97 1013.52 58.63C1015.99 61.29 1017.23 64.86 1017.23 69.34C1017.23 73.82 1015.99 77.39 1013.52 80.05C1011.05 82.71 1007.55 84.04 1003.02 84.04H989.93V103.5H982.02ZM989.93 77.11H1002.53C1004.54 77.11 1006.1 76.5967 1007.22 75.57C1008.34 74.4967 1008.9 72.98 1008.9 71.02V67.66C1008.9 65.7 1008.34 64.2067 1007.22 63.18C1006.1 62.1067 1004.54 61.57 1002.53 61.57H989.93V77.11ZM1024.66 103.5V67.1H1032.29V74.1H1032.64C1033.16 72.2333 1034.23 70.6 1035.86 69.2C1037.5 67.8 1039.76 67.1 1042.65 67.1H1044.68V74.45H1041.67C1038.64 74.45 1036.31 74.94 1034.67 75.92C1033.09 76.9 1032.29 78.3467 1032.29 80.26V103.5H1024.66ZM1065.4 104.34C1062.88 104.34 1060.57 103.897 1058.47 103.01C1056.41 102.123 1054.66 100.863 1053.22 99.23C1051.77 97.55 1050.65 95.5433 1049.86 93.21C1049.06 90.83 1048.67 88.1933 1048.67 85.3C1048.67 82.4067 1049.06 79.7933 1049.86 77.46C1050.65 75.08 1051.77 73.0733 1053.22 71.44C1054.66 69.76 1056.41 68.4767 1058.47 67.59C1060.57 66.7033 1062.88 66.26 1065.4 66.26C1067.92 66.26 1070.2 66.7033 1072.26 67.59C1074.36 68.4767 1076.13 69.76 1077.58 71.44C1079.02 73.0733 1080.14 75.08 1080.94 77.46C1081.73 79.7933 1082.13 82.4067 1082.13 85.3C1082.13 88.1933 1081.73 90.83 1080.94 93.21C1080.14 95.5433 1079.02 97.55 1077.58 99.23C1076.13 100.863 1074.36 102.123 1072.26 103.01C1070.2 103.897 1067.92 104.34 1065.4 104.34ZM1065.4 98.04C1068.01 98.04 1070.11 97.2467 1071.7 95.66C1073.28 94.0267 1074.08 91.6 1074.08 88.38V82.22C1074.08 79 1073.28 76.5967 1071.7 75.01C1070.11 73.3767 1068.01 72.56 1065.4 72.56C1062.78 72.56 1060.68 73.3767 1059.1 75.01C1057.51 76.5967 1056.72 79 1056.72 82.22V88.38C1056.72 91.6 1057.51 94.0267 1059.1 95.66C1060.68 97.2467 1062.78 98.04 1065.4 98.04ZM1090.63 67.1H1098.26V108.4C1098.26 111.2 1097.54 113.417 1096.09 115.05C1094.69 116.683 1092.45 117.5 1089.37 117.5H1084.96V111.27H1090.63V67.1ZM1094.48 60.59C1092.89 60.59 1091.73 60.2167 1090.98 59.47C1090.28 58.7233 1089.93 57.7667 1089.93 56.6V55.41C1089.93 54.2433 1090.28 53.2867 1090.98 52.54C1091.73 51.7933 1092.89 51.42 1094.48 51.42C1096.07 51.42 1097.21 51.7933 1097.91 52.54C1098.61 53.2867 1098.96 54.2433 1098.96 55.41V56.6C1098.96 57.7667 1098.61 58.7233 1097.91 59.47C1097.21 60.2167 1096.07 60.59 1094.48 60.59ZM1123.44 104.34C1120.82 104.34 1118.49 103.897 1116.44 103.01C1114.38 102.123 1112.63 100.863 1111.19 99.23C1109.74 97.55 1108.62 95.5433 1107.83 93.21C1107.08 90.83 1106.71 88.1933 1106.71 85.3C1106.71 82.4067 1107.08 79.7933 1107.83 77.46C1108.62 75.08 1109.74 73.0733 1111.19 71.44C1112.63 69.76 1114.38 68.4767 1116.44 67.59C1118.49 66.7033 1120.82 66.26 1123.44 66.26C1126.1 66.26 1128.43 66.7267 1130.44 67.66C1132.49 68.5933 1134.19 69.9 1135.55 71.58C1136.9 73.2133 1137.9 75.1267 1138.56 77.32C1139.26 79.5133 1139.61 81.87 1139.61 84.39V87.26H1114.62V88.45C1114.62 91.25 1115.43 93.56 1117.07 95.38C1118.75 97.1533 1121.13 98.04 1124.21 98.04C1126.45 98.04 1128.34 97.55 1129.88 96.57C1131.42 95.59 1132.72 94.26 1133.8 92.58L1138.28 96.99C1136.92 99.23 1134.96 101.027 1132.4 102.38C1129.83 103.687 1126.84 104.34 1123.44 104.34ZM1123.44 72.21C1122.13 72.21 1120.92 72.4433 1119.8 72.91C1118.72 73.3767 1117.79 74.03 1117 74.87C1116.25 75.71 1115.67 76.7133 1115.25 77.88C1114.83 79.0467 1114.62 80.33 1114.62 81.73V82.22H1131.56V81.52C1131.56 78.72 1130.83 76.48 1129.39 74.8C1127.94 73.0733 1125.96 72.21 1123.44 72.21ZM1162.12 104.34C1159.51 104.34 1157.18 103.897 1155.12 103.01C1153.07 102.123 1151.34 100.863 1149.94 99.23C1148.54 97.55 1147.47 95.5433 1146.72 93.21C1145.98 90.83 1145.6 88.1933 1145.6 85.3C1145.6 82.4067 1145.98 79.7933 1146.72 77.46C1147.47 75.08 1148.54 73.0733 1149.94 71.44C1151.34 69.76 1153.07 68.4767 1155.12 67.59C1157.18 66.7033 1159.51 66.26 1162.12 66.26C1165.76 66.26 1168.75 67.0767 1171.08 68.71C1173.42 70.3433 1175.12 72.5133 1176.19 75.22L1169.89 78.16C1169.38 76.48 1168.47 75.15 1167.16 74.17C1165.9 73.1433 1164.22 72.63 1162.12 72.63C1159.32 72.63 1157.2 73.5167 1155.75 75.29C1154.35 77.0167 1153.65 79.28 1153.65 82.08V88.59C1153.65 91.39 1154.35 93.6767 1155.75 95.45C1157.2 97.1767 1159.32 98.04 1162.12 98.04C1164.36 98.04 1166.14 97.5033 1167.44 96.43C1168.8 95.31 1169.87 93.84 1170.66 92.02L1176.47 95.1C1175.26 98.0867 1173.44 100.373 1171.01 101.96C1168.59 103.547 1165.62 104.34 1162.12 104.34ZM1193.82 103.5C1191.16 103.5 1189.15 102.823 1187.8 101.47C1186.44 100.07 1185.77 98.11 1185.77 95.59V73.33H1180.1V67.1H1183.18C1184.44 67.1 1185.3 66.82 1185.77 66.26C1186.28 65.7 1186.54 64.79 1186.54 63.53V57.16H1193.4V67.1H1201.03V73.33H1193.4V97.27H1200.47V103.5H1193.82ZM1220.85 104.34C1217.4 104.34 1214.51 103.733 1212.17 102.52C1209.84 101.307 1207.81 99.6267 1206.08 97.48L1210.98 93C1212.34 94.6333 1213.83 95.9167 1215.46 96.85C1217.14 97.7367 1219.08 98.18 1221.27 98.18C1223.51 98.18 1225.17 97.76 1226.24 96.92C1227.36 96.0333 1227.92 94.82 1227.92 93.28C1227.92 92.1133 1227.53 91.1333 1226.73 90.34C1225.99 89.5 1224.66 88.9633 1222.74 88.73L1219.38 88.31C1215.65 87.8433 1212.71 86.77 1210.56 85.09C1208.46 83.3633 1207.41 80.82 1207.41 77.46C1207.41 75.6867 1207.74 74.1233 1208.39 72.77C1209.05 71.37 1209.96 70.2033 1211.12 69.27C1212.34 68.29 1213.76 67.5433 1215.39 67.03C1217.07 66.5167 1218.92 66.26 1220.92 66.26C1224.19 66.26 1226.85 66.7733 1228.9 67.8C1231 68.8267 1232.87 70.25 1234.5 72.07L1229.81 76.55C1228.88 75.43 1227.64 74.4733 1226.1 73.68C1224.61 72.84 1222.88 72.42 1220.92 72.42C1218.82 72.42 1217.26 72.84 1216.23 73.68C1215.25 74.52 1214.76 75.6167 1214.76 76.97C1214.76 78.37 1215.21 79.42 1216.09 80.12C1216.98 80.82 1218.4 81.3333 1220.36 81.66L1223.72 82.08C1227.74 82.6867 1230.65 83.8767 1232.47 85.65C1234.34 87.3767 1235.27 89.71 1235.27 92.65C1235.27 94.4233 1234.92 96.0333 1234.22 97.48C1233.57 98.88 1232.61 100.093 1231.35 101.12C1230.09 102.147 1228.58 102.94 1226.8 103.5C1225.03 104.06 1223.05 104.34 1220.85 104.34Z" fill="black"/>
<path d="M1297.02 103.5V54.64H1318.02C1322.55 54.64 1326.05 55.97 1328.52 58.63C1330.99 61.29 1332.23 64.86 1332.23 69.34C1332.23 73.82 1330.99 77.39 1328.52 80.05C1326.05 82.71 1322.55 84.04 1318.02 84.04H1304.93V103.5H1297.02ZM1304.93 77.11H1317.53C1319.54 77.11 1321.1 76.5967 1322.22 75.57C1323.34 74.4967 1323.9 72.98 1323.9 71.02V67.66C1323.9 65.7 1323.34 64.2067 1322.22 63.18C1321.1 62.1067 1319.54 61.57 1317.53 61.57H1304.93V77.11ZM1339.66 103.5V67.1H1347.29V74.1H1347.64C1348.16 72.2333 1349.23 70.6 1350.86 69.2C1352.5 67.8 1354.76 67.1 1357.65 67.1H1359.68V74.45H1356.67C1353.64 74.45 1351.31 74.94 1349.67 75.92C1348.09 76.9 1347.29 78.3467 1347.29 80.26V103.5H1339.66ZM1380.4 104.34C1377.88 104.34 1375.57 103.897 1373.47 103.01C1371.41 102.123 1369.66 100.863 1368.22 99.23C1366.77 97.55 1365.65 95.5433 1364.86 93.21C1364.06 90.83 1363.67 88.1933 1363.67 85.3C1363.67 82.4067 1364.06 79.7933 1364.86 77.46C1365.65 75.08 1366.77 73.0733 1368.22 71.44C1369.66 69.76 1371.41 68.4767 1373.47 67.59C1375.57 66.7033 1377.88 66.26 1380.4 66.26C1382.92 66.26 1385.2 66.7033 1387.26 67.59C1389.36 68.4767 1391.13 69.76 1392.58 71.44C1394.02 73.0733 1395.14 75.08 1395.94 77.46C1396.73 79.7933 1397.13 82.4067 1397.13 85.3C1397.13 88.1933 1396.73 90.83 1395.94 93.21C1395.14 95.5433 1394.02 97.55 1392.58 99.23C1391.13 100.863 1389.36 102.123 1387.26 103.01C1385.2 103.897 1382.92 104.34 1380.4 104.34ZM1380.4 98.04C1383.01 98.04 1385.11 97.2467 1386.7 95.66C1388.28 94.0267 1389.08 91.6 1389.08 88.38V82.22C1389.08 79 1388.28 76.5967 1386.7 75.01C1385.11 73.3767 1383.01 72.56 1380.4 72.56C1377.78 72.56 1375.68 73.3767 1374.1 75.01C1372.51 76.5967 1371.72 79 1371.72 82.22V88.38C1371.72 91.6 1372.51 94.0267 1374.1 95.66C1375.68 97.2467 1377.78 98.04 1380.4 98.04ZM1405.63 67.1H1413.26V108.4C1413.26 111.2 1412.54 113.417 1411.09 115.05C1409.69 116.683 1407.45 117.5 1404.37 117.5H1399.96V111.27H1405.63V67.1ZM1409.48 60.59C1407.89 60.59 1406.73 60.2167 1405.98 59.47C1405.28 58.7233 1404.93 57.7667 1404.93 56.6V55.41C1404.93 54.2433 1405.28 53.2867 1405.98 52.54C1406.73 51.7933 1407.89 51.42 1409.48 51.42C1411.07 51.42 1412.21 51.7933 1412.91 52.54C1413.61 53.2867 1413.96 54.2433 1413.96 55.41V56.6C1413.96 57.7667 1413.61 58.7233 1412.91 59.47C1412.21 60.2167 1411.07 60.59 1409.48 60.59ZM1438.44 104.34C1435.82 104.34 1433.49 103.897 1431.44 103.01C1429.38 102.123 1427.63 100.863 1426.19 99.23C1424.74 97.55 1423.62 95.5433 1422.83 93.21C1422.08 90.83 1421.71 88.1933 1421.71 85.3C1421.71 82.4067 1422.08 79.7933 1422.83 77.46C1423.62 75.08 1424.74 73.0733 1426.19 71.44C1427.63 69.76 1429.38 68.4767 1431.44 67.59C1433.49 66.7033 1435.82 66.26 1438.44 66.26C1441.1 66.26 1443.43 66.7267 1445.44 67.66C1447.49 68.5933 1449.19 69.9 1450.55 71.58C1451.9 73.2133 1452.9 75.1267 1453.56 77.32C1454.26 79.5133 1454.61 81.87 1454.61 84.39V87.26H1429.62V88.45C1429.62 91.25 1430.43 93.56 1432.07 95.38C1433.75 97.1533 1436.13 98.04 1439.21 98.04C1441.45 98.04 1443.34 97.55 1444.88 96.57C1446.42 95.59 1447.72 94.26 1448.8 92.58L1453.28 96.99C1451.92 99.23 1449.96 101.027 1447.4 102.38C1444.83 103.687 1441.84 104.34 1438.44 104.34ZM1438.44 72.21C1437.13 72.21 1435.92 72.4433 1434.8 72.91C1433.72 73.3767 1432.79 74.03 1432 74.87C1431.25 75.71 1430.67 76.7133 1430.25 77.88C1429.83 79.0467 1429.62 80.33 1429.62 81.73V82.22H1446.56V81.52C1446.56 78.72 1445.83 76.48 1444.39 74.8C1442.94 73.0733 1440.96 72.21 1438.44 72.21ZM1477.12 104.34C1474.51 104.34 1472.18 103.897 1470.12 103.01C1468.07 102.123 1466.34 100.863 1464.94 99.23C1463.54 97.55 1462.47 95.5433 1461.72 93.21C1460.98 90.83 1460.6 88.1933 1460.6 85.3C1460.6 82.4067 1460.98 79.7933 1461.72 77.46C1462.47 75.08 1463.54 73.0733 1464.94 71.44C1466.34 69.76 1468.07 68.4767 1470.12 67.59C1472.18 66.7033 1474.51 66.26 1477.12 66.26C1480.76 66.26 1483.75 67.0767 1486.08 68.71C1488.42 70.3433 1490.12 72.5133 1491.19 75.22L1484.89 78.16C1484.38 76.48 1483.47 75.15 1482.16 74.17C1480.9 73.1433 1479.22 72.63 1477.12 72.63C1474.32 72.63 1472.2 73.5167 1470.75 75.29C1469.35 77.0167 1468.65 79.28 1468.65 82.08V88.59C1468.65 91.39 1469.35 93.6767 1470.75 95.45C1472.2 97.1767 1474.32 98.04 1477.12 98.04C1479.36 98.04 1481.14 97.5033 1482.44 96.43C1483.8 95.31 1484.87 93.84 1485.66 92.02L1491.47 95.1C1490.26 98.0867 1488.44 100.373 1486.01 101.96C1483.59 103.547 1480.62 104.34 1477.12 104.34ZM1508.82 103.5C1506.16 103.5 1504.15 102.823 1502.8 101.47C1501.44 100.07 1500.77 98.11 1500.77 95.59V73.33H1495.1V67.1H1498.18C1499.44 67.1 1500.3 66.82 1500.77 66.26C1501.28 65.7 1501.54 64.79 1501.54 63.53V57.16H1508.4V67.1H1516.03V73.33H1508.4V97.27H1515.47V103.5H1508.82ZM1535.85 104.34C1532.4 104.34 1529.51 103.733 1527.17 102.52C1524.84 101.307 1522.81 99.6267 1521.08 97.48L1525.98 93C1527.34 94.6333 1528.83 95.9167 1530.46 96.85C1532.14 97.7367 1534.08 98.18 1536.27 98.18C1538.51 98.18 1540.17 97.76 1541.24 96.92C1542.36 96.0333 1542.92 94.82 1542.92 93.28C1542.92 92.1133 1542.53 91.1333 1541.73 90.34C1540.99 89.5 1539.66 88.9633 1537.74 88.73L1534.38 88.31C1530.65 87.8433 1527.71 86.77 1525.56 85.09C1523.46 83.3633 1522.41 80.82 1522.41 77.46C1522.41 75.6867 1522.74 74.1233 1523.39 72.77C1524.05 71.37 1524.96 70.2033 1526.12 69.27C1527.34 68.29 1528.76 67.5433 1530.39 67.03C1532.07 66.5167 1533.92 66.26 1535.92 66.26C1539.19 66.26 1541.85 66.7733 1543.9 67.8C1546 68.8267 1547.87 70.25 1549.5 72.07L1544.81 76.55C1543.88 75.43 1542.64 74.4733 1541.1 73.68C1539.61 72.84 1537.88 72.42 1535.92 72.42C1533.82 72.42 1532.26 72.84 1531.23 73.68C1530.25 74.52 1529.76 75.6167 1529.76 76.97C1529.76 78.37 1530.21 79.42 1531.09 80.12C1531.98 80.82 1533.4 81.3333 1535.36 81.66L1538.72 82.08C1542.74 82.6867 1545.65 83.8767 1547.47 85.65C1549.34 87.3767 1550.27 89.71 1550.27 92.65C1550.27 94.4233 1549.92 96.0333 1549.22 97.48C1548.57 98.88 1547.61 100.093 1546.35 101.12C1545.09 102.147 1543.58 102.94 1541.8 103.5C1540.03 104.06 1538.05 104.34 1535.85 104.34Z" fill="black"/>
<path d="M1612.02 103.5V54.64H1633.02C1637.55 54.64 1641.05 55.97 1643.52 58.63C1645.99 61.29 1647.23 64.86 1647.23 69.34C1647.23 73.82 1645.99 77.39 1643.52 80.05C1641.05 82.71 1637.55 84.04 1633.02 84.04H1619.93V103.5H1612.02ZM1619.93 77.11H1632.53C1634.54 77.11 1636.1 76.5967 1637.22 75.57C1638.34 74.4967 1638.9 72.98 1638.9 71.02V67.66C1638.9 65.7 1638.34 64.2067 1637.22 63.18C1636.1 62.1067 1634.54 61.57 1632.53 61.57H1619.93V77.11ZM1654.66 103.5V67.1H1662.29V74.1H1662.64C1663.16 72.2333 1664.23 70.6 1665.86 69.2C1667.5 67.8 1669.76 67.1 1672.65 67.1H1674.68V74.45H1671.67C1668.64 74.45 1666.31 74.94 1664.67 75.92C1663.09 76.9 1662.29 78.3467 1662.29 80.26V103.5H1654.66ZM1695.4 104.34C1692.88 104.34 1690.57 103.897 1688.47 103.01C1686.41 102.123 1684.66 100.863 1683.22 99.23C1681.77 97.55 1680.65 95.5433 1679.86 93.21C1679.06 90.83 1678.67 88.1933 1678.67 85.3C1678.67 82.4067 1679.06 79.7933 1679.86 77.46C1680.65 75.08 1681.77 73.0733 1683.22 71.44C1684.66 69.76 1686.41 68.4767 1688.47 67.59C1690.57 66.7033 1692.88 66.26 1695.4 66.26C1697.92 66.26 1700.2 66.7033 1702.26 67.59C1704.36 68.4767 1706.13 69.76 1707.58 71.44C1709.02 73.0733 1710.14 75.08 1710.94 77.46C1711.73 79.7933 1712.13 82.4067 1712.13 85.3C1712.13 88.1933 1711.73 90.83 1710.94 93.21C1710.14 95.5433 1709.02 97.55 1707.58 99.23C1706.13 100.863 1704.36 102.123 1702.26 103.01C1700.2 103.897 1697.92 104.34 1695.4 104.34ZM1695.4 98.04C1698.01 98.04 1700.11 97.2467 1701.7 95.66C1703.28 94.0267 1704.08 91.6 1704.08 88.38V82.22C1704.08 79 1703.28 76.5967 1701.7 75.01C1700.11 73.3767 1698.01 72.56 1695.4 72.56C1692.78 72.56 1690.68 73.3767 1689.1 75.01C1687.51 76.5967 1686.72 79 1686.72 82.22V88.38C1686.72 91.6 1687.51 94.0267 1689.1 95.66C1690.68 97.2467 1692.78 98.04 1695.4 98.04ZM1720.63 67.1H1728.26V108.4C1728.26 111.2 1727.54 113.417 1726.09 115.05C1724.69 116.683 1722.45 117.5 1719.37 117.5H1714.96V111.27H1720.63V67.1ZM1724.48 60.59C1722.89 60.59 1721.73 60.2167 1720.98 59.47C1720.28 58.7233 1719.93 57.7667 1719.93 56.6V55.41C1719.93 54.2433 1720.28 53.2867 1720.98 52.54C1721.73 51.7933 1722.89 51.42 1724.48 51.42C1726.07 51.42 1727.21 51.7933 1727.91 52.54C1728.61 53.2867 1728.96 54.2433 1728.96 55.41V56.6C1728.96 57.7667 1728.61 58.7233 1727.91 59.47C1727.21 60.2167 1726.07 60.59 1724.48 60.59ZM1753.44 104.34C1750.82 104.34 1748.49 103.897 1746.44 103.01C1744.38 102.123 1742.63 100.863 1741.19 99.23C1739.74 97.55 1738.62 95.5433 1737.83 93.21C1737.08 90.83 1736.71 88.1933 1736.71 85.3C1736.71 82.4067 1737.08 79.7933 1737.83 77.46C1738.62 75.08 1739.74 73.0733 1741.19 71.44C1742.63 69.76 1744.38 68.4767 1746.44 67.59C1748.49 66.7033 1750.82 66.26 1753.44 66.26C1756.1 66.26 1758.43 66.7267 1760.44 67.66C1762.49 68.5933 1764.19 69.9 1765.55 71.58C1766.9 73.2133 1767.9 75.1267 1768.56 77.32C1769.26 79.5133 1769.61 81.87 1769.61 84.39V87.26H1744.62V88.45C1744.62 91.25 1745.43 93.56 1747.07 95.38C1748.75 97.1533 1751.13 98.04 1754.21 98.04C1756.45 98.04 1758.34 97.55 1759.88 96.57C1761.42 95.59 1762.72 94.26 1763.8 92.58L1768.28 96.99C1766.92 99.23 1764.96 101.027 1762.4 102.38C1759.83 103.687 1756.84 104.34 1753.44 104.34ZM1753.44 72.21C1752.13 72.21 1750.92 72.4433 1749.8 72.91C1748.72 73.3767 1747.79 74.03 1747 74.87C1746.25 75.71 1745.67 76.7133 1745.25 77.88C1744.83 79.0467 1744.62 80.33 1744.62 81.73V82.22H1761.56V81.52C1761.56 78.72 1760.83 76.48 1759.39 74.8C1757.94 73.0733 1755.96 72.21 1753.44 72.21ZM1792.12 104.34C1789.51 104.34 1787.18 103.897 1785.12 103.01C1783.07 102.123 1781.34 100.863 1779.94 99.23C1778.54 97.55 1777.47 95.5433 1776.72 93.21C1775.98 90.83 1775.6 88.1933 1775.6 85.3C1775.6 82.4067 1775.98 79.7933 1776.72 77.46C1777.47 75.08 1778.54 73.0733 1779.94 71.44C1781.34 69.76 1783.07 68.4767 1785.12 67.59C1787.18 66.7033 1789.51 66.26 1792.12 66.26C1795.76 66.26 1798.75 67.0767 1801.08 68.71C1803.42 70.3433 1805.12 72.5133 1806.19 75.22L1799.89 78.16C1799.38 76.48 1798.47 75.15 1797.16 74.17C1795.9 73.1433 1794.22 72.63 1792.12 72.63C1789.32 72.63 1787.2 73.5167 1785.75 75.29C1784.35 77.0167 1783.65 79.28 1783.65 82.08V88.59C1783.65 91.39 1784.35 93.6767 1785.75 95.45C1787.2 97.1767 1789.32 98.04 1792.12 98.04C1794.36 98.04 1796.14 97.5033 1797.44 96.43C1798.8 95.31 1799.87 93.84 1800.66 92.02L1806.47 95.1C1805.26 98.0867 1803.44 100.373 1801.01 101.96C1798.59 103.547 1795.62 104.34 1792.12 104.34ZM1823.82 103.5C1821.16 103.5 1819.15 102.823 1817.8 101.47C1816.44 100.07 1815.77 98.11 1815.77 95.59V73.33H1810.1V67.1H1813.18C1814.44 67.1 1815.3 66.82 1815.77 66.26C1816.28 65.7 1816.54 64.79 1816.54 63.53V57.16H1823.4V67.1H1831.03V73.33H1823.4V97.27H1830.47V103.5H1823.82ZM1850.85 104.34C1847.4 104.34 1844.51 103.733 1842.17 102.52C1839.84 101.307 1837.81 99.6267 1836.08 97.48L1840.98 93C1842.34 94.6333 1843.83 95.9167 1845.46 96.85C1847.14 97.7367 1849.08 98.18 1851.27 98.18C1853.51 98.18 1855.17 97.76 1856.24 96.92C1857.36 96.0333 1857.92 94.82 1857.92 93.28C1857.92 92.1133 1857.53 91.1333 1856.73 90.34C1855.99 89.5 1854.66 88.9633 1852.74 88.73L1849.38 88.31C1845.65 87.8433 1842.71 86.77 1840.56 85.09C1838.46 83.3633 1837.41 80.82 1837.41 77.46C1837.41 75.6867 1837.74 74.1233 1838.39 72.77C1839.05 71.37 1839.96 70.2033 1841.12 69.27C1842.34 68.29 1843.76 67.5433 1845.39 67.03C1847.07 66.5167 1848.92 66.26 1850.92 66.26C1854.19 66.26 1856.85 66.7733 1858.9 67.8C1861 68.8267 1862.87 70.25 1864.5 72.07L1859.81 76.55C1858.88 75.43 1857.64 74.4733 1856.1 73.68C1854.61 72.84 1852.88 72.42 1850.92 72.42C1848.82 72.42 1847.26 72.84 1846.23 73.68C1845.25 74.52 1844.76 75.6167 1844.76 76.97C1844.76 78.37 1845.21 79.42 1846.09 80.12C1846.98 80.82 1848.4 81.3333 1850.36 81.66L1853.72 82.08C1857.74 82.6867 1860.65 83.8767 1862.47 85.65C1864.34 87.3767 1865.27 89.71 1865.27 92.65C1865.27 94.4233 1864.92 96.0333 1864.22 97.48C1863.57 98.88 1862.61 100.093 1861.35 101.12C1860.09 102.147 1858.58 102.94 1856.8 103.5C1855.03 104.06 1853.05 104.34 1850.85 104.34Z" fill="black"/>
</g>
<defs>
<clipPath id="clip0_1293_132">
<rect width="1920" height="154" fill="white"/>
</clipPath>
</defs>
</svg>
