<svg width="430" height="536" viewBox="0 0 430 536" fill="none" xmlns="http://www.w3.org/2000/svg">
<g clip-path="url(#clip0_1528_130)">
<rect width="53" height="53" rx="2" fill="#7CFC00"/>
<path d="M37.1126 42H16.2566V37.248L26.0686 28.492C27.6233 27.084 28.8113 25.7493 29.6326 24.488C30.4833 23.1973 30.9086 21.848 30.9086 20.44V19.868C30.9086 18.372 30.4539 17.1987 29.5446 16.348C28.6646 15.4973 27.4619 15.072 25.9366 15.072C25.0859 15.072 24.3379 15.204 23.6926 15.468C23.0766 15.7027 22.5339 16.04 22.0646 16.48C21.5953 16.92 21.1993 17.4333 20.8766 18.02C20.5833 18.6067 20.3486 19.2373 20.1726 19.912L15.8166 18.24C16.1393 17.272 16.5793 16.348 17.1366 15.468C17.6939 14.5587 18.3979 13.752 19.2486 13.048C20.0993 12.344 21.0966 11.7867 22.2406 11.376C23.4139 10.9653 24.7779 10.76 26.3326 10.76C27.8873 10.76 29.2806 10.9947 30.5126 11.464C31.7446 11.904 32.7713 12.5347 33.5926 13.356C34.4433 14.148 35.0886 15.1013 35.5286 16.216C35.9686 17.3307 36.1886 18.548 36.1886 19.868C36.1886 21.1 35.9979 22.244 35.6166 23.3C35.2353 24.356 34.7073 25.3533 34.0326 26.292C33.3579 27.2307 32.5659 28.1253 31.6566 28.976C30.7766 29.8267 29.8379 30.692 28.8406 31.572L21.6246 37.776H37.1126V42Z" fill="#141514"/>
<rect x="69" width="53" height="53" rx="2" fill="#7CFC00"/>
<rect x="138" width="292" height="53" rx="2" fill="#7CFC00"/>
<path d="M184.932 41V13.08H196.932C199.519 13.08 201.519 13.84 202.932 15.36C204.346 16.88 205.052 18.92 205.052 21.48C205.052 24.04 204.346 26.08 202.932 27.6C201.519 29.12 199.519 29.88 196.932 29.88H189.452V41H184.932ZM189.452 25.92H196.652C197.799 25.92 198.692 25.6267 199.332 25.04C199.972 24.4267 200.292 23.56 200.292 22.44V20.52C200.292 19.4 199.972 18.5467 199.332 17.96C198.692 17.3467 197.799 17.04 196.652 17.04H189.452V25.92ZM214.53 41H210.01V13.08H222.05C224.557 13.08 226.53 13.84 227.97 15.36C229.41 16.8533 230.13 18.8933 230.13 21.48C230.13 23.48 229.664 25.1467 228.73 26.48C227.824 27.7867 226.477 28.7067 224.69 29.24L230.73 41H225.69L220.09 29.72H214.53V41ZM221.73 25.92C222.877 25.92 223.77 25.6267 224.41 25.04C225.05 24.4267 225.37 23.56 225.37 22.44V20.52C225.37 19.4 225.05 18.5467 224.41 17.96C223.77 17.3467 222.877 17.04 221.73 17.04H214.53V25.92H221.73ZM246.631 41.48C244.817 41.48 243.164 41.1733 241.671 40.56C240.204 39.92 238.937 39 237.871 37.8C236.831 36.5733 236.017 35.0667 235.431 33.28C234.871 31.4667 234.591 29.3867 234.591 27.04C234.591 24.6933 234.871 22.6267 235.431 20.84C236.017 19.0267 236.831 17.52 237.871 16.32C238.937 15.0933 240.204 14.1733 241.671 13.56C243.164 12.92 244.817 12.6 246.631 12.6C248.444 12.6 250.084 12.92 251.551 13.56C253.044 14.1733 254.311 15.0933 255.351 16.32C256.417 17.52 257.231 19.0267 257.791 20.84C258.377 22.6267 258.671 24.6933 258.671 27.04C258.671 29.3867 258.377 31.4667 257.791 33.28C257.231 35.0667 256.417 36.5733 255.351 37.8C254.311 39 253.044 39.92 251.551 40.56C250.084 41.1733 248.444 41.48 246.631 41.48ZM246.631 37.44C247.697 37.44 248.671 37.2533 249.551 36.88C250.457 36.5067 251.217 35.9733 251.831 35.28C252.471 34.56 252.964 33.6933 253.311 32.68C253.657 31.6667 253.831 30.52 253.831 29.24V24.84C253.831 23.56 253.657 22.4133 253.311 21.4C252.964 20.3867 252.471 19.5333 251.831 18.84C251.217 18.12 250.457 17.5733 249.551 17.2C248.671 16.8267 247.697 16.64 246.631 16.64C245.537 16.64 244.551 16.8267 243.671 17.2C242.791 17.5733 242.031 18.12 241.391 18.84C240.777 19.5333 240.297 20.3867 239.951 21.4C239.604 22.4133 239.431 23.56 239.431 24.84V29.24C239.431 30.52 239.604 31.6667 239.951 32.68C240.297 33.6933 240.777 34.56 241.391 35.28C242.031 35.9733 242.791 36.5067 243.671 36.88C244.551 37.2533 245.537 37.44 246.631 37.44ZM264.307 13.08H274.187C275.974 13.08 277.587 13.3733 279.027 13.96C280.494 14.5467 281.734 15.4267 282.747 16.6C283.787 17.7467 284.587 19.2 285.147 20.96C285.707 22.6933 285.987 24.72 285.987 27.04C285.987 29.36 285.707 31.4 285.147 33.16C284.587 34.8933 283.787 36.3467 282.747 37.52C281.734 38.6667 280.494 39.5333 279.027 40.12C277.587 40.7067 275.974 41 274.187 41H264.307V13.08ZM274.187 37C276.267 37 277.947 36.3467 279.227 35.04C280.507 33.7333 281.147 31.8133 281.147 29.28V24.8C281.147 22.2667 280.507 20.3467 279.227 19.04C277.947 17.7333 276.267 17.08 274.187 17.08H268.827V37H274.187ZM295.892 13.08V30.28C295.892 32.6533 296.345 34.44 297.252 35.64C298.159 36.84 299.705 37.44 301.892 37.44C304.079 37.44 305.625 36.84 306.532 35.64C307.439 34.44 307.892 32.6533 307.892 30.28V13.08H312.332V29.56C312.332 31.6133 312.145 33.3867 311.772 34.88C311.399 36.3733 310.799 37.6133 309.972 38.6C309.145 39.56 308.065 40.28 306.732 40.76C305.425 41.24 303.812 41.48 301.892 41.48C299.972 41.48 298.345 41.24 297.012 40.76C295.705 40.28 294.639 39.56 293.812 38.6C292.985 37.6133 292.385 36.3733 292.012 34.88C291.639 33.3867 291.452 31.6133 291.452 29.56V13.08H295.892ZM329.514 41.48C325.86 41.48 322.994 40.2533 320.914 37.8C318.834 35.32 317.794 31.7333 317.794 27.04C317.794 24.6933 318.06 22.6267 318.594 20.84C319.127 19.0533 319.9 17.5467 320.914 16.32C321.927 15.0933 323.154 14.1733 324.594 13.56C326.06 12.92 327.7 12.6 329.514 12.6C331.94 12.6 333.967 13.1333 335.594 14.2C337.247 15.2667 338.54 16.84 339.474 18.92L335.674 21C335.194 19.6667 334.447 18.6133 333.434 17.84C332.447 17.04 331.14 16.64 329.514 16.64C327.354 16.64 325.66 17.3733 324.434 18.84C323.207 20.3067 322.594 22.3333 322.594 24.92V29.16C322.594 31.7467 323.207 33.7733 324.434 35.24C325.66 36.7067 327.354 37.44 329.514 37.44C331.194 37.44 332.554 37.0133 333.594 36.16C334.66 35.28 335.447 34.16 335.954 32.8L339.594 35C338.66 37.0267 337.354 38.6133 335.674 39.76C333.994 40.9067 331.94 41.48 329.514 41.48ZM354.745 17.08V41H350.225V17.08H341.905V13.08H363.065V17.08H354.745ZM375.402 41.48C373.055 41.48 371.055 41.0533 369.402 40.2C367.775 39.3467 366.375 38.2 365.202 36.76L368.322 33.84C369.308 35.04 370.388 35.9467 371.562 36.56C372.762 37.1733 374.122 37.48 375.642 37.48C377.428 37.48 378.775 37.08 379.682 36.28C380.588 35.48 381.042 34.4 381.042 33.04C381.042 31.9467 380.722 31.08 380.082 30.44C379.442 29.8 378.308 29.32 376.682 29L374.202 28.56C371.482 28.0533 369.442 27.16 368.082 25.88C366.722 24.6 366.042 22.84 366.042 20.6C366.042 19.3733 366.268 18.2667 366.722 17.28C367.202 16.2667 367.855 15.4267 368.682 14.76C369.535 14.0667 370.562 13.5333 371.762 13.16C372.962 12.7867 374.308 12.6 375.802 12.6C377.908 12.6 379.735 12.9733 381.282 13.72C382.828 14.44 384.148 15.4933 385.242 16.88L382.082 19.68C381.362 18.7467 380.482 18 379.442 17.44C378.402 16.88 377.108 16.6 375.562 16.6C373.962 16.6 372.722 16.92 371.842 17.56C370.962 18.2 370.522 19.1333 370.522 20.36C370.522 21.5333 370.882 22.4133 371.602 23C372.322 23.56 373.442 23.9867 374.962 24.28L377.442 24.8C380.242 25.3333 382.282 26.24 383.562 27.52C384.868 28.8 385.522 30.56 385.522 32.8C385.522 34.1067 385.295 35.2933 384.842 36.36C384.388 37.4267 383.722 38.3467 382.842 39.12C381.988 39.8667 380.935 40.4533 379.682 40.88C378.428 41.28 377.002 41.48 375.402 41.48Z" fill="#141514"/>
<rect y="69" width="147" height="53" rx="2" fill="#7CFC00"/>
<path d="M22.5963 110V82.08H40.0363V86.08H27.1163V93.84H38.5963V97.84H27.1163V110H22.5963ZM49.9288 110H45.4088V82.08H57.4488C59.9554 82.08 61.9288 82.84 63.3688 84.36C64.8088 85.8533 65.5288 87.8933 65.5288 90.48C65.5288 92.48 65.0621 94.1467 64.1288 95.48C63.2221 96.7867 61.8754 97.7067 60.0888 98.24L66.1288 110H61.0888L55.4888 98.72H49.9288V110ZM57.1288 94.92C58.2754 94.92 59.1688 94.6267 59.8088 94.04C60.4488 93.4267 60.7688 92.56 60.7688 91.44V89.52C60.7688 88.4 60.4488 87.5467 59.8088 86.96C59.1688 86.3467 58.2754 86.04 57.1288 86.04H49.9288V94.92H57.1288ZM82.0291 110.48C80.2157 110.48 78.5624 110.173 77.0691 109.56C75.6024 108.92 74.3357 108 73.2691 106.8C72.2291 105.573 71.4157 104.067 70.8291 102.28C70.2691 100.467 69.9891 98.3867 69.9891 96.04C69.9891 93.6933 70.2691 91.6267 70.8291 89.84C71.4157 88.0267 72.2291 86.52 73.2691 85.32C74.3357 84.0933 75.6024 83.1733 77.0691 82.56C78.5624 81.92 80.2157 81.6 82.0291 81.6C83.8424 81.6 85.4824 81.92 86.9491 82.56C88.4424 83.1733 89.7091 84.0933 90.7491 85.32C91.8157 86.52 92.6291 88.0267 93.1891 89.84C93.7757 91.6267 94.0691 93.6933 94.0691 96.04C94.0691 98.3867 93.7757 100.467 93.1891 102.28C92.6291 104.067 91.8157 105.573 90.7491 106.8C89.7091 108 88.4424 108.92 86.9491 109.56C85.4824 110.173 83.8424 110.48 82.0291 110.48ZM82.0291 106.44C83.0957 106.44 84.0691 106.253 84.9491 105.88C85.8557 105.507 86.6157 104.973 87.2291 104.28C87.8691 103.56 88.3624 102.693 88.7091 101.68C89.0557 100.667 89.2291 99.52 89.2291 98.24V93.84C89.2291 92.56 89.0557 91.4133 88.7091 90.4C88.3624 89.3867 87.8691 88.5333 87.2291 87.84C86.6157 87.12 85.8557 86.5733 84.9491 86.2C84.0691 85.8267 83.0957 85.64 82.0291 85.64C80.9357 85.64 79.9491 85.8267 79.0691 86.2C78.1891 86.5733 77.4291 87.12 76.7891 87.84C76.1757 88.5333 75.6957 89.3867 75.3491 90.4C75.0024 91.4133 74.8291 92.56 74.8291 93.84V98.24C74.8291 99.52 75.0024 100.667 75.3491 101.68C75.6957 102.693 76.1757 103.56 76.7891 104.28C77.4291 104.973 78.1891 105.507 79.0691 105.88C79.9491 106.253 80.9357 106.44 82.0291 106.44ZM121.066 88.64H120.866L118.666 93.16L112.546 104.32L106.426 93.16L104.226 88.64H104.026V110H99.7056V82.08H105.066L112.546 96.28H112.786L120.266 82.08H125.386V110H121.066V88.64Z" fill="#141514"/>
<rect x="163" y="69" width="53" height="53" rx="2" fill="#7CFC00"/>
<rect x="232" y="69.248" width="198" height="52.5047" rx="2" fill="#7CFC00"/>
<path d="M303.476 111H280.728V106.556L297.404 84.688H281.608V80.288H302.992V84.732L286.316 106.6H303.476V111ZM317.289 111.528C315.646 111.528 314.18 111.249 312.889 110.692C311.598 110.135 310.498 109.343 309.589 108.316C308.68 107.26 307.976 105.999 307.477 104.532C307.008 103.036 306.773 101.379 306.773 99.56C306.773 97.7413 307.008 96.0987 307.477 94.632C307.976 93.136 308.68 91.8747 309.589 90.848C310.498 89.792 311.598 88.9853 312.889 88.428C314.18 87.8707 315.646 87.592 317.289 87.592C318.961 87.592 320.428 87.8853 321.689 88.472C322.98 89.0587 324.05 89.88 324.901 90.936C325.752 91.9627 326.382 93.1653 326.793 94.544C327.233 95.9227 327.453 97.404 327.453 98.988V100.792H311.745V101.54C311.745 103.3 312.258 104.752 313.285 105.896C314.341 107.011 315.837 107.568 317.773 107.568C319.181 107.568 320.369 107.26 321.337 106.644C322.305 106.028 323.126 105.192 323.801 104.136L326.617 106.908C325.766 108.316 324.534 109.445 322.921 110.296C321.308 111.117 319.43 111.528 317.289 111.528ZM317.289 91.332C316.468 91.332 315.705 91.4787 315.001 91.772C314.326 92.0653 313.74 92.476 313.241 93.004C312.772 93.532 312.405 94.1627 312.141 94.896C311.877 95.6293 311.745 96.436 311.745 97.316V97.624H322.393V97.184C322.393 95.424 321.938 94.016 321.029 92.96C320.12 91.8747 318.873 91.332 317.289 91.332ZM332.762 111V88.12H337.558V92.52H337.778C338.101 91.3467 338.775 90.32 339.802 89.44C340.829 88.56 342.251 88.12 344.07 88.12H345.346V92.74H343.454C341.547 92.74 340.081 93.048 339.054 93.664C338.057 94.28 337.558 95.1893 337.558 96.392V111H332.762ZM358.367 111.528C356.783 111.528 355.331 111.249 354.011 110.692C352.72 110.135 351.62 109.343 350.711 108.316C349.802 107.26 349.098 105.999 348.599 104.532C348.1 103.036 347.851 101.379 347.851 99.56C347.851 97.7413 348.1 96.0987 348.599 94.632C349.098 93.136 349.802 91.8747 350.711 90.848C351.62 89.792 352.72 88.9853 354.011 88.428C355.331 87.8707 356.783 87.592 358.367 87.592C359.951 87.592 361.388 87.8707 362.679 88.428C363.999 88.9853 365.114 89.792 366.023 90.848C366.932 91.8747 367.636 93.136 368.135 94.632C368.634 96.0987 368.883 97.7413 368.883 99.56C368.883 101.379 368.634 103.036 368.135 104.532C367.636 105.999 366.932 107.26 366.023 108.316C365.114 109.343 363.999 110.135 362.679 110.692C361.388 111.249 359.951 111.528 358.367 111.528ZM358.367 107.568C360.01 107.568 361.33 107.069 362.327 106.072C363.324 105.045 363.823 103.52 363.823 101.496V97.624C363.823 95.6 363.324 94.0893 362.327 93.092C361.33 92.0653 360.01 91.552 358.367 91.552C356.724 91.552 355.404 92.0653 354.407 93.092C353.41 94.0893 352.911 95.6 352.911 97.624V101.496C352.911 103.52 353.41 105.045 354.407 106.072C355.404 107.069 356.724 107.568 358.367 107.568ZM376.251 102.2L374.711 89.044V80.288H379.903V89.044L378.451 102.2H376.251ZM377.351 111.528C376.236 111.528 375.415 111.264 374.887 110.736C374.388 110.179 374.139 109.475 374.139 108.624V107.876C374.139 107.025 374.388 106.336 374.887 105.808C375.415 105.251 376.236 104.972 377.351 104.972C378.466 104.972 379.272 105.251 379.771 105.808C380.299 106.336 380.563 107.025 380.563 107.876V108.624C380.563 109.475 380.299 110.179 379.771 110.736C379.272 111.264 378.466 111.528 377.351 111.528Z" fill="#141514"/>
<rect y="138" width="53" height="53" rx="2" fill="#E0FFC2"/>
<rect x="69" y="138" width="53" height="53" rx="2" fill="#E0FFC2"/>
<rect x="138" y="138" width="53" height="53" rx="2" fill="#E0FFC2"/>
<rect x="207" y="138" width="53" height="53" rx="2" fill="#E0FFC2"/>
<rect x="276" y="138" width="53" height="53" rx="2" fill="#E0FFC2"/>
<rect x="345" y="138" width="53" height="53" rx="2" fill="#E0FFC2"/>
<rect y="207" width="53" height="53" rx="2" fill="#7CFC00"/>
<path d="M37.2446 229.728C37.2446 231.957 36.9073 234.055 36.2326 236.02C35.5579 237.985 34.6926 239.789 33.6366 241.432C32.5806 243.075 31.3926 244.541 30.0726 245.832C28.7819 247.123 27.5059 248.179 26.2446 249H19.6446C21.3753 247.739 22.9299 246.521 24.3086 245.348C25.6873 244.175 26.8899 242.972 27.9166 241.74C28.9433 240.508 29.7939 239.203 30.4686 237.824C31.1726 236.445 31.7153 234.935 32.0966 233.292L31.7886 233.204C31.4659 233.82 31.0846 234.407 30.6446 234.964C30.2339 235.492 29.7353 235.961 29.1486 236.372C28.5913 236.783 27.9459 237.105 27.2126 237.34C26.4793 237.575 25.6286 237.692 24.6606 237.692C23.3699 237.692 22.1673 237.472 21.0526 237.032C19.9673 236.592 19.0139 235.961 18.1926 235.14C17.4006 234.289 16.7699 233.292 16.3006 232.148C15.8606 230.975 15.6406 229.655 15.6406 228.188C15.6406 226.663 15.8899 225.255 16.3886 223.964C16.9166 222.673 17.6499 221.573 18.5886 220.664C19.5273 219.755 20.6566 219.051 21.9766 218.552C23.2966 218.024 24.7779 217.76 26.4206 217.76C28.1219 217.76 29.6326 218.039 30.9526 218.596C32.3019 219.153 33.4313 219.96 34.3406 221.016C35.2793 222.043 35.9979 223.289 36.4966 224.756C36.9953 226.223 37.2446 227.88 37.2446 229.728ZM26.4206 233.688C28.2099 233.688 29.6033 233.219 30.6006 232.28C31.5979 231.312 32.0966 229.904 32.0966 228.056V227.44C32.0966 225.592 31.5979 224.199 30.6006 223.26C29.6033 222.292 28.2099 221.808 26.4206 221.808C24.6313 221.808 23.2379 222.292 22.2406 223.26C21.2433 224.199 20.7446 225.592 20.7446 227.44V228.056C20.7446 229.904 21.2433 231.312 22.2406 232.28C23.2379 233.219 24.6313 233.688 26.4206 233.688Z" fill="#141514"/>
<rect x="69" y="207" width="53" height="53" rx="2" fill="#7CFC00"/>
<rect x="138" y="207" width="292" height="53" rx="2" fill="#7CFC00"/>
<path d="M184.932 248V220.08H196.932C199.519 220.08 201.519 220.84 202.932 222.36C204.346 223.88 205.052 225.92 205.052 228.48C205.052 231.04 204.346 233.08 202.932 234.6C201.519 236.12 199.519 236.88 196.932 236.88H189.452V248H184.932ZM189.452 232.92H196.652C197.799 232.92 198.692 232.627 199.332 232.04C199.972 231.427 200.292 230.56 200.292 229.44V227.52C200.292 226.4 199.972 225.547 199.332 224.96C198.692 224.347 197.799 224.04 196.652 224.04H189.452V232.92ZM214.53 248H210.01V220.08H222.05C224.557 220.08 226.53 220.84 227.97 222.36C229.41 223.853 230.13 225.893 230.13 228.48C230.13 230.48 229.664 232.147 228.73 233.48C227.824 234.787 226.477 235.707 224.69 236.24L230.73 248H225.69L220.09 236.72H214.53V248ZM221.73 232.92C222.877 232.92 223.77 232.627 224.41 232.04C225.05 231.427 225.37 230.56 225.37 229.44V227.52C225.37 226.4 225.05 225.547 224.41 224.96C223.77 224.347 222.877 224.04 221.73 224.04H214.53V232.92H221.73ZM246.631 248.48C244.817 248.48 243.164 248.173 241.671 247.56C240.204 246.92 238.937 246 237.871 244.8C236.831 243.573 236.017 242.067 235.431 240.28C234.871 238.467 234.591 236.387 234.591 234.04C234.591 231.693 234.871 229.627 235.431 227.84C236.017 226.027 236.831 224.52 237.871 223.32C238.937 222.093 240.204 221.173 241.671 220.56C243.164 219.92 244.817 219.6 246.631 219.6C248.444 219.6 250.084 219.92 251.551 220.56C253.044 221.173 254.311 222.093 255.351 223.32C256.417 224.52 257.231 226.027 257.791 227.84C258.377 229.627 258.671 231.693 258.671 234.04C258.671 236.387 258.377 238.467 257.791 240.28C257.231 242.067 256.417 243.573 255.351 244.8C254.311 246 253.044 246.92 251.551 247.56C250.084 248.173 248.444 248.48 246.631 248.48ZM246.631 244.44C247.697 244.44 248.671 244.253 249.551 243.88C250.457 243.507 251.217 242.973 251.831 242.28C252.471 241.56 252.964 240.693 253.311 239.68C253.657 238.667 253.831 237.52 253.831 236.24V231.84C253.831 230.56 253.657 229.413 253.311 228.4C252.964 227.387 252.471 226.533 251.831 225.84C251.217 225.12 250.457 224.573 249.551 224.2C248.671 223.827 247.697 223.64 246.631 223.64C245.537 223.64 244.551 223.827 243.671 224.2C242.791 224.573 242.031 225.12 241.391 225.84C240.777 226.533 240.297 227.387 239.951 228.4C239.604 229.413 239.431 230.56 239.431 231.84V236.24C239.431 237.52 239.604 238.667 239.951 239.68C240.297 240.693 240.777 241.56 241.391 242.28C242.031 242.973 242.791 243.507 243.671 243.88C244.551 244.253 245.537 244.44 246.631 244.44ZM264.307 220.08H274.187C275.974 220.08 277.587 220.373 279.027 220.96C280.494 221.547 281.734 222.427 282.747 223.6C283.787 224.747 284.587 226.2 285.147 227.96C285.707 229.693 285.987 231.72 285.987 234.04C285.987 236.36 285.707 238.4 285.147 240.16C284.587 241.893 283.787 243.347 282.747 244.52C281.734 245.667 280.494 246.533 279.027 247.12C277.587 247.707 275.974 248 274.187 248H264.307V220.08ZM274.187 244C276.267 244 277.947 243.347 279.227 242.04C280.507 240.733 281.147 238.813 281.147 236.28V231.8C281.147 229.267 280.507 227.347 279.227 226.04C277.947 224.733 276.267 224.08 274.187 224.08H268.827V244H274.187ZM295.892 220.08V237.28C295.892 239.653 296.345 241.44 297.252 242.64C298.159 243.84 299.705 244.44 301.892 244.44C304.079 244.44 305.625 243.84 306.532 242.64C307.439 241.44 307.892 239.653 307.892 237.28V220.08H312.332V236.56C312.332 238.613 312.145 240.387 311.772 241.88C311.399 243.373 310.799 244.613 309.972 245.6C309.145 246.56 308.065 247.28 306.732 247.76C305.425 248.24 303.812 248.48 301.892 248.48C299.972 248.48 298.345 248.24 297.012 247.76C295.705 247.28 294.639 246.56 293.812 245.6C292.985 244.613 292.385 243.373 292.012 241.88C291.639 240.387 291.452 238.613 291.452 236.56V220.08H295.892ZM329.514 248.48C325.86 248.48 322.994 247.253 320.914 244.8C318.834 242.32 317.794 238.733 317.794 234.04C317.794 231.693 318.06 229.627 318.594 227.84C319.127 226.053 319.9 224.547 320.914 223.32C321.927 222.093 323.154 221.173 324.594 220.56C326.06 219.92 327.7 219.6 329.514 219.6C331.94 219.6 333.967 220.133 335.594 221.2C337.247 222.267 338.54 223.84 339.474 225.92L335.674 228C335.194 226.667 334.447 225.613 333.434 224.84C332.447 224.04 331.14 223.64 329.514 223.64C327.354 223.64 325.66 224.373 324.434 225.84C323.207 227.307 322.594 229.333 322.594 231.92V236.16C322.594 238.747 323.207 240.773 324.434 242.24C325.66 243.707 327.354 244.44 329.514 244.44C331.194 244.44 332.554 244.013 333.594 243.16C334.66 242.28 335.447 241.16 335.954 239.8L339.594 242C338.66 244.027 337.354 245.613 335.674 246.76C333.994 247.907 331.94 248.48 329.514 248.48ZM354.745 224.08V248H350.225V224.08H341.905V220.08H363.065V224.08H354.745ZM375.402 248.48C373.055 248.48 371.055 248.053 369.402 247.2C367.775 246.347 366.375 245.2 365.202 243.76L368.322 240.84C369.308 242.04 370.388 242.947 371.562 243.56C372.762 244.173 374.122 244.48 375.642 244.48C377.428 244.48 378.775 244.08 379.682 243.28C380.588 242.48 381.042 241.4 381.042 240.04C381.042 238.947 380.722 238.08 380.082 237.44C379.442 236.8 378.308 236.32 376.682 236L374.202 235.56C371.482 235.053 369.442 234.16 368.082 232.88C366.722 231.6 366.042 229.84 366.042 227.6C366.042 226.373 366.268 225.267 366.722 224.28C367.202 223.267 367.855 222.427 368.682 221.76C369.535 221.067 370.562 220.533 371.762 220.16C372.962 219.787 374.308 219.6 375.802 219.6C377.908 219.6 379.735 219.973 381.282 220.72C382.828 221.44 384.148 222.493 385.242 223.88L382.082 226.68C381.362 225.747 380.482 225 379.442 224.44C378.402 223.88 377.108 223.6 375.562 223.6C373.962 223.6 372.722 223.92 371.842 224.56C370.962 225.2 370.522 226.133 370.522 227.36C370.522 228.533 370.882 229.413 371.602 230C372.322 230.56 373.442 230.987 374.962 231.28L377.442 231.8C380.242 232.333 382.282 233.24 383.562 234.52C384.868 235.8 385.522 237.56 385.522 239.8C385.522 241.107 385.295 242.293 384.842 243.36C384.388 244.427 383.722 245.347 382.842 246.12C381.988 246.867 380.935 247.453 379.682 247.88C378.428 248.28 377.002 248.48 375.402 248.48Z" fill="#141514"/>
<rect y="276" width="292" height="53" rx="2" fill="#7CFC00"/>
<path d="M52.5767 317V289.08H70.0167V293.08H57.0967V300.84H68.5767V304.84H57.0967V317H52.5767ZM75.3892 317V289.08H93.2692V293.08H79.9092V300.84H92.0292V304.84H79.9092V313H93.2692V317H75.3892ZM116.54 317L114.02 309.44H103.58L101.14 317H96.5402L106.06 289.08H111.74L121.26 317H116.54ZM108.9 293.24H108.7L104.66 305.56H112.9L108.9 293.24ZM133.327 293.08V317H128.807V293.08H120.487V289.08H141.647V293.08H133.327ZM150.333 289.08V306.28C150.333 308.653 150.787 310.44 151.693 311.64C152.6 312.84 154.147 313.44 156.333 313.44C158.52 313.44 160.067 312.84 160.973 311.64C161.88 310.44 162.333 308.653 162.333 306.28V289.08H166.773V305.56C166.773 307.613 166.587 309.387 166.213 310.88C165.84 312.373 165.24 313.613 164.413 314.6C163.587 315.56 162.507 316.28 161.173 316.76C159.867 317.24 158.253 317.48 156.333 317.48C154.413 317.48 152.787 317.24 151.453 316.76C150.147 316.28 149.08 315.56 148.253 314.6C147.427 313.613 146.827 312.373 146.453 310.88C146.08 309.387 145.893 307.613 145.893 305.56V289.08H150.333ZM177.995 317H173.475V289.08H185.515C188.022 289.08 189.995 289.84 191.435 291.36C192.875 292.853 193.595 294.893 193.595 297.48C193.595 299.48 193.128 301.147 192.195 302.48C191.288 303.787 189.942 304.707 188.155 305.24L194.195 317H189.155L183.555 305.72H177.995V317ZM185.195 301.92C186.342 301.92 187.235 301.627 187.875 301.04C188.515 300.427 188.835 299.56 188.835 298.44V296.52C188.835 295.4 188.515 294.547 187.875 293.96C187.235 293.347 186.342 293.04 185.195 293.04H177.995V301.92H185.195ZM199.686 317V289.08H217.566V293.08H204.206V300.84H216.326V304.84H204.206V313H217.566V317H199.686ZM231.757 317.48C229.41 317.48 227.41 317.053 225.757 316.2C224.13 315.347 222.73 314.2 221.557 312.76L224.677 309.84C225.664 311.04 226.744 311.947 227.917 312.56C229.117 313.173 230.477 313.48 231.997 313.48C233.784 313.48 235.13 313.08 236.037 312.28C236.944 311.48 237.397 310.4 237.397 309.04C237.397 307.947 237.077 307.08 236.437 306.44C235.797 305.8 234.664 305.32 233.037 305L230.557 304.56C227.837 304.053 225.797 303.16 224.437 301.88C223.077 300.6 222.397 298.84 222.397 296.6C222.397 295.373 222.624 294.267 223.077 293.28C223.557 292.267 224.21 291.427 225.037 290.76C225.89 290.067 226.917 289.533 228.117 289.16C229.317 288.787 230.664 288.6 232.157 288.6C234.264 288.6 236.09 288.973 237.637 289.72C239.184 290.44 240.504 291.493 241.597 292.88L238.437 295.68C237.717 294.747 236.837 294 235.797 293.44C234.757 292.88 233.464 292.6 231.917 292.6C230.317 292.6 229.077 292.92 228.197 293.56C227.317 294.2 226.877 295.133 226.877 296.36C226.877 297.533 227.237 298.413 227.957 299C228.677 299.56 229.797 299.987 231.317 300.28L233.797 300.8C236.597 301.333 238.637 302.24 239.917 303.52C241.224 304.8 241.877 306.56 241.877 308.8C241.877 310.107 241.65 311.293 241.197 312.36C240.744 313.427 240.077 314.347 239.197 315.12C238.344 315.867 237.29 316.453 236.037 316.88C234.784 317.28 233.357 317.48 231.757 317.48Z" fill="#141514"/>
<rect x="308" y="276" width="53" height="53" rx="2" fill="#7CFC00"/>
<rect x="377" y="276" width="53" height="53" rx="2" fill="#7CFC00"/>
<rect y="345" width="53" height="53" rx="2" fill="#E0FFC2"/>
<rect x="69" y="345" width="53" height="53" rx="2" fill="#E0FFC2"/>
<rect x="138" y="345" width="53" height="53" rx="2" fill="#E0FFC2"/>
<rect x="207" y="345" width="53" height="53" rx="2" fill="#E0FFC2"/>
<rect x="276" y="345" width="53" height="53" rx="2" fill="#E0FFC2"/>
<rect x="345" y="345" width="53" height="53" rx="2" fill="#E0FFC2"/>
<rect y="414" width="138" height="53" rx="2" fill="#7CFC00"/>
<path d="M54.6452 437.916C56.5519 437.916 57.9599 437.52 58.8692 436.728C59.7785 435.907 60.2332 434.865 60.2332 433.604V433.296C60.2332 431.888 59.7932 430.817 58.9132 430.084C58.0332 429.321 56.8452 428.94 55.3492 428.94C53.8825 428.94 52.6359 429.277 51.6092 429.952C50.5825 430.597 49.7172 431.507 49.0132 432.68L45.7132 429.82C46.1825 429.145 46.7105 428.5 47.2972 427.884C47.8839 427.268 48.5732 426.74 49.3652 426.3C50.1572 425.831 51.0519 425.464 52.0492 425.2C53.0465 424.907 54.1905 424.76 55.4812 424.76C56.9185 424.76 58.2532 424.936 59.4852 425.288C60.7172 425.64 61.7732 426.168 62.6532 426.872C63.5332 427.547 64.2225 428.383 64.7212 429.38C65.2199 430.348 65.4692 431.448 65.4692 432.68C65.4692 433.648 65.3079 434.528 64.9852 435.32C64.6919 436.112 64.2665 436.816 63.7092 437.432C63.1812 438.019 62.5505 438.503 61.8172 438.884C61.1132 439.265 60.3652 439.544 59.5732 439.72V439.94C60.4532 440.116 61.2745 440.409 62.0372 440.82C62.8292 441.201 63.5185 441.715 64.1052 442.36C64.6919 442.976 65.1465 443.724 65.4692 444.604C65.8212 445.455 65.9972 446.437 65.9972 447.552C65.9972 448.901 65.7332 450.133 65.2052 451.248C64.6772 452.333 63.9292 453.272 62.9612 454.064C62.0225 454.856 60.8785 455.472 59.5292 455.912C58.1799 456.323 56.6839 456.528 55.0412 456.528C53.6039 456.528 52.3425 456.367 51.2572 456.044C50.1719 455.751 49.2039 455.355 48.3532 454.856C47.5319 454.328 46.7985 453.741 46.1532 453.096C45.5372 452.421 44.9945 451.732 44.5252 451.028L48.1772 448.168C48.5585 448.784 48.9545 449.356 49.3652 449.884C49.8052 450.383 50.2892 450.823 50.8172 451.204C51.3745 451.556 51.9905 451.835 52.6652 452.04C53.3692 452.245 54.1612 452.348 55.0412 452.348C56.9185 452.348 58.3559 451.908 59.3532 451.028C60.3505 450.119 60.8492 448.872 60.8492 447.288V446.98C60.8492 445.396 60.3212 444.193 59.2652 443.372C58.2092 442.551 56.7132 442.14 54.7772 442.14H51.5212V437.916H54.6452ZM82.7 456.528C80.7933 456.528 79.136 456.176 77.728 455.472C76.32 454.739 75.1613 453.697 74.252 452.348C73.3427 450.999 72.668 449.341 72.228 447.376C71.788 445.411 71.568 443.167 71.568 440.644C71.568 438.151 71.788 435.921 72.228 433.956C72.668 431.961 73.3427 430.289 74.252 428.94C75.1613 427.591 76.32 426.564 77.728 425.86C79.136 425.127 80.7933 424.76 82.7 424.76C86.5133 424.76 89.3147 426.153 91.104 428.94C92.9227 431.727 93.832 435.628 93.832 440.644C93.832 445.66 92.9227 449.561 91.104 452.348C89.3147 455.135 86.5133 456.528 82.7 456.528ZM82.7 452.304C83.756 452.304 84.6507 452.099 85.384 451.688C86.1467 451.248 86.7627 450.632 87.232 449.84C87.7013 449.048 88.0387 448.109 88.244 447.024C88.4493 445.909 88.552 444.677 88.552 443.328V437.96C88.552 436.611 88.4493 435.393 88.244 434.308C88.0387 433.193 87.7013 432.24 87.232 431.448C86.7627 430.656 86.1467 430.055 85.384 429.644C84.6507 429.204 83.756 428.984 82.7 428.984C81.644 428.984 80.7347 429.204 79.972 429.644C79.2387 430.055 78.6373 430.656 78.168 431.448C77.6987 432.24 77.3613 433.193 77.156 434.308C76.9507 435.393 76.848 436.611 76.848 437.96V443.328C76.848 444.677 76.9507 445.909 77.156 447.024C77.3613 448.109 77.6987 449.048 78.168 449.84C78.6373 450.632 79.2387 451.248 79.972 451.688C80.7347 452.099 81.644 452.304 82.7 452.304Z" fill="#141514"/>
<rect x="154" y="414" width="53" height="53" rx="2" fill="#7CFC00"/>
<rect x="223" y="414" width="138" height="53" rx="2" fill="#7CFC00"/>
<path d="M248.095 427.08V444.28C248.095 446.653 248.548 448.44 249.455 449.64C250.362 450.84 251.908 451.44 254.095 451.44C256.282 451.44 257.828 450.84 258.735 449.64C259.642 448.44 260.095 446.653 260.095 444.28V427.08H264.535V443.56C264.535 445.613 264.348 447.387 263.975 448.88C263.602 450.373 263.002 451.613 262.175 452.6C261.348 453.56 260.268 454.28 258.935 454.76C257.628 455.24 256.015 455.48 254.095 455.48C252.175 455.48 250.548 455.24 249.215 454.76C247.908 454.28 246.842 453.56 246.015 452.6C245.188 451.613 244.588 450.373 244.215 448.88C243.842 447.387 243.655 445.613 243.655 443.56V427.08H248.095ZM279.597 455.48C277.25 455.48 275.25 455.053 273.597 454.2C271.97 453.347 270.57 452.2 269.397 450.76L272.517 447.84C273.504 449.04 274.584 449.947 275.757 450.56C276.957 451.173 278.317 451.48 279.837 451.48C281.624 451.48 282.97 451.08 283.877 450.28C284.784 449.48 285.237 448.4 285.237 447.04C285.237 445.947 284.917 445.08 284.277 444.44C283.637 443.8 282.504 443.32 280.877 443L278.397 442.56C275.677 442.053 273.637 441.16 272.277 439.88C270.917 438.6 270.237 436.84 270.237 434.6C270.237 433.373 270.464 432.267 270.917 431.28C271.397 430.267 272.05 429.427 272.877 428.76C273.73 428.067 274.757 427.533 275.957 427.16C277.157 426.787 278.504 426.6 279.997 426.6C282.104 426.6 283.93 426.973 285.477 427.72C287.024 428.44 288.344 429.493 289.437 430.88L286.277 433.68C285.557 432.747 284.677 432 283.637 431.44C282.597 430.88 281.304 430.6 279.757 430.6C278.157 430.6 276.917 430.92 276.037 431.56C275.157 432.2 274.717 433.133 274.717 434.36C274.717 435.533 275.077 436.413 275.797 437C276.517 437.56 277.637 437.987 279.157 438.28L281.637 438.8C284.437 439.333 286.477 440.24 287.757 441.52C289.064 442.8 289.717 444.56 289.717 446.8C289.717 448.107 289.49 449.293 289.037 450.36C288.584 451.427 287.917 452.347 287.037 453.12C286.184 453.867 285.13 454.453 283.877 454.88C282.624 455.28 281.197 455.48 279.597 455.48ZM295.143 455V427.08H313.023V431.08H299.663V438.84H311.783V442.84H299.663V451H313.023V455H295.143ZM323.374 455H318.854V427.08H330.894C333.401 427.08 335.374 427.84 336.814 429.36C338.254 430.853 338.974 432.893 338.974 435.48C338.974 437.48 338.507 439.147 337.574 440.48C336.667 441.787 335.321 442.707 333.534 443.24L339.574 455H334.534L328.934 443.72H323.374V455ZM330.574 439.92C331.721 439.92 332.614 439.627 333.254 439.04C333.894 438.427 334.214 437.56 334.214 436.44V434.52C334.214 433.4 333.894 432.547 333.254 431.96C332.614 431.347 331.721 431.04 330.574 431.04H323.374V439.92H330.574Z" fill="#141514"/>
<rect x="377" y="414" width="53" height="53" rx="2" fill="#7CFC00"/>
<rect y="483" width="361" height="53" rx="2" fill="#7CFC00"/>
<path d="M61.4822 524V520.32H65.2822V499.76H61.4822V496.08H73.6422V499.76H69.8022V520.32H73.6422V524H61.4822ZM86.8428 508.56L83.7628 502.64H83.6428V524H79.3228V496.08H84.3628L93.4828 511.52L96.5628 517.44H96.6828V496.08H101.003V524H95.9628L86.8428 508.56ZM118.238 500.08V524H113.718V500.08H105.398V496.08H126.558V500.08H118.238ZM130.963 524V496.08H148.843V500.08H135.483V507.84H147.603V511.84H135.483V520H148.843V524H130.963ZM159.194 524H154.674V496.08H166.714C169.221 496.08 171.194 496.84 172.634 498.36C174.074 499.853 174.794 501.893 174.794 504.48C174.794 506.48 174.328 508.147 173.394 509.48C172.488 510.787 171.141 511.707 169.354 512.24L175.394 524H170.354L164.754 512.72H159.194V524ZM166.394 508.92C167.541 508.92 168.434 508.627 169.074 508.04C169.714 507.427 170.034 506.56 170.034 505.44V503.52C170.034 502.4 169.714 501.547 169.074 500.96C168.434 500.347 167.541 500.04 166.394 500.04H159.194V508.92H166.394ZM186.232 524L177.072 496.08H181.752L186.192 509.88L188.872 519.6H189.032L191.752 509.88L196.192 496.08H200.752L191.472 524H186.232ZM203.709 524V520.32H207.509V499.76H203.709V496.08H215.869V499.76H212.029V520.32H215.869V524H203.709ZM221.549 524V496.08H239.429V500.08H226.069V507.84H238.189V511.84H226.069V520H239.429V524H221.549ZM249.38 524L242.78 496.08H247.38L250.22 509.52L252.18 518.8H252.3L254.54 509.52L257.86 496.08H262.9L266.18 509.52L268.38 518.76H268.5L270.54 509.52L273.46 496.08H277.9L271.02 524H265.94L262.38 509.56L260.3 501.08H260.22L258.1 509.56L254.46 524H249.38ZM290.652 524.48C288.305 524.48 286.305 524.053 284.652 523.2C283.025 522.347 281.625 521.2 280.452 519.76L283.572 516.84C284.558 518.04 285.638 518.947 286.812 519.56C288.012 520.173 289.372 520.48 290.892 520.48C292.678 520.48 294.025 520.08 294.932 519.28C295.838 518.48 296.292 517.4 296.292 516.04C296.292 514.947 295.972 514.08 295.332 513.44C294.692 512.8 293.558 512.32 291.932 512L289.452 511.56C286.732 511.053 284.692 510.16 283.332 508.88C281.972 507.6 281.292 505.84 281.292 503.6C281.292 502.373 281.518 501.267 281.972 500.28C282.452 499.267 283.105 498.427 283.932 497.76C284.785 497.067 285.812 496.533 287.012 496.16C288.212 495.787 289.558 495.6 291.052 495.6C293.158 495.6 294.985 495.973 296.532 496.72C298.078 497.44 299.398 498.493 300.492 499.88L297.332 502.68C296.612 501.747 295.732 501 294.692 500.44C293.652 499.88 292.358 499.6 290.812 499.6C289.212 499.6 287.972 499.92 287.092 500.56C286.212 501.2 285.772 502.133 285.772 503.36C285.772 504.533 286.132 505.413 286.852 506C287.572 506.56 288.692 506.987 290.212 507.28L292.692 507.8C295.492 508.333 297.532 509.24 298.812 510.52C300.118 511.8 300.772 513.56 300.772 515.8C300.772 517.107 300.545 518.293 300.092 519.36C299.638 520.427 298.972 521.347 298.092 522.12C297.238 522.867 296.185 523.453 294.932 523.88C293.678 524.28 292.252 524.48 290.652 524.48Z" fill="#141514"/>
<rect x="377" y="483" width="53" height="53" rx="2" fill="#7CFC00"/>
</g>
<defs>
<clipPath id="clip0_1528_130">
<rect width="430" height="536" fill="white"/>
</clipPath>
</defs>
</svg>
