<svg width="467" height="536" viewBox="0 0 467 536" fill="none" xmlns="http://www.w3.org/2000/svg">
<g clip-path="url(#clip0_1528_130)">
<rect width="53" height="53" fill="#CBFF99"/>
<rect width="53" height="53" transform="translate(69)" fill="#7CFC00"/>
<path d="M106.333 42H85.0366V36.632L94.6726 28.184C96.3153 26.7467 97.5179 25.456 98.2806 24.312C99.0433 23.1387 99.4246 21.8773 99.4246 20.528V19.956C99.4246 18.6067 98.9846 17.58 98.1046 16.876C97.2246 16.1427 96.1539 15.776 94.8926 15.776C93.3086 15.776 92.1059 16.2307 91.2846 17.14C90.4633 18.02 89.8766 19.0907 89.5246 20.352L84.5086 18.416C84.8313 17.3893 85.2859 16.4213 85.8726 15.512C86.4593 14.5733 87.1926 13.752 88.0726 13.048C88.9819 12.344 90.0379 11.7867 91.2406 11.376C92.4433 10.9653 93.8219 10.76 95.3766 10.76C96.9899 10.76 98.4273 10.9947 99.6886 11.464C100.95 11.904 102.006 12.5347 102.857 13.356C103.737 14.1773 104.397 15.1453 104.837 16.26C105.306 17.3747 105.541 18.592 105.541 19.912C105.541 21.2027 105.335 22.376 104.925 23.432C104.514 24.488 103.957 25.5 103.253 26.468C102.549 27.4067 101.727 28.316 100.789 29.196C99.8499 30.0467 98.8526 30.912 97.7966 31.792L91.3286 37.116H106.333V42Z" fill="#141514"/>
<rect width="329" height="53" transform="translate(138)" fill="#7CFC00"/>
<path d="M203.932 41V13.08H215.932C218.519 13.08 220.519 13.84 221.932 15.36C223.346 16.88 224.052 18.92 224.052 21.48C224.052 24.04 223.346 26.08 221.932 27.6C220.519 29.12 218.519 29.88 215.932 29.88H208.452V41H203.932ZM208.452 25.92H215.652C216.799 25.92 217.692 25.6267 218.332 25.04C218.972 24.4267 219.292 23.56 219.292 22.44V20.52C219.292 19.4 218.972 18.5467 218.332 17.96C217.692 17.3467 216.799 17.04 215.652 17.04H208.452V25.92ZM233.53 41H229.01V13.08H241.05C243.557 13.08 245.53 13.84 246.97 15.36C248.41 16.8533 249.13 18.8933 249.13 21.48C249.13 23.48 248.664 25.1467 247.73 26.48C246.824 27.7867 245.477 28.7067 243.69 29.24L249.73 41H244.69L239.09 29.72H233.53V41ZM240.73 25.92C241.877 25.92 242.77 25.6267 243.41 25.04C244.05 24.4267 244.37 23.56 244.37 22.44V20.52C244.37 19.4 244.05 18.5467 243.41 17.96C242.77 17.3467 241.877 17.04 240.73 17.04H233.53V25.92H240.73ZM265.631 41.48C263.817 41.48 262.164 41.1733 260.671 40.56C259.204 39.92 257.937 39 256.871 37.8C255.831 36.5733 255.017 35.0667 254.431 33.28C253.871 31.4667 253.591 29.3867 253.591 27.04C253.591 24.6933 253.871 22.6267 254.431 20.84C255.017 19.0267 255.831 17.52 256.871 16.32C257.937 15.0933 259.204 14.1733 260.671 13.56C262.164 12.92 263.817 12.6 265.631 12.6C267.444 12.6 269.084 12.92 270.551 13.56C272.044 14.1733 273.311 15.0933 274.351 16.32C275.417 17.52 276.231 19.0267 276.791 20.84C277.377 22.6267 277.671 24.6933 277.671 27.04C277.671 29.3867 277.377 31.4667 276.791 33.28C276.231 35.0667 275.417 36.5733 274.351 37.8C273.311 39 272.044 39.92 270.551 40.56C269.084 41.1733 267.444 41.48 265.631 41.48ZM265.631 37.44C266.697 37.44 267.671 37.2533 268.551 36.88C269.457 36.5067 270.217 35.9733 270.831 35.28C271.471 34.56 271.964 33.6933 272.311 32.68C272.657 31.6667 272.831 30.52 272.831 29.24V24.84C272.831 23.56 272.657 22.4133 272.311 21.4C271.964 20.3867 271.471 19.5333 270.831 18.84C270.217 18.12 269.457 17.5733 268.551 17.2C267.671 16.8267 266.697 16.64 265.631 16.64C264.537 16.64 263.551 16.8267 262.671 17.2C261.791 17.5733 261.031 18.12 260.391 18.84C259.777 19.5333 259.297 20.3867 258.951 21.4C258.604 22.4133 258.431 23.56 258.431 24.84V29.24C258.431 30.52 258.604 31.6667 258.951 32.68C259.297 33.6933 259.777 34.56 260.391 35.28C261.031 35.9733 261.791 36.5067 262.671 36.88C263.551 37.2533 264.537 37.44 265.631 37.44ZM283.307 13.08H293.187C294.974 13.08 296.587 13.3733 298.027 13.96C299.494 14.5467 300.734 15.4267 301.747 16.6C302.787 17.7467 303.587 19.2 304.147 20.96C304.707 22.6933 304.987 24.72 304.987 27.04C304.987 29.36 304.707 31.4 304.147 33.16C303.587 34.8933 302.787 36.3467 301.747 37.52C300.734 38.6667 299.494 39.5333 298.027 40.12C296.587 40.7067 294.974 41 293.187 41H283.307V13.08ZM293.187 37C295.267 37 296.947 36.3467 298.227 35.04C299.507 33.7333 300.147 31.8133 300.147 29.28V24.8C300.147 22.2667 299.507 20.3467 298.227 19.04C296.947 17.7333 295.267 17.08 293.187 17.08H287.827V37H293.187ZM314.892 13.08V30.28C314.892 32.6533 315.345 34.44 316.252 35.64C317.159 36.84 318.705 37.44 320.892 37.44C323.079 37.44 324.625 36.84 325.532 35.64C326.439 34.44 326.892 32.6533 326.892 30.28V13.08H331.332V29.56C331.332 31.6133 331.145 33.3867 330.772 34.88C330.399 36.3733 329.799 37.6133 328.972 38.6C328.145 39.56 327.065 40.28 325.732 40.76C324.425 41.24 322.812 41.48 320.892 41.48C318.972 41.48 317.345 41.24 316.012 40.76C314.705 40.28 313.639 39.56 312.812 38.6C311.985 37.6133 311.385 36.3733 311.012 34.88C310.639 33.3867 310.452 31.6133 310.452 29.56V13.08H314.892ZM348.514 41.48C344.86 41.48 341.994 40.2533 339.914 37.8C337.834 35.32 336.794 31.7333 336.794 27.04C336.794 24.6933 337.06 22.6267 337.594 20.84C338.127 19.0533 338.9 17.5467 339.914 16.32C340.927 15.0933 342.154 14.1733 343.594 13.56C345.06 12.92 346.7 12.6 348.514 12.6C350.94 12.6 352.967 13.1333 354.594 14.2C356.247 15.2667 357.54 16.84 358.474 18.92L354.674 21C354.194 19.6667 353.447 18.6133 352.434 17.84C351.447 17.04 350.14 16.64 348.514 16.64C346.354 16.64 344.66 17.3733 343.434 18.84C342.207 20.3067 341.594 22.3333 341.594 24.92V29.16C341.594 31.7467 342.207 33.7733 343.434 35.24C344.66 36.7067 346.354 37.44 348.514 37.44C350.194 37.44 351.554 37.0133 352.594 36.16C353.66 35.28 354.447 34.16 354.954 32.8L358.594 35C357.66 37.0267 356.354 38.6133 354.674 39.76C352.994 40.9067 350.94 41.48 348.514 41.48ZM373.745 17.08V41H369.225V17.08H360.905V13.08H382.065V17.08H373.745ZM394.402 41.48C392.055 41.48 390.055 41.0533 388.402 40.2C386.775 39.3467 385.375 38.2 384.202 36.76L387.322 33.84C388.308 35.04 389.388 35.9467 390.562 36.56C391.762 37.1733 393.122 37.48 394.642 37.48C396.428 37.48 397.775 37.08 398.682 36.28C399.588 35.48 400.042 34.4 400.042 33.04C400.042 31.9467 399.722 31.08 399.082 30.44C398.442 29.8 397.308 29.32 395.682 29L393.202 28.56C390.482 28.0533 388.442 27.16 387.082 25.88C385.722 24.6 385.042 22.84 385.042 20.6C385.042 19.3733 385.268 18.2667 385.722 17.28C386.202 16.2667 386.855 15.4267 387.682 14.76C388.535 14.0667 389.562 13.5333 390.762 13.16C391.962 12.7867 393.308 12.6 394.802 12.6C396.908 12.6 398.735 12.9733 400.282 13.72C401.828 14.44 403.148 15.4933 404.242 16.88L401.082 19.68C400.362 18.7467 399.482 18 398.442 17.44C397.402 16.88 396.108 16.6 394.562 16.6C392.962 16.6 391.722 16.92 390.842 17.56C389.962 18.2 389.522 19.1333 389.522 20.36C389.522 21.5333 389.882 22.4133 390.602 23C391.322 23.56 392.442 23.9867 393.962 24.28L396.442 24.8C399.242 25.3333 401.282 26.24 402.562 27.52C403.868 28.8 404.522 30.56 404.522 32.8C404.522 34.1067 404.295 35.2933 403.842 36.36C403.388 37.4267 402.722 38.3467 401.842 39.12C400.988 39.8667 399.935 40.4533 398.682 40.88C397.428 41.28 396.002 41.48 394.402 41.48Z" fill="#141514"/>
<rect width="147" height="53" transform="translate(69 69)" fill="#7CFC00"/>
<path d="M91.5963 110V82.08H109.036V86.08H96.1163V93.84H107.596V97.84H96.1163V110H91.5963ZM118.929 110H114.409V82.08H126.449C128.955 82.08 130.929 82.84 132.369 84.36C133.809 85.8533 134.529 87.8933 134.529 90.48C134.529 92.48 134.062 94.1467 133.129 95.48C132.222 96.7867 130.875 97.7067 129.089 98.24L135.129 110H130.089L124.489 98.72H118.929V110ZM126.129 94.92C127.275 94.92 128.169 94.6267 128.809 94.04C129.449 93.4267 129.769 92.56 129.769 91.44V89.52C129.769 88.4 129.449 87.5467 128.809 86.96C128.169 86.3467 127.275 86.04 126.129 86.04H118.929V94.92H126.129ZM151.029 110.48C149.216 110.48 147.562 110.173 146.069 109.56C144.602 108.92 143.336 108 142.269 106.8C141.229 105.573 140.416 104.067 139.829 102.28C139.269 100.467 138.989 98.3867 138.989 96.04C138.989 93.6933 139.269 91.6267 139.829 89.84C140.416 88.0267 141.229 86.52 142.269 85.32C143.336 84.0933 144.602 83.1733 146.069 82.56C147.562 81.92 149.216 81.6 151.029 81.6C152.842 81.6 154.482 81.92 155.949 82.56C157.442 83.1733 158.709 84.0933 159.749 85.32C160.816 86.52 161.629 88.0267 162.189 89.84C162.776 91.6267 163.069 93.6933 163.069 96.04C163.069 98.3867 162.776 100.467 162.189 102.28C161.629 104.067 160.816 105.573 159.749 106.8C158.709 108 157.442 108.92 155.949 109.56C154.482 110.173 152.842 110.48 151.029 110.48ZM151.029 106.44C152.096 106.44 153.069 106.253 153.949 105.88C154.856 105.507 155.616 104.973 156.229 104.28C156.869 103.56 157.362 102.693 157.709 101.68C158.056 100.667 158.229 99.52 158.229 98.24V93.84C158.229 92.56 158.056 91.4133 157.709 90.4C157.362 89.3867 156.869 88.5333 156.229 87.84C155.616 87.12 154.856 86.5733 153.949 86.2C153.069 85.8267 152.096 85.64 151.029 85.64C149.936 85.64 148.949 85.8267 148.069 86.2C147.189 86.5733 146.429 87.12 145.789 87.84C145.176 88.5333 144.696 89.3867 144.349 90.4C144.002 91.4133 143.829 92.56 143.829 93.84V98.24C143.829 99.52 144.002 100.667 144.349 101.68C144.696 102.693 145.176 103.56 145.789 104.28C146.429 104.973 147.189 105.507 148.069 105.88C148.949 106.253 149.936 106.44 151.029 106.44ZM190.066 88.64H189.866L187.666 93.16L181.546 104.32L175.426 93.16L173.226 88.64H173.026V110H168.706V82.08H174.066L181.546 96.28H181.786L189.266 82.08H194.386V110H190.066V88.64Z" fill="#141514"/>
<rect width="235" height="52.5047" transform="translate(232 69.248)" fill="#7CFC00"/>
<path d="M322.476 111H299.728V106.556L316.404 84.688H300.608V80.288H321.992V84.732L305.316 106.6H322.476V111ZM336.289 111.528C334.646 111.528 333.18 111.249 331.889 110.692C330.598 110.135 329.498 109.343 328.589 108.316C327.68 107.26 326.976 105.999 326.477 104.532C326.008 103.036 325.773 101.379 325.773 99.56C325.773 97.7413 326.008 96.0987 326.477 94.632C326.976 93.136 327.68 91.8747 328.589 90.848C329.498 89.792 330.598 88.9853 331.889 88.428C333.18 87.8707 334.646 87.592 336.289 87.592C337.961 87.592 339.428 87.8853 340.689 88.472C341.98 89.0587 343.05 89.88 343.901 90.936C344.752 91.9627 345.382 93.1653 345.793 94.544C346.233 95.9227 346.453 97.404 346.453 98.988V100.792H330.745V101.54C330.745 103.3 331.258 104.752 332.285 105.896C333.341 107.011 334.837 107.568 336.773 107.568C338.181 107.568 339.369 107.26 340.337 106.644C341.305 106.028 342.126 105.192 342.801 104.136L345.617 106.908C344.766 108.316 343.534 109.445 341.921 110.296C340.308 111.117 338.43 111.528 336.289 111.528ZM336.289 91.332C335.468 91.332 334.705 91.4787 334.001 91.772C333.326 92.0653 332.74 92.476 332.241 93.004C331.772 93.532 331.405 94.1627 331.141 94.896C330.877 95.6293 330.745 96.436 330.745 97.316V97.624H341.393V97.184C341.393 95.424 340.938 94.016 340.029 92.96C339.12 91.8747 337.873 91.332 336.289 91.332ZM351.762 111V88.12H356.558V92.52H356.778C357.101 91.3467 357.775 90.32 358.802 89.44C359.829 88.56 361.251 88.12 363.07 88.12H364.346V92.74H362.454C360.547 92.74 359.081 93.048 358.054 93.664C357.057 94.28 356.558 95.1893 356.558 96.392V111H351.762ZM377.367 111.528C375.783 111.528 374.331 111.249 373.011 110.692C371.72 110.135 370.62 109.343 369.711 108.316C368.802 107.26 368.098 105.999 367.599 104.532C367.1 103.036 366.851 101.379 366.851 99.56C366.851 97.7413 367.1 96.0987 367.599 94.632C368.098 93.136 368.802 91.8747 369.711 90.848C370.62 89.792 371.72 88.9853 373.011 88.428C374.331 87.8707 375.783 87.592 377.367 87.592C378.951 87.592 380.388 87.8707 381.679 88.428C382.999 88.9853 384.114 89.792 385.023 90.848C385.932 91.8747 386.636 93.136 387.135 94.632C387.634 96.0987 387.883 97.7413 387.883 99.56C387.883 101.379 387.634 103.036 387.135 104.532C386.636 105.999 385.932 107.26 385.023 108.316C384.114 109.343 382.999 110.135 381.679 110.692C380.388 111.249 378.951 111.528 377.367 111.528ZM377.367 107.568C379.01 107.568 380.33 107.069 381.327 106.072C382.324 105.045 382.823 103.52 382.823 101.496V97.624C382.823 95.6 382.324 94.0893 381.327 93.092C380.33 92.0653 379.01 91.552 377.367 91.552C375.724 91.552 374.404 92.0653 373.407 93.092C372.41 94.0893 371.911 95.6 371.911 97.624V101.496C371.911 103.52 372.41 105.045 373.407 106.072C374.404 107.069 375.724 107.568 377.367 107.568ZM395.251 102.2L393.711 89.044V80.288H398.903V89.044L397.451 102.2H395.251ZM396.351 111.528C395.236 111.528 394.415 111.264 393.887 110.736C393.388 110.179 393.139 109.475 393.139 108.624V107.876C393.139 107.025 393.388 106.336 393.887 105.808C394.415 105.251 395.236 104.972 396.351 104.972C397.466 104.972 398.272 105.251 398.771 105.808C399.299 106.336 399.563 107.025 399.563 107.876V108.624C399.563 109.475 399.299 110.179 398.771 110.736C398.272 111.264 397.466 111.528 396.351 111.528Z" fill="#141514"/>
<rect width="53" height="53" transform="translate(0 207)" fill="#CBFF99"/>
<rect width="53" height="53" transform="translate(69 207)" fill="#CBFF99"/>
<rect width="53" height="53" transform="translate(138 207)" fill="#7CFC00"/>
<path d="M175.553 229.816C175.553 232.016 175.215 234.099 174.541 236.064C173.895 238 173.045 239.789 171.989 241.432C170.933 243.045 169.745 244.497 168.425 245.788C167.134 247.049 165.843 248.12 164.553 249H156.721C158.51 247.709 160.123 246.463 161.561 245.26C162.998 244.057 164.245 242.84 165.301 241.608C166.386 240.376 167.266 239.1 167.941 237.78C168.645 236.431 169.173 234.979 169.525 233.424L169.173 233.336C168.879 233.923 168.527 234.495 168.117 235.052C167.735 235.609 167.266 236.093 166.709 236.504C166.151 236.915 165.506 237.252 164.773 237.516C164.039 237.751 163.189 237.868 162.221 237.868C160.93 237.868 159.742 237.648 158.657 237.208C157.571 236.768 156.618 236.137 155.797 235.316C155.005 234.465 154.374 233.468 153.905 232.324C153.465 231.151 153.245 229.831 153.245 228.364C153.245 226.809 153.509 225.387 154.037 224.096C154.565 222.805 155.313 221.691 156.281 220.752C157.249 219.813 158.407 219.08 159.757 218.552C161.135 218.024 162.675 217.76 164.377 217.76C166.137 217.76 167.706 218.053 169.085 218.64C170.463 219.197 171.637 220.004 172.605 221.06C173.573 222.087 174.306 223.348 174.805 224.844C175.303 226.311 175.553 227.968 175.553 229.816ZM164.377 233.38C166.019 233.38 167.295 232.94 168.205 232.06C169.114 231.151 169.569 229.86 169.569 228.188V227.528C169.569 225.856 169.114 224.58 168.205 223.7C167.295 222.791 166.019 222.336 164.377 222.336C162.763 222.336 161.487 222.791 160.549 223.7C159.639 224.58 159.185 225.856 159.185 227.528V228.188C159.185 229.86 159.639 231.151 160.549 232.06C161.487 232.94 162.763 233.38 164.377 233.38Z" fill="#141514"/>
<rect width="260" height="53" transform="translate(207 207)" fill="#7CFC00"/>
<path d="M249.67 248V220.08H261.67C264.257 220.08 266.257 220.84 267.67 222.36C269.084 223.88 269.79 225.92 269.79 228.48C269.79 231.04 269.084 233.08 267.67 234.6C266.257 236.12 264.257 236.88 261.67 236.88H254.19V248H249.67ZM254.19 232.92H261.39C262.537 232.92 263.43 232.627 264.07 232.04C264.71 231.427 265.03 230.56 265.03 229.44V227.52C265.03 226.4 264.71 225.547 264.07 224.96C263.43 224.347 262.537 224.04 261.39 224.04H254.19V232.92ZM279.269 248H274.749V220.08H286.789C289.295 220.08 291.269 220.84 292.709 222.36C294.149 223.853 294.869 225.893 294.869 228.48C294.869 230.48 294.402 232.147 293.469 233.48C292.562 234.787 291.215 235.707 289.429 236.24L295.469 248H290.429L284.829 236.72H279.269V248ZM286.469 232.92C287.615 232.92 288.509 232.627 289.149 232.04C289.789 231.427 290.109 230.56 290.109 229.44V227.52C290.109 226.4 289.789 225.547 289.149 224.96C288.509 224.347 287.615 224.04 286.469 224.04H279.269V232.92H286.469ZM311.369 248.48C309.556 248.48 307.902 248.173 306.409 247.56C304.942 246.92 303.676 246 302.609 244.8C301.569 243.573 300.756 242.067 300.169 240.28C299.609 238.467 299.329 236.387 299.329 234.04C299.329 231.693 299.609 229.627 300.169 227.84C300.756 226.027 301.569 224.52 302.609 223.32C303.676 222.093 304.942 221.173 306.409 220.56C307.902 219.92 309.556 219.6 311.369 219.6C313.182 219.6 314.822 219.92 316.289 220.56C317.782 221.173 319.049 222.093 320.089 223.32C321.156 224.52 321.969 226.027 322.529 227.84C323.116 229.627 323.409 231.693 323.409 234.04C323.409 236.387 323.116 238.467 322.529 240.28C321.969 242.067 321.156 243.573 320.089 244.8C319.049 246 317.782 246.92 316.289 247.56C314.822 248.173 313.182 248.48 311.369 248.48ZM311.369 244.44C312.436 244.44 313.409 244.253 314.289 243.88C315.196 243.507 315.956 242.973 316.569 242.28C317.209 241.56 317.702 240.693 318.049 239.68C318.396 238.667 318.569 237.52 318.569 236.24V231.84C318.569 230.56 318.396 229.413 318.049 228.4C317.702 227.387 317.209 226.533 316.569 225.84C315.956 225.12 315.196 224.573 314.289 224.2C313.409 223.827 312.436 223.64 311.369 223.64C310.276 223.64 309.289 223.827 308.409 224.2C307.529 224.573 306.769 225.12 306.129 225.84C305.516 226.533 305.036 227.387 304.689 228.4C304.342 229.413 304.169 230.56 304.169 231.84V236.24C304.169 237.52 304.342 238.667 304.689 239.68C305.036 240.693 305.516 241.56 306.129 242.28C306.769 242.973 307.529 243.507 308.409 243.88C309.289 244.253 310.276 244.44 311.369 244.44ZM329.045 220.08H338.925C340.712 220.08 342.325 220.373 343.765 220.96C345.232 221.547 346.472 222.427 347.485 223.6C348.525 224.747 349.325 226.2 349.885 227.96C350.445 229.693 350.725 231.72 350.725 234.04C350.725 236.36 350.445 238.4 349.885 240.16C349.325 241.893 348.525 243.347 347.485 244.52C346.472 245.667 345.232 246.533 343.765 247.12C342.325 247.707 340.712 248 338.925 248H329.045V220.08ZM338.925 244C341.005 244 342.685 243.347 343.965 242.04C345.245 240.733 345.885 238.813 345.885 236.28V231.8C345.885 229.267 345.245 227.347 343.965 226.04C342.685 224.733 341.005 224.08 338.925 224.08H333.565V244H338.925ZM360.63 220.08V237.28C360.63 239.653 361.083 241.44 361.99 242.64C362.897 243.84 364.443 244.44 366.63 244.44C368.817 244.44 370.363 243.84 371.27 242.64C372.177 241.44 372.63 239.653 372.63 237.28V220.08H377.07V236.56C377.07 238.613 376.883 240.387 376.51 241.88C376.137 243.373 375.537 244.613 374.71 245.6C373.883 246.56 372.803 247.28 371.47 247.76C370.163 248.24 368.55 248.48 366.63 248.48C364.71 248.48 363.083 248.24 361.75 247.76C360.443 247.28 359.377 246.56 358.55 245.6C357.723 244.613 357.123 243.373 356.75 241.88C356.377 240.387 356.19 238.613 356.19 236.56V220.08H360.63ZM394.252 248.48C390.599 248.48 387.732 247.253 385.652 244.8C383.572 242.32 382.532 238.733 382.532 234.04C382.532 231.693 382.799 229.627 383.332 227.84C383.865 226.053 384.639 224.547 385.652 223.32C386.665 222.093 387.892 221.173 389.332 220.56C390.799 219.92 392.439 219.6 394.252 219.6C396.679 219.6 398.705 220.133 400.332 221.2C401.985 222.267 403.279 223.84 404.212 225.92L400.412 228C399.932 226.667 399.185 225.613 398.172 224.84C397.185 224.04 395.879 223.64 394.252 223.64C392.092 223.64 390.399 224.373 389.172 225.84C387.945 227.307 387.332 229.333 387.332 231.92V236.16C387.332 238.747 387.945 240.773 389.172 242.24C390.399 243.707 392.092 244.44 394.252 244.44C395.932 244.44 397.292 244.013 398.332 243.16C399.399 242.28 400.185 241.16 400.692 239.8L404.332 242C403.399 244.027 402.092 245.613 400.412 246.76C398.732 247.907 396.679 248.48 394.252 248.48ZM419.484 224.08V248H414.964V224.08H406.644V220.08H427.804V224.08H419.484Z" fill="#141514"/>
<rect width="53" height="53" transform="translate(69 276)" fill="#CBFF99"/>
<rect width="53" height="53" transform="translate(138 276)" fill="#CBFF99"/>
<rect width="260" height="53" transform="translate(207 276)" fill="#7CFC00"/>
<path d="M243.577 317V289.08H261.017V293.08H248.097V300.84H259.577V304.84H248.097V317H243.577ZM266.389 317V289.08H284.269V293.08H270.909V300.84H283.029V304.84H270.909V313H284.269V317H266.389ZM307.54 317L305.02 309.44H294.58L292.14 317H287.54L297.06 289.08H302.74L312.26 317H307.54ZM299.9 293.24H299.7L295.66 305.56H303.9L299.9 293.24ZM324.327 293.08V317H319.807V293.08H311.487V289.08H332.647V293.08H324.327ZM341.333 289.08V306.28C341.333 308.653 341.787 310.44 342.693 311.64C343.6 312.84 345.147 313.44 347.333 313.44C349.52 313.44 351.067 312.84 351.973 311.64C352.88 310.44 353.333 308.653 353.333 306.28V289.08H357.773V305.56C357.773 307.613 357.587 309.387 357.213 310.88C356.84 312.373 356.24 313.613 355.413 314.6C354.587 315.56 353.507 316.28 352.173 316.76C350.867 317.24 349.253 317.48 347.333 317.48C345.413 317.48 343.787 317.24 342.453 316.76C341.147 316.28 340.08 315.56 339.253 314.6C338.427 313.613 337.827 312.373 337.453 310.88C337.08 309.387 336.893 307.613 336.893 305.56V289.08H341.333ZM368.995 317H364.475V289.08H376.515C379.022 289.08 380.995 289.84 382.435 291.36C383.875 292.853 384.595 294.893 384.595 297.48C384.595 299.48 384.128 301.147 383.195 302.48C382.288 303.787 380.942 304.707 379.155 305.24L385.195 317H380.155L374.555 305.72H368.995V317ZM376.195 301.92C377.342 301.92 378.235 301.627 378.875 301.04C379.515 300.427 379.835 299.56 379.835 298.44V296.52C379.835 295.4 379.515 294.547 378.875 293.96C378.235 293.347 377.342 293.04 376.195 293.04H368.995V301.92H376.195ZM390.686 317V289.08H408.566V293.08H395.206V300.84H407.326V304.84H395.206V313H408.566V317H390.686ZM422.757 317.48C420.41 317.48 418.41 317.053 416.757 316.2C415.13 315.347 413.73 314.2 412.557 312.76L415.677 309.84C416.664 311.04 417.744 311.947 418.917 312.56C420.117 313.173 421.477 313.48 422.997 313.48C424.784 313.48 426.13 313.08 427.037 312.28C427.944 311.48 428.397 310.4 428.397 309.04C428.397 307.947 428.077 307.08 427.437 306.44C426.797 305.8 425.664 305.32 424.037 305L421.557 304.56C418.837 304.053 416.797 303.16 415.437 301.88C414.077 300.6 413.397 298.84 413.397 296.6C413.397 295.373 413.624 294.267 414.077 293.28C414.557 292.267 415.21 291.427 416.037 290.76C416.89 290.067 417.917 289.533 419.117 289.16C420.317 288.787 421.664 288.6 423.157 288.6C425.264 288.6 427.09 288.973 428.637 289.72C430.184 290.44 431.504 291.493 432.597 292.88L429.437 295.68C428.717 294.747 427.837 294 426.797 293.44C425.757 292.88 424.464 292.6 422.917 292.6C421.317 292.6 420.077 292.92 419.197 293.56C418.317 294.2 417.877 295.133 417.877 296.36C417.877 297.533 418.237 298.413 418.957 299C419.677 299.56 420.797 299.987 422.317 300.28L424.797 300.8C427.597 301.333 429.637 302.24 430.917 303.52C432.224 304.8 432.877 306.56 432.877 308.8C432.877 310.107 432.65 311.293 432.197 312.36C431.744 313.427 431.077 314.347 430.197 315.12C429.344 315.867 428.29 316.453 427.037 316.88C425.784 317.28 424.357 317.48 422.757 317.48Z" fill="#141514"/>
<rect width="53" height="53" transform="translate(138 414)" fill="#CBFF99"/>
<rect width="122" height="53" transform="translate(207 414)" fill="#7CFC00"/>
<path d="M239.954 437.696C241.714 437.696 243.004 437.344 243.826 436.64C244.676 435.907 245.102 434.983 245.102 433.868V433.56C245.102 432.299 244.691 431.316 243.87 430.612C243.078 429.879 241.978 429.512 240.57 429.512C239.22 429.512 238.018 429.835 236.962 430.48C235.935 431.125 235.04 432.035 234.278 433.208L230.582 429.864C231.11 429.16 231.682 428.5 232.298 427.884C232.943 427.239 233.676 426.696 234.498 426.256C235.319 425.787 236.243 425.42 237.27 425.156C238.296 424.892 239.455 424.76 240.746 424.76C242.3 424.76 243.708 424.951 244.97 425.332C246.26 425.684 247.36 426.212 248.27 426.916C249.208 427.62 249.927 428.471 250.426 429.468C250.924 430.436 251.174 431.536 251.174 432.768C251.174 433.765 251.012 434.66 250.69 435.452C250.396 436.244 249.971 436.933 249.414 437.52C248.886 438.107 248.255 438.591 247.522 438.972C246.818 439.324 246.07 439.588 245.278 439.764V440.028C246.158 440.204 246.994 440.483 247.786 440.864C248.578 441.245 249.252 441.759 249.81 442.404C250.396 443.02 250.851 443.753 251.174 444.604C251.526 445.455 251.702 446.423 251.702 447.508C251.702 448.857 251.423 450.089 250.866 451.204C250.338 452.319 249.575 453.272 248.578 454.064C247.58 454.856 246.392 455.472 245.014 455.912C243.635 456.323 242.095 456.528 240.394 456.528C238.898 456.528 237.578 456.367 236.434 456.044C235.29 455.751 234.278 455.34 233.398 454.812C232.547 454.284 231.799 453.683 231.154 453.008C230.508 452.304 229.951 451.571 229.482 450.808L233.75 447.552C234.102 448.168 234.483 448.74 234.894 449.268C235.304 449.767 235.774 450.207 236.302 450.588C236.83 450.969 237.431 451.263 238.106 451.468C238.78 451.673 239.543 451.776 240.394 451.776C242.095 451.776 243.4 451.365 244.31 450.544C245.219 449.723 245.674 448.593 245.674 447.156V446.848C245.674 445.44 245.175 444.369 244.178 443.636C243.21 442.903 241.802 442.536 239.954 442.536H236.918V437.696H239.954ZM268.009 456.528C266.043 456.528 264.342 456.176 262.905 455.472C261.467 454.739 260.279 453.697 259.341 452.348C258.402 450.999 257.698 449.341 257.229 447.376C256.789 445.411 256.569 443.167 256.569 440.644C256.569 438.151 256.789 435.921 257.229 433.956C257.698 431.961 258.402 430.289 259.341 428.94C260.279 427.591 261.467 426.564 262.905 425.86C264.342 425.127 266.043 424.76 268.009 424.76C271.91 424.76 274.785 426.153 276.633 428.94C278.51 431.727 279.449 435.628 279.449 440.644C279.449 445.66 278.51 449.561 276.633 452.348C274.785 455.135 271.91 456.528 268.009 456.528ZM268.009 451.644C269.974 451.644 271.338 450.911 272.101 449.444C272.893 447.948 273.289 445.939 273.289 443.416V437.872C273.289 435.349 272.893 433.355 272.101 431.888C271.338 430.392 269.974 429.644 268.009 429.644C266.043 429.644 264.665 430.392 263.873 431.888C263.11 433.355 262.729 435.349 262.729 437.872V443.416C262.729 445.939 263.11 447.948 263.873 449.444C264.665 450.911 266.043 451.644 268.009 451.644ZM291.927 453.228V444.824H284.139V440.292H291.927V431.844H296.855V440.292H304.643V444.824H296.855V453.228H291.927Z" fill="#141514"/>
<rect width="122" height="53" transform="translate(345 414)" fill="#7CFC00"/>
<path d="M362.095 427.08V444.28C362.095 446.653 362.548 448.44 363.455 449.64C364.362 450.84 365.908 451.44 368.095 451.44C370.282 451.44 371.828 450.84 372.735 449.64C373.642 448.44 374.095 446.653 374.095 444.28V427.08H378.535V443.56C378.535 445.613 378.348 447.387 377.975 448.88C377.602 450.373 377.002 451.613 376.175 452.6C375.348 453.56 374.268 454.28 372.935 454.76C371.628 455.24 370.015 455.48 368.095 455.48C366.175 455.48 364.548 455.24 363.215 454.76C361.908 454.28 360.842 453.56 360.015 452.6C359.188 451.613 358.588 450.373 358.215 448.88C357.842 447.387 357.655 445.613 357.655 443.56V427.08H362.095ZM393.597 455.48C391.25 455.48 389.25 455.053 387.597 454.2C385.97 453.347 384.57 452.2 383.397 450.76L386.517 447.84C387.504 449.04 388.584 449.947 389.757 450.56C390.957 451.173 392.317 451.48 393.837 451.48C395.624 451.48 396.97 451.08 397.877 450.28C398.784 449.48 399.237 448.4 399.237 447.04C399.237 445.947 398.917 445.08 398.277 444.44C397.637 443.8 396.504 443.32 394.877 443L392.397 442.56C389.677 442.053 387.637 441.16 386.277 439.88C384.917 438.6 384.237 436.84 384.237 434.6C384.237 433.373 384.464 432.267 384.917 431.28C385.397 430.267 386.05 429.427 386.877 428.76C387.73 428.067 388.757 427.533 389.957 427.16C391.157 426.787 392.504 426.6 393.997 426.6C396.104 426.6 397.93 426.973 399.477 427.72C401.024 428.44 402.344 429.493 403.437 430.88L400.277 433.68C399.557 432.747 398.677 432 397.637 431.44C396.597 430.88 395.304 430.6 393.757 430.6C392.157 430.6 390.917 430.92 390.037 431.56C389.157 432.2 388.717 433.133 388.717 434.36C388.717 435.533 389.077 436.413 389.797 437C390.517 437.56 391.637 437.987 393.157 438.28L395.637 438.8C398.437 439.333 400.477 440.24 401.757 441.52C403.064 442.8 403.717 444.56 403.717 446.8C403.717 448.107 403.49 449.293 403.037 450.36C402.584 451.427 401.917 452.347 401.037 453.12C400.184 453.867 399.13 454.453 397.877 454.88C396.624 455.28 395.197 455.48 393.597 455.48ZM409.143 455V427.08H427.023V431.08H413.663V438.84H425.783V442.84H413.663V451H427.023V455H409.143ZM437.374 455H432.854V427.08H444.894C447.401 427.08 449.374 427.84 450.814 429.36C452.254 430.853 452.974 432.893 452.974 435.48C452.974 437.48 452.507 439.147 451.574 440.48C450.667 441.787 449.321 442.707 447.534 443.24L453.574 455H448.534L442.934 443.72H437.374V455ZM444.574 439.92C445.721 439.92 446.614 439.627 447.254 439.04C447.894 438.427 448.214 437.56 448.214 436.44V434.52C448.214 433.4 447.894 432.547 447.254 431.96C446.614 431.347 445.721 431.04 444.574 431.04H437.374V439.92H444.574Z" fill="#141514"/>
<rect width="53" height="53" transform="translate(0 483)" fill="#CBFF99"/>
<rect width="53" height="53" transform="translate(69 483)" fill="#CBFF99"/>
<rect width="329" height="53" transform="translate(138 483)" fill="#7CFC00"/>
<path d="M183.482 524V520.32H187.282V499.76H183.482V496.08H195.642V499.76H191.802V520.32H195.642V524H183.482ZM208.843 508.56L205.763 502.64H205.643V524H201.323V496.08H206.363L215.483 511.52L218.563 517.44H218.683V496.08H223.003V524H217.963L208.843 508.56ZM240.238 500.08V524H235.718V500.08H227.398V496.08H248.558V500.08H240.238ZM252.963 524V496.08H270.843V500.08H257.483V507.84H269.603V511.84H257.483V520H270.843V524H252.963ZM281.194 524H276.674V496.08H288.714C291.221 496.08 293.194 496.84 294.634 498.36C296.074 499.853 296.794 501.893 296.794 504.48C296.794 506.48 296.328 508.147 295.394 509.48C294.488 510.787 293.141 511.707 291.354 512.24L297.394 524H292.354L286.754 512.72H281.194V524ZM288.394 508.92C289.541 508.92 290.434 508.627 291.074 508.04C291.714 507.427 292.034 506.56 292.034 505.44V503.52C292.034 502.4 291.714 501.547 291.074 500.96C290.434 500.347 289.541 500.04 288.394 500.04H281.194V508.92H288.394ZM308.232 524L299.072 496.08H303.752L308.192 509.88L310.872 519.6H311.032L313.752 509.88L318.192 496.08H322.752L313.472 524H308.232ZM325.709 524V520.32H329.509V499.76H325.709V496.08H337.869V499.76H334.029V520.32H337.869V524H325.709ZM343.549 524V496.08H361.429V500.08H348.069V507.84H360.189V511.84H348.069V520H361.429V524H343.549ZM371.38 524L364.78 496.08H369.38L372.22 509.52L374.18 518.8H374.3L376.54 509.52L379.86 496.08H384.9L388.18 509.52L390.38 518.76H390.5L392.54 509.52L395.46 496.08H399.9L393.02 524H387.94L384.38 509.56L382.3 501.08H382.22L380.1 509.56L376.46 524H371.38ZM412.652 524.48C410.305 524.48 408.305 524.053 406.652 523.2C405.025 522.347 403.625 521.2 402.452 519.76L405.572 516.84C406.558 518.04 407.638 518.947 408.812 519.56C410.012 520.173 411.372 520.48 412.892 520.48C414.678 520.48 416.025 520.08 416.932 519.28C417.838 518.48 418.292 517.4 418.292 516.04C418.292 514.947 417.972 514.08 417.332 513.44C416.692 512.8 415.558 512.32 413.932 512L411.452 511.56C408.732 511.053 406.692 510.16 405.332 508.88C403.972 507.6 403.292 505.84 403.292 503.6C403.292 502.373 403.518 501.267 403.972 500.28C404.452 499.267 405.105 498.427 405.932 497.76C406.785 497.067 407.812 496.533 409.012 496.16C410.212 495.787 411.558 495.6 413.052 495.6C415.158 495.6 416.985 495.973 418.532 496.72C420.078 497.44 421.398 498.493 422.492 499.88L419.332 502.68C418.612 501.747 417.732 501 416.692 500.44C415.652 499.88 414.358 499.6 412.812 499.6C411.212 499.6 409.972 499.92 409.092 500.56C408.212 501.2 407.772 502.133 407.772 503.36C407.772 504.533 408.132 505.413 408.852 506C409.572 506.56 410.692 506.987 412.212 507.28L414.692 507.8C417.492 508.333 419.532 509.24 420.812 510.52C422.118 511.8 422.772 513.56 422.772 515.8C422.772 517.107 422.545 518.293 422.092 519.36C421.638 520.427 420.972 521.347 420.092 522.12C419.238 522.867 418.185 523.453 416.932 523.88C415.678 524.28 414.252 524.48 412.652 524.48Z" fill="#141514"/>
</g>
<defs>
<clipPath id="clip0_1528_130">
<rect width="467" height="536" fill="white"/>
</clipPath>
</defs>
</svg>
