<svg width="400" height="600" viewBox="0 0 400 600" fill="none" xmlns="http://www.w3.org/2000/svg">
<g clip-path="url(#clip0_1528_112)">
<rect y="32" width="106" height="53" rx="2" fill="#7CFC00"/>
<path d="M63.1126 74H42.2566V69.248L52.0686 60.492C53.6233 59.084 54.8113 57.7493 55.6326 56.488C56.4833 55.1973 56.9086 53.848 56.9086 52.44V51.868C56.9086 50.372 56.4539 49.1987 55.5446 48.348C54.6646 47.4973 53.4619 47.072 51.9366 47.072C51.0859 47.072 50.3379 47.204 49.6926 47.468C49.0766 47.7027 48.5339 48.04 48.0646 48.48C47.5953 48.92 47.1993 49.4333 46.8766 50.02C46.5833 50.6067 46.3486 51.2373 46.1726 51.912L41.8166 50.24C42.1393 49.272 42.5793 48.348 43.1366 47.468C43.6939 46.5587 44.3979 45.752 45.2486 45.048C46.0993 44.344 47.0966 43.7867 48.2406 43.376C49.4139 42.9653 50.7779 42.76 52.3326 42.76C53.8873 42.76 55.2806 42.9947 56.5126 43.464C57.7446 43.904 58.7713 44.5347 59.5926 45.356C60.4433 46.148 61.0886 47.1013 61.5286 48.216C61.9686 49.3307 62.1886 50.548 62.1886 51.868C62.1886 53.1 61.9979 54.244 61.6166 55.3C61.2353 56.356 60.7073 57.3533 60.0326 58.292C59.3579 59.2307 58.5659 60.1253 57.6566 60.976C56.7766 61.8267 55.8379 62.692 54.8406 63.572L47.6246 69.776H63.1126V74Z" fill="#141514"/>
<rect x="122" y="32" width="278" height="53" rx="2" fill="#7CFC00"/>
<path d="M161.932 73V45.08H173.932C176.519 45.08 178.519 45.84 179.932 47.36C181.346 48.88 182.052 50.92 182.052 53.48C182.052 56.04 181.346 58.08 179.932 59.6C178.519 61.12 176.519 61.88 173.932 61.88H166.452V73H161.932ZM166.452 57.92H173.652C174.799 57.92 175.692 57.6267 176.332 57.04C176.972 56.4267 177.292 55.56 177.292 54.44V52.52C177.292 51.4 176.972 50.5467 176.332 49.96C175.692 49.3467 174.799 49.04 173.652 49.04H166.452V57.92ZM191.53 73H187.01V45.08H199.05C201.557 45.08 203.53 45.84 204.97 47.36C206.41 48.8533 207.13 50.8933 207.13 53.48C207.13 55.48 206.664 57.1467 205.73 58.48C204.824 59.7867 203.477 60.7067 201.69 61.24L207.73 73H202.69L197.09 61.72H191.53V73ZM198.73 57.92C199.877 57.92 200.77 57.6267 201.41 57.04C202.05 56.4267 202.37 55.56 202.37 54.44V52.52C202.37 51.4 202.05 50.5467 201.41 49.96C200.77 49.3467 199.877 49.04 198.73 49.04H191.53V57.92H198.73ZM223.631 73.48C221.817 73.48 220.164 73.1733 218.671 72.56C217.204 71.92 215.937 71 214.871 69.8C213.831 68.5733 213.017 67.0667 212.431 65.28C211.871 63.4667 211.591 61.3867 211.591 59.04C211.591 56.6933 211.871 54.6267 212.431 52.84C213.017 51.0267 213.831 49.52 214.871 48.32C215.937 47.0933 217.204 46.1733 218.671 45.56C220.164 44.92 221.817 44.6 223.631 44.6C225.444 44.6 227.084 44.92 228.551 45.56C230.044 46.1733 231.311 47.0933 232.351 48.32C233.417 49.52 234.231 51.0267 234.791 52.84C235.377 54.6267 235.671 56.6933 235.671 59.04C235.671 61.3867 235.377 63.4667 234.791 65.28C234.231 67.0667 233.417 68.5733 232.351 69.8C231.311 71 230.044 71.92 228.551 72.56C227.084 73.1733 225.444 73.48 223.631 73.48ZM223.631 69.44C224.697 69.44 225.671 69.2533 226.551 68.88C227.457 68.5067 228.217 67.9733 228.831 67.28C229.471 66.56 229.964 65.6933 230.311 64.68C230.657 63.6667 230.831 62.52 230.831 61.24V56.84C230.831 55.56 230.657 54.4133 230.311 53.4C229.964 52.3867 229.471 51.5333 228.831 50.84C228.217 50.12 227.457 49.5733 226.551 49.2C225.671 48.8267 224.697 48.64 223.631 48.64C222.537 48.64 221.551 48.8267 220.671 49.2C219.791 49.5733 219.031 50.12 218.391 50.84C217.777 51.5333 217.297 52.3867 216.951 53.4C216.604 54.4133 216.431 55.56 216.431 56.84V61.24C216.431 62.52 216.604 63.6667 216.951 64.68C217.297 65.6933 217.777 66.56 218.391 67.28C219.031 67.9733 219.791 68.5067 220.671 68.88C221.551 69.2533 222.537 69.44 223.631 69.44ZM241.307 45.08H251.187C252.974 45.08 254.587 45.3733 256.027 45.96C257.494 46.5467 258.734 47.4267 259.747 48.6C260.787 49.7467 261.587 51.2 262.147 52.96C262.707 54.6933 262.987 56.72 262.987 59.04C262.987 61.36 262.707 63.4 262.147 65.16C261.587 66.8933 260.787 68.3467 259.747 69.52C258.734 70.6667 257.494 71.5333 256.027 72.12C254.587 72.7067 252.974 73 251.187 73H241.307V45.08ZM251.187 69C253.267 69 254.947 68.3467 256.227 67.04C257.507 65.7333 258.147 63.8133 258.147 61.28V56.8C258.147 54.2667 257.507 52.3467 256.227 51.04C254.947 49.7333 253.267 49.08 251.187 49.08H245.827V69H251.187ZM272.892 45.08V62.28C272.892 64.6533 273.345 66.44 274.252 67.64C275.159 68.84 276.705 69.44 278.892 69.44C281.079 69.44 282.625 68.84 283.532 67.64C284.439 66.44 284.892 64.6533 284.892 62.28V45.08H289.332V61.56C289.332 63.6133 289.145 65.3867 288.772 66.88C288.399 68.3733 287.799 69.6133 286.972 70.6C286.145 71.56 285.065 72.28 283.732 72.76C282.425 73.24 280.812 73.48 278.892 73.48C276.972 73.48 275.345 73.24 274.012 72.76C272.705 72.28 271.639 71.56 270.812 70.6C269.985 69.6133 269.385 68.3733 269.012 66.88C268.639 65.3867 268.452 63.6133 268.452 61.56V45.08H272.892ZM306.514 73.48C302.86 73.48 299.994 72.2533 297.914 69.8C295.834 67.32 294.794 63.7333 294.794 59.04C294.794 56.6933 295.06 54.6267 295.594 52.84C296.127 51.0533 296.9 49.5467 297.914 48.32C298.927 47.0933 300.154 46.1733 301.594 45.56C303.06 44.92 304.7 44.6 306.514 44.6C308.94 44.6 310.967 45.1333 312.594 46.2C314.247 47.2667 315.54 48.84 316.474 50.92L312.674 53C312.194 51.6667 311.447 50.6133 310.434 49.84C309.447 49.04 308.14 48.64 306.514 48.64C304.354 48.64 302.66 49.3733 301.434 50.84C300.207 52.3067 299.594 54.3333 299.594 56.92V61.16C299.594 63.7467 300.207 65.7733 301.434 67.24C302.66 68.7067 304.354 69.44 306.514 69.44C308.194 69.44 309.554 69.0133 310.594 68.16C311.66 67.28 312.447 66.16 312.954 64.8L316.594 67C315.66 69.0267 314.354 70.6133 312.674 71.76C310.994 72.9067 308.94 73.48 306.514 73.48ZM331.745 49.08V73H327.225V49.08H318.905V45.08H340.065V49.08H331.745ZM352.402 73.48C350.055 73.48 348.055 73.0533 346.402 72.2C344.775 71.3467 343.375 70.2 342.202 68.76L345.322 65.84C346.308 67.04 347.388 67.9467 348.562 68.56C349.762 69.1733 351.122 69.48 352.642 69.48C354.428 69.48 355.775 69.08 356.682 68.28C357.588 67.48 358.042 66.4 358.042 65.04C358.042 63.9467 357.722 63.08 357.082 62.44C356.442 61.8 355.308 61.32 353.682 61L351.202 60.56C348.482 60.0533 346.442 59.16 345.082 57.88C343.722 56.6 343.042 54.84 343.042 52.6C343.042 51.3733 343.268 50.2667 343.722 49.28C344.202 48.2667 344.855 47.4267 345.682 46.76C346.535 46.0667 347.562 45.5333 348.762 45.16C349.962 44.7867 351.308 44.6 352.802 44.6C354.908 44.6 356.735 44.9733 358.282 45.72C359.828 46.44 361.148 47.4933 362.242 48.88L359.082 51.68C358.362 50.7467 357.482 50 356.442 49.44C355.402 48.88 354.108 48.6 352.562 48.6C350.962 48.6 349.722 48.92 348.842 49.56C347.962 50.2 347.522 51.1333 347.522 52.36C347.522 53.5333 347.882 54.4133 348.602 55C349.322 55.56 350.442 55.9867 351.962 56.28L354.442 56.8C357.242 57.3333 359.282 58.24 360.562 59.52C361.868 60.8 362.522 62.56 362.522 64.8C362.522 66.1067 362.295 67.2933 361.842 68.36C361.388 69.4267 360.722 70.3467 359.842 71.12C358.988 71.8667 357.935 72.4533 356.682 72.88C355.428 73.28 354.002 73.48 352.402 73.48Z" fill="#141514"/>
<rect y="101" width="53" height="53" rx="2" fill="#CBFF99"/>
<rect x="69" y="101" width="147" height="53" rx="2" fill="#7CFC00"/>
<path d="M91.5963 142V114.08H109.036V118.08H96.1163V125.84H107.596V129.84H96.1163V142H91.5963ZM118.929 142H114.409V114.08H126.449C128.955 114.08 130.929 114.84 132.369 116.36C133.809 117.853 134.529 119.893 134.529 122.48C134.529 124.48 134.062 126.147 133.129 127.48C132.222 128.787 130.875 129.707 129.089 130.24L135.129 142H130.089L124.489 130.72H118.929V142ZM126.129 126.92C127.275 126.92 128.169 126.627 128.809 126.04C129.449 125.427 129.769 124.56 129.769 123.44V121.52C129.769 120.4 129.449 119.547 128.809 118.96C128.169 118.347 127.275 118.04 126.129 118.04H118.929V126.92H126.129ZM151.029 142.48C149.216 142.48 147.562 142.173 146.069 141.56C144.602 140.92 143.336 140 142.269 138.8C141.229 137.573 140.416 136.067 139.829 134.28C139.269 132.467 138.989 130.387 138.989 128.04C138.989 125.693 139.269 123.627 139.829 121.84C140.416 120.027 141.229 118.52 142.269 117.32C143.336 116.093 144.602 115.173 146.069 114.56C147.562 113.92 149.216 113.6 151.029 113.6C152.842 113.6 154.482 113.92 155.949 114.56C157.442 115.173 158.709 116.093 159.749 117.32C160.816 118.52 161.629 120.027 162.189 121.84C162.776 123.627 163.069 125.693 163.069 128.04C163.069 130.387 162.776 132.467 162.189 134.28C161.629 136.067 160.816 137.573 159.749 138.8C158.709 140 157.442 140.92 155.949 141.56C154.482 142.173 152.842 142.48 151.029 142.48ZM151.029 138.44C152.096 138.44 153.069 138.253 153.949 137.88C154.856 137.507 155.616 136.973 156.229 136.28C156.869 135.56 157.362 134.693 157.709 133.68C158.056 132.667 158.229 131.52 158.229 130.24V125.84C158.229 124.56 158.056 123.413 157.709 122.4C157.362 121.387 156.869 120.533 156.229 119.84C155.616 119.12 154.856 118.573 153.949 118.2C153.069 117.827 152.096 117.64 151.029 117.64C149.936 117.64 148.949 117.827 148.069 118.2C147.189 118.573 146.429 119.12 145.789 119.84C145.176 120.533 144.696 121.387 144.349 122.4C144.002 123.413 143.829 124.56 143.829 125.84V130.24C143.829 131.52 144.002 132.667 144.349 133.68C144.696 134.693 145.176 135.56 145.789 136.28C146.429 136.973 147.189 137.507 148.069 137.88C148.949 138.253 149.936 138.44 151.029 138.44ZM190.066 120.64H189.866L187.666 125.16L181.546 136.32L175.426 125.16L173.226 120.64H173.026V142H168.706V114.08H174.066L181.546 128.28H181.786L189.266 114.08H194.386V142H190.066V120.64Z" fill="#141514"/>
<rect x="232" y="101.248" width="168" height="52.5047" rx="2" fill="#7CFC00"/>
<path d="M288.476 143H265.728V138.556L282.404 116.688H266.608V112.288H287.992V116.732L271.316 138.6H288.476V143ZM302.289 143.528C300.646 143.528 299.18 143.249 297.889 142.692C296.598 142.135 295.498 141.343 294.589 140.316C293.68 139.26 292.976 137.999 292.477 136.532C292.008 135.036 291.773 133.379 291.773 131.56C291.773 129.741 292.008 128.099 292.477 126.632C292.976 125.136 293.68 123.875 294.589 122.848C295.498 121.792 296.598 120.985 297.889 120.428C299.18 119.871 300.646 119.592 302.289 119.592C303.961 119.592 305.428 119.885 306.689 120.472C307.98 121.059 309.05 121.88 309.901 122.936C310.752 123.963 311.382 125.165 311.793 126.544C312.233 127.923 312.453 129.404 312.453 130.988V132.792H296.745V133.54C296.745 135.3 297.258 136.752 298.285 137.896C299.341 139.011 300.837 139.568 302.773 139.568C304.181 139.568 305.369 139.26 306.337 138.644C307.305 138.028 308.126 137.192 308.801 136.136L311.617 138.908C310.766 140.316 309.534 141.445 307.921 142.296C306.308 143.117 304.43 143.528 302.289 143.528ZM302.289 123.332C301.468 123.332 300.705 123.479 300.001 123.772C299.326 124.065 298.74 124.476 298.241 125.004C297.772 125.532 297.405 126.163 297.141 126.896C296.877 127.629 296.745 128.436 296.745 129.316V129.624H307.393V129.184C307.393 127.424 306.938 126.016 306.029 124.96C305.12 123.875 303.873 123.332 302.289 123.332ZM317.762 143V120.12H322.558V124.52H322.778C323.101 123.347 323.775 122.32 324.802 121.44C325.829 120.56 327.251 120.12 329.07 120.12H330.346V124.74H328.454C326.547 124.74 325.081 125.048 324.054 125.664C323.057 126.28 322.558 127.189 322.558 128.392V143H317.762ZM343.367 143.528C341.783 143.528 340.331 143.249 339.011 142.692C337.72 142.135 336.62 141.343 335.711 140.316C334.802 139.26 334.098 137.999 333.599 136.532C333.1 135.036 332.851 133.379 332.851 131.56C332.851 129.741 333.1 128.099 333.599 126.632C334.098 125.136 334.802 123.875 335.711 122.848C336.62 121.792 337.72 120.985 339.011 120.428C340.331 119.871 341.783 119.592 343.367 119.592C344.951 119.592 346.388 119.871 347.679 120.428C348.999 120.985 350.114 121.792 351.023 122.848C351.932 123.875 352.636 125.136 353.135 126.632C353.634 128.099 353.883 129.741 353.883 131.56C353.883 133.379 353.634 135.036 353.135 136.532C352.636 137.999 351.932 139.26 351.023 140.316C350.114 141.343 348.999 142.135 347.679 142.692C346.388 143.249 344.951 143.528 343.367 143.528ZM343.367 139.568C345.01 139.568 346.33 139.069 347.327 138.072C348.324 137.045 348.823 135.52 348.823 133.496V129.624C348.823 127.6 348.324 126.089 347.327 125.092C346.33 124.065 345.01 123.552 343.367 123.552C341.724 123.552 340.404 124.065 339.407 125.092C338.41 126.089 337.911 127.6 337.911 129.624V133.496C337.911 135.52 338.41 137.045 339.407 138.072C340.404 139.069 341.724 139.568 343.367 139.568ZM361.251 134.2L359.711 121.044V112.288H364.903V121.044L363.451 134.2H361.251ZM362.351 143.528C361.236 143.528 360.415 143.264 359.887 142.736C359.388 142.179 359.139 141.475 359.139 140.624V139.876C359.139 139.025 359.388 138.336 359.887 137.808C360.415 137.251 361.236 136.972 362.351 136.972C363.466 136.972 364.272 137.251 364.771 137.808C365.299 138.336 365.563 139.025 365.563 139.876V140.624C365.563 141.475 365.299 142.179 364.771 142.736C364.272 143.264 363.466 143.528 362.351 143.528Z" fill="#141514"/>
<rect y="170" width="53" height="53" rx="2" fill="#E0FFC2"/>
<rect x="69" y="170" width="53" height="53" rx="2" fill="#E0FFC2"/>
<rect x="138" y="170" width="53" height="53" rx="2" fill="#E0FFC2"/>
<rect x="207" y="170" width="53" height="53" rx="2" fill="#E0FFC2"/>
<rect x="276" y="170" width="53" height="53" rx="2" fill="#E0FFC2"/>
<rect x="345" y="170" width="53" height="53" rx="2" fill="#E0FFC2"/>
<rect y="239" width="53" height="53" rx="2" fill="#7CFC00"/>
<rect x="69" y="239" width="53" height="53" rx="2" fill="#7CFC00"/>
<path d="M106.245 261.728C106.245 263.957 105.907 266.055 105.233 268.02C104.558 269.985 103.693 271.789 102.637 273.432C101.581 275.075 100.393 276.541 99.0726 277.832C97.7819 279.123 96.5059 280.179 95.2446 281H88.6446C90.3753 279.739 91.9299 278.521 93.3086 277.348C94.6873 276.175 95.8899 274.972 96.9166 273.74C97.9433 272.508 98.7939 271.203 99.4686 269.824C100.173 268.445 100.715 266.935 101.097 265.292L100.789 265.204C100.466 265.82 100.085 266.407 99.6446 266.964C99.2339 267.492 98.7353 267.961 98.1486 268.372C97.5913 268.783 96.9459 269.105 96.2126 269.34C95.4793 269.575 94.6286 269.692 93.6606 269.692C92.3699 269.692 91.1673 269.472 90.0526 269.032C88.9673 268.592 88.0139 267.961 87.1926 267.14C86.4006 266.289 85.7699 265.292 85.3006 264.148C84.8606 262.975 84.6406 261.655 84.6406 260.188C84.6406 258.663 84.8899 257.255 85.3886 255.964C85.9166 254.673 86.6499 253.573 87.5886 252.664C88.5273 251.755 89.6566 251.051 90.9766 250.552C92.2966 250.024 93.7779 249.76 95.4206 249.76C97.1219 249.76 98.6326 250.039 99.9526 250.596C101.302 251.153 102.431 251.96 103.341 253.016C104.279 254.043 104.998 255.289 105.497 256.756C105.995 258.223 106.245 259.88 106.245 261.728ZM95.4206 265.688C97.2099 265.688 98.6033 265.219 99.6006 264.28C100.598 263.312 101.097 261.904 101.097 260.056V259.44C101.097 257.592 100.598 256.199 99.6006 255.26C98.6033 254.292 97.2099 253.808 95.4206 253.808C93.6313 253.808 92.2379 254.292 91.2406 255.26C90.2433 256.199 89.7446 257.592 89.7446 259.44V260.056C89.7446 261.904 90.2433 263.312 91.2406 264.28C92.2379 265.219 93.6313 265.688 95.4206 265.688Z" fill="#141514"/>
<rect x="138" y="239" width="262" height="53" rx="2" fill="#7CFC00"/>
<path d="M181.67 280V252.08H193.67C196.257 252.08 198.257 252.84 199.67 254.36C201.084 255.88 201.79 257.92 201.79 260.48C201.79 263.04 201.084 265.08 199.67 266.6C198.257 268.12 196.257 268.88 193.67 268.88H186.19V280H181.67ZM186.19 264.92H193.39C194.537 264.92 195.43 264.627 196.07 264.04C196.71 263.427 197.03 262.56 197.03 261.44V259.52C197.03 258.4 196.71 257.547 196.07 256.96C195.43 256.347 194.537 256.04 193.39 256.04H186.19V264.92ZM211.269 280H206.749V252.08H218.789C221.295 252.08 223.269 252.84 224.709 254.36C226.149 255.853 226.869 257.893 226.869 260.48C226.869 262.48 226.402 264.147 225.469 265.48C224.562 266.787 223.215 267.707 221.429 268.24L227.469 280H222.429L216.829 268.72H211.269V280ZM218.469 264.92C219.615 264.92 220.509 264.627 221.149 264.04C221.789 263.427 222.109 262.56 222.109 261.44V259.52C222.109 258.4 221.789 257.547 221.149 256.96C220.509 256.347 219.615 256.04 218.469 256.04H211.269V264.92H218.469ZM243.369 280.48C241.556 280.48 239.902 280.173 238.409 279.56C236.942 278.92 235.676 278 234.609 276.8C233.569 275.573 232.756 274.067 232.169 272.28C231.609 270.467 231.329 268.387 231.329 266.04C231.329 263.693 231.609 261.627 232.169 259.84C232.756 258.027 233.569 256.52 234.609 255.32C235.676 254.093 236.942 253.173 238.409 252.56C239.902 251.92 241.556 251.6 243.369 251.6C245.182 251.6 246.822 251.92 248.289 252.56C249.782 253.173 251.049 254.093 252.089 255.32C253.156 256.52 253.969 258.027 254.529 259.84C255.116 261.627 255.409 263.693 255.409 266.04C255.409 268.387 255.116 270.467 254.529 272.28C253.969 274.067 253.156 275.573 252.089 276.8C251.049 278 249.782 278.92 248.289 279.56C246.822 280.173 245.182 280.48 243.369 280.48ZM243.369 276.44C244.436 276.44 245.409 276.253 246.289 275.88C247.196 275.507 247.956 274.973 248.569 274.28C249.209 273.56 249.702 272.693 250.049 271.68C250.396 270.667 250.569 269.52 250.569 268.24V263.84C250.569 262.56 250.396 261.413 250.049 260.4C249.702 259.387 249.209 258.533 248.569 257.84C247.956 257.12 247.196 256.573 246.289 256.2C245.409 255.827 244.436 255.64 243.369 255.64C242.276 255.64 241.289 255.827 240.409 256.2C239.529 256.573 238.769 257.12 238.129 257.84C237.516 258.533 237.036 259.387 236.689 260.4C236.342 261.413 236.169 262.56 236.169 263.84V268.24C236.169 269.52 236.342 270.667 236.689 271.68C237.036 272.693 237.516 273.56 238.129 274.28C238.769 274.973 239.529 275.507 240.409 275.88C241.289 276.253 242.276 276.44 243.369 276.44ZM261.045 252.08H270.925C272.712 252.08 274.325 252.373 275.765 252.96C277.232 253.547 278.472 254.427 279.485 255.6C280.525 256.747 281.325 258.2 281.885 259.96C282.445 261.693 282.725 263.72 282.725 266.04C282.725 268.36 282.445 270.4 281.885 272.16C281.325 273.893 280.525 275.347 279.485 276.52C278.472 277.667 277.232 278.533 275.765 279.12C274.325 279.707 272.712 280 270.925 280H261.045V252.08ZM270.925 276C273.005 276 274.685 275.347 275.965 274.04C277.245 272.733 277.885 270.813 277.885 268.28V263.8C277.885 261.267 277.245 259.347 275.965 258.04C274.685 256.733 273.005 256.08 270.925 256.08H265.565V276H270.925ZM292.63 252.08V269.28C292.63 271.653 293.083 273.44 293.99 274.64C294.897 275.84 296.443 276.44 298.63 276.44C300.817 276.44 302.363 275.84 303.27 274.64C304.177 273.44 304.63 271.653 304.63 269.28V252.08H309.07V268.56C309.07 270.613 308.883 272.387 308.51 273.88C308.137 275.373 307.537 276.613 306.71 277.6C305.883 278.56 304.803 279.28 303.47 279.76C302.163 280.24 300.55 280.48 298.63 280.48C296.71 280.48 295.083 280.24 293.75 279.76C292.443 279.28 291.377 278.56 290.55 277.6C289.723 276.613 289.123 275.373 288.75 273.88C288.377 272.387 288.19 270.613 288.19 268.56V252.08H292.63ZM326.252 280.48C322.599 280.48 319.732 279.253 317.652 276.8C315.572 274.32 314.532 270.733 314.532 266.04C314.532 263.693 314.799 261.627 315.332 259.84C315.865 258.053 316.639 256.547 317.652 255.32C318.665 254.093 319.892 253.173 321.332 252.56C322.799 251.92 324.439 251.6 326.252 251.6C328.679 251.6 330.705 252.133 332.332 253.2C333.985 254.267 335.279 255.84 336.212 257.92L332.412 260C331.932 258.667 331.185 257.613 330.172 256.84C329.185 256.04 327.879 255.64 326.252 255.64C324.092 255.64 322.399 256.373 321.172 257.84C319.945 259.307 319.332 261.333 319.332 263.92V268.16C319.332 270.747 319.945 272.773 321.172 274.24C322.399 275.707 324.092 276.44 326.252 276.44C327.932 276.44 329.292 276.013 330.332 275.16C331.399 274.28 332.185 273.16 332.692 271.8L336.332 274C335.399 276.027 334.092 277.613 332.412 278.76C330.732 279.907 328.679 280.48 326.252 280.48ZM351.484 256.08V280H346.964V256.08H338.644V252.08H359.804V256.08H351.484Z" fill="#141514"/>
<rect y="308" width="262" height="53" rx="2" fill="#7CFC00"/>
<path d="M37.5767 349V321.08H55.0167V325.08H42.0967V332.84H53.5767V336.84H42.0967V349H37.5767ZM60.3892 349V321.08H78.2692V325.08H64.9092V332.84H77.0292V336.84H64.9092V345H78.2692V349H60.3892ZM101.54 349L99.0202 341.44H88.5802L86.1402 349H81.5402L91.0602 321.08H96.7402L106.26 349H101.54ZM93.9002 325.24H93.7002L89.6602 337.56H97.9002L93.9002 325.24ZM118.327 325.08V349H113.807V325.08H105.487V321.08H126.647V325.08H118.327ZM135.333 321.08V338.28C135.333 340.653 135.787 342.44 136.693 343.64C137.6 344.84 139.147 345.44 141.333 345.44C143.52 345.44 145.067 344.84 145.973 343.64C146.88 342.44 147.333 340.653 147.333 338.28V321.08H151.773V337.56C151.773 339.613 151.587 341.387 151.213 342.88C150.84 344.373 150.24 345.613 149.413 346.6C148.587 347.56 147.507 348.28 146.173 348.76C144.867 349.24 143.253 349.48 141.333 349.48C139.413 349.48 137.787 349.24 136.453 348.76C135.147 348.28 134.08 347.56 133.253 346.6C132.427 345.613 131.827 344.373 131.453 342.88C131.08 341.387 130.893 339.613 130.893 337.56V321.08H135.333ZM162.995 349H158.475V321.08H170.515C173.022 321.08 174.995 321.84 176.435 323.36C177.875 324.853 178.595 326.893 178.595 329.48C178.595 331.48 178.128 333.147 177.195 334.48C176.288 335.787 174.942 336.707 173.155 337.24L179.195 349H174.155L168.555 337.72H162.995V349ZM170.195 333.92C171.342 333.92 172.235 333.627 172.875 333.04C173.515 332.427 173.835 331.56 173.835 330.44V328.52C173.835 327.4 173.515 326.547 172.875 325.96C172.235 325.347 171.342 325.04 170.195 325.04H162.995V333.92H170.195ZM184.686 349V321.08H202.566V325.08H189.206V332.84H201.326V336.84H189.206V345H202.566V349H184.686ZM216.757 349.48C214.41 349.48 212.41 349.053 210.757 348.2C209.13 347.347 207.73 346.2 206.557 344.76L209.677 341.84C210.664 343.04 211.744 343.947 212.917 344.56C214.117 345.173 215.477 345.48 216.997 345.48C218.784 345.48 220.13 345.08 221.037 344.28C221.944 343.48 222.397 342.4 222.397 341.04C222.397 339.947 222.077 339.08 221.437 338.44C220.797 337.8 219.664 337.32 218.037 337L215.557 336.56C212.837 336.053 210.797 335.16 209.437 333.88C208.077 332.6 207.397 330.84 207.397 328.6C207.397 327.373 207.624 326.267 208.077 325.28C208.557 324.267 209.21 323.427 210.037 322.76C210.89 322.067 211.917 321.533 213.117 321.16C214.317 320.787 215.664 320.6 217.157 320.6C219.264 320.6 221.09 320.973 222.637 321.72C224.184 322.44 225.504 323.493 226.597 324.88L223.437 327.68C222.717 326.747 221.837 326 220.797 325.44C219.757 324.88 218.464 324.6 216.917 324.6C215.317 324.6 214.077 324.92 213.197 325.56C212.317 326.2 211.877 327.133 211.877 328.36C211.877 329.533 212.237 330.413 212.957 331C213.677 331.56 214.797 331.987 216.317 332.28L218.797 332.8C221.597 333.333 223.637 334.24 224.917 335.52C226.224 336.8 226.877 338.56 226.877 340.8C226.877 342.107 226.65 343.293 226.197 344.36C225.744 345.427 225.077 346.347 224.197 347.12C223.344 347.867 222.29 348.453 221.037 348.88C219.784 349.28 218.357 349.48 216.757 349.48Z" fill="#141514"/>
<rect width="122" height="53" transform="translate(278 308)" fill="#7CFC00"/>
<rect x="278" y="308" width="53" height="53" rx="2" fill="#7CFC00"/>
<rect x="347" y="308" width="53" height="53" rx="2" fill="#7CFC00"/>
<rect y="377" width="53" height="53" rx="2" fill="#E0FFC2"/>
<rect x="69" y="377" width="53" height="53" rx="2" fill="#E0FFC2"/>
<rect x="138" y="377" width="53" height="53" rx="2" fill="#E0FFC2"/>
<rect x="207" y="377" width="53" height="53" rx="2" fill="#E0FFC2"/>
<rect x="276" y="377" width="53" height="53" rx="2" fill="#E0FFC2"/>
<rect x="345" y="377" width="53" height="53" rx="2" fill="#E0FFC2"/>
<rect y="446" width="53" height="53" rx="2" fill="#7CFC00"/>
<rect x="69" y="446" width="157.5" height="53" rx="2" fill="#7CFC00"/>
<path d="M119.954 469.916C121.86 469.916 123.268 469.52 124.178 468.728C125.087 467.907 125.542 466.865 125.542 465.604V465.296C125.542 463.888 125.102 462.817 124.222 462.084C123.342 461.321 122.154 460.94 120.658 460.94C119.191 460.94 117.944 461.277 116.918 461.952C115.891 462.597 115.026 463.507 114.322 464.68L111.022 461.82C111.491 461.145 112.019 460.5 112.606 459.884C113.192 459.268 113.882 458.74 114.674 458.3C115.466 457.831 116.36 457.464 117.358 457.2C118.355 456.907 119.499 456.76 120.79 456.76C122.227 456.76 123.562 456.936 124.794 457.288C126.026 457.64 127.082 458.168 127.962 458.872C128.842 459.547 129.531 460.383 130.03 461.38C130.528 462.348 130.778 463.448 130.778 464.68C130.778 465.648 130.616 466.528 130.294 467.32C130 468.112 129.575 468.816 129.018 469.432C128.49 470.019 127.859 470.503 127.126 470.884C126.422 471.265 125.674 471.544 124.882 471.72V471.94C125.762 472.116 126.583 472.409 127.346 472.82C128.138 473.201 128.827 473.715 129.414 474.36C130 474.976 130.455 475.724 130.778 476.604C131.13 477.455 131.306 478.437 131.306 479.552C131.306 480.901 131.042 482.133 130.514 483.248C129.986 484.333 129.238 485.272 128.27 486.064C127.331 486.856 126.187 487.472 124.838 487.912C123.488 488.323 121.992 488.528 120.35 488.528C118.912 488.528 117.651 488.367 116.566 488.044C115.48 487.751 114.512 487.355 113.662 486.856C112.84 486.328 112.107 485.741 111.462 485.096C110.846 484.421 110.303 483.732 109.834 483.028L113.486 480.168C113.867 480.784 114.263 481.356 114.674 481.884C115.114 482.383 115.598 482.823 116.126 483.204C116.683 483.556 117.299 483.835 117.974 484.04C118.678 484.245 119.47 484.348 120.35 484.348C122.227 484.348 123.664 483.908 124.662 483.028C125.659 482.119 126.158 480.872 126.158 479.288V478.98C126.158 477.396 125.63 476.193 124.574 475.372C123.518 474.551 122.022 474.14 120.086 474.14H116.83V469.916H119.954ZM148.009 488.528C146.102 488.528 144.445 488.176 143.037 487.472C141.629 486.739 140.47 485.697 139.561 484.348C138.651 482.999 137.977 481.341 137.537 479.376C137.097 477.411 136.877 475.167 136.877 472.644C136.877 470.151 137.097 467.921 137.537 465.956C137.977 463.961 138.651 462.289 139.561 460.94C140.47 459.591 141.629 458.564 143.037 457.86C144.445 457.127 146.102 456.76 148.009 456.76C151.822 456.76 154.623 458.153 156.413 460.94C158.231 463.727 159.141 467.628 159.141 472.644C159.141 477.66 158.231 481.561 156.413 484.348C154.623 487.135 151.822 488.528 148.009 488.528ZM148.009 484.304C149.065 484.304 149.959 484.099 150.693 483.688C151.455 483.248 152.071 482.632 152.541 481.84C153.01 481.048 153.347 480.109 153.553 479.024C153.758 477.909 153.861 476.677 153.861 475.328V469.96C153.861 468.611 153.758 467.393 153.553 466.308C153.347 465.193 153.01 464.24 152.541 463.448C152.071 462.656 151.455 462.055 150.693 461.644C149.959 461.204 149.065 460.984 148.009 460.984C146.953 460.984 146.043 461.204 145.281 461.644C144.547 462.055 143.946 462.656 143.477 463.448C143.007 464.24 142.67 465.193 142.465 466.308C142.259 467.393 142.157 468.611 142.157 469.96V475.328C142.157 476.677 142.259 477.909 142.465 479.024C142.67 480.109 143.007 481.048 143.477 481.84C143.946 482.632 144.547 483.248 145.281 483.688C146.043 484.099 146.953 484.304 148.009 484.304ZM172.235 485.228V476.516H164.139V472.6H172.235V463.888H176.547V472.6H184.643V476.516H176.547V485.228H172.235Z" fill="#141514"/>
<rect x="242.5" y="446" width="157.5" height="53" rx="2" fill="#7CFC00"/>
<path d="M277.595 459.08V476.28C277.595 478.653 278.048 480.44 278.955 481.64C279.862 482.84 281.408 483.44 283.595 483.44C285.782 483.44 287.328 482.84 288.235 481.64C289.142 480.44 289.595 478.653 289.595 476.28V459.08H294.035V475.56C294.035 477.613 293.848 479.387 293.475 480.88C293.102 482.373 292.502 483.613 291.675 484.6C290.848 485.56 289.768 486.28 288.435 486.76C287.128 487.24 285.515 487.48 283.595 487.48C281.675 487.48 280.048 487.24 278.715 486.76C277.408 486.28 276.342 485.56 275.515 484.6C274.688 483.613 274.088 482.373 273.715 480.88C273.342 479.387 273.155 477.613 273.155 475.56V459.08H277.595ZM309.097 487.48C306.75 487.48 304.75 487.053 303.097 486.2C301.47 485.347 300.07 484.2 298.897 482.76L302.017 479.84C303.004 481.04 304.084 481.947 305.257 482.56C306.457 483.173 307.817 483.48 309.337 483.48C311.124 483.48 312.47 483.08 313.377 482.28C314.284 481.48 314.737 480.4 314.737 479.04C314.737 477.947 314.417 477.08 313.777 476.44C313.137 475.8 312.004 475.32 310.377 475L307.897 474.56C305.177 474.053 303.137 473.16 301.777 471.88C300.417 470.6 299.737 468.84 299.737 466.6C299.737 465.373 299.964 464.267 300.417 463.28C300.897 462.267 301.55 461.427 302.377 460.76C303.23 460.067 304.257 459.533 305.457 459.16C306.657 458.787 308.004 458.6 309.497 458.6C311.604 458.6 313.43 458.973 314.977 459.72C316.524 460.44 317.844 461.493 318.937 462.88L315.777 465.68C315.057 464.747 314.177 464 313.137 463.44C312.097 462.88 310.804 462.6 309.257 462.6C307.657 462.6 306.417 462.92 305.537 463.56C304.657 464.2 304.217 465.133 304.217 466.36C304.217 467.533 304.577 468.413 305.297 469C306.017 469.56 307.137 469.987 308.657 470.28L311.137 470.8C313.937 471.333 315.977 472.24 317.257 473.52C318.564 474.8 319.217 476.56 319.217 478.8C319.217 480.107 318.99 481.293 318.537 482.36C318.084 483.427 317.417 484.347 316.537 485.12C315.684 485.867 314.63 486.453 313.377 486.88C312.124 487.28 310.697 487.48 309.097 487.48ZM324.643 487V459.08H342.523V463.08H329.163V470.84H341.283V474.84H329.163V483H342.523V487H324.643ZM352.874 487H348.354V459.08H360.394C362.901 459.08 364.874 459.84 366.314 461.36C367.754 462.853 368.474 464.893 368.474 467.48C368.474 469.48 368.007 471.147 367.074 472.48C366.167 473.787 364.821 474.707 363.034 475.24L369.074 487H364.034L358.434 475.72H352.874V487ZM360.074 471.92C361.221 471.92 362.114 471.627 362.754 471.04C363.394 470.427 363.714 469.56 363.714 468.44V466.52C363.714 465.4 363.394 464.547 362.754 463.96C362.114 463.347 361.221 463.04 360.074 463.04H352.874V471.92H360.074Z" fill="#141514"/>
<rect y="515" width="331" height="53" rx="2" fill="#7CFC00"/>
<path d="M46.4822 556V552.32H50.2822V531.76H46.4822V528.08H58.6422V531.76H54.8022V552.32H58.6422V556H46.4822ZM71.8428 540.56L68.7628 534.64H68.6428V556H64.3228V528.08H69.3628L78.4828 543.52L81.5628 549.44H81.6828V528.08H86.0028V556H80.9628L71.8428 540.56ZM103.238 532.08V556H98.7175V532.08H90.3975V528.08H111.558V532.08H103.238ZM115.963 556V528.08H133.843V532.08H120.483V539.84H132.603V543.84H120.483V552H133.843V556H115.963ZM144.194 556H139.674V528.08H151.714C154.221 528.08 156.194 528.84 157.634 530.36C159.074 531.853 159.794 533.893 159.794 536.48C159.794 538.48 159.328 540.147 158.394 541.48C157.488 542.787 156.141 543.707 154.354 544.24L160.394 556H155.354L149.754 544.72H144.194V556ZM151.394 540.92C152.541 540.92 153.434 540.627 154.074 540.04C154.714 539.427 155.034 538.56 155.034 537.44V535.52C155.034 534.4 154.714 533.547 154.074 532.96C153.434 532.347 152.541 532.04 151.394 532.04H144.194V540.92H151.394ZM171.232 556L162.072 528.08H166.752L171.192 541.88L173.872 551.6H174.032L176.752 541.88L181.192 528.08H185.752L176.472 556H171.232ZM188.709 556V552.32H192.509V531.76H188.709V528.08H200.869V531.76H197.029V552.32H200.869V556H188.709ZM206.549 556V528.08H224.429V532.08H211.069V539.84H223.189V543.84H211.069V552H224.429V556H206.549ZM234.38 556L227.78 528.08H232.38L235.22 541.52L237.18 550.8H237.3L239.54 541.52L242.86 528.08H247.9L251.18 541.52L253.38 550.76H253.5L255.54 541.52L258.46 528.08H262.9L256.02 556H250.94L247.38 541.56L245.3 533.08H245.22L243.1 541.56L239.46 556H234.38ZM275.652 556.48C273.305 556.48 271.305 556.053 269.652 555.2C268.025 554.347 266.625 553.2 265.452 551.76L268.572 548.84C269.558 550.04 270.638 550.947 271.812 551.56C273.012 552.173 274.372 552.48 275.892 552.48C277.678 552.48 279.025 552.08 279.932 551.28C280.838 550.48 281.292 549.4 281.292 548.04C281.292 546.947 280.972 546.08 280.332 545.44C279.692 544.8 278.558 544.32 276.932 544L274.452 543.56C271.732 543.053 269.692 542.16 268.332 540.88C266.972 539.6 266.292 537.84 266.292 535.6C266.292 534.373 266.518 533.267 266.972 532.28C267.452 531.267 268.105 530.427 268.932 529.76C269.785 529.067 270.812 528.533 272.012 528.16C273.212 527.787 274.558 527.6 276.052 527.6C278.158 527.6 279.985 527.973 281.532 528.72C283.078 529.44 284.398 530.493 285.492 531.88L282.332 534.68C281.612 533.747 280.732 533 279.692 532.44C278.652 531.88 277.358 531.6 275.812 531.6C274.212 531.6 272.972 531.92 272.092 532.56C271.212 533.2 270.772 534.133 270.772 535.36C270.772 536.533 271.132 537.413 271.852 538C272.572 538.56 273.692 538.987 275.212 539.28L277.692 539.8C280.492 540.333 282.532 541.24 283.812 542.52C285.118 543.8 285.772 545.56 285.772 547.8C285.772 549.107 285.545 550.293 285.092 551.36C284.638 552.427 283.972 553.347 283.092 554.12C282.238 554.867 281.185 555.453 279.932 555.88C278.678 556.28 277.252 556.48 275.652 556.48Z" fill="#141514"/>
<rect x="347" y="515" width="53" height="53" rx="2" fill="#7CFC00"/>
</g>
<defs>
<clipPath id="clip0_1528_112">
<rect width="400" height="536" fill="white" transform="translate(0 32)"/>
</clipPath>
</defs>
</svg>
